<?xml version="1.0" encoding="UTF-8" standalone="no"?>
<!-- Created with Inkscape (http://www.inkscape.org/) -->

<svg
   width="65mm"
   height="65mm"
   viewBox="0 0 65 65"
   version="1.1"
   id="svg5"
   inkscape:version="1.1.1 (3bf5ae0d25, 2021-09-20)"
   sodipodi:docname="catapult.svg"
   xmlns:inkscape="http://www.inkscape.org/namespaces/inkscape"
   xmlns:sodipodi="http://sodipodi.sourceforge.net/DTD/sodipodi-0.dtd"
   xmlns="http://www.w3.org/2000/svg"
   xmlns:svg="http://www.w3.org/2000/svg">
  <sodipodi:namedview
     id="namedview7"
     pagecolor="#ffffff"
     bordercolor="#666666"
     borderopacity="1.0"
     inkscape:pageshadow="2"
     inkscape:pageopacity="0.0"
     inkscape:pagecheckerboard="0"
     inkscape:document-units="mm"
     showgrid="false"
     inkscape:zoom="0.76435188"
     inkscape:cx="13.08298"
     inkscape:cy="-63.452451"
     inkscape:window-width="1920"
     inkscape:window-height="1017"
     inkscape:window-x="1912"
     inkscape:window-y="-8"
     inkscape:window-maximized="1"
     inkscape:current-layer="layer6" />
  <defs
     id="defs2" />
  <g
     inkscape:groupmode="layer"
     id="layer6"
     inkscape:label="dice"
     style="display:inline">
    <path
       d="m -193.41538,25.566298 c -0.10583,0.211667 -0.0353,0.493889 0.17639,0.599722 0.52916,0.352778 0.88194,-0.105833 0.42333,-0.564444 -0.24694,-0.246945 -0.45861,-0.246945 -0.59972,-0.03528 z"
       id="path968"
       style="fill:#000000;stroke:none;stroke-width:0.0352778" />
    <path
       d="m -210.91316,-5.4428706 c 0,0.2116667 0.14111,0.4586112 0.35278,0.5644445 0.21166,0.1058333 0.24694,-0.035278 0.14111,-0.3175 -0.24695,-0.6350001 -0.49389,-0.7408334 -0.49389,-0.2469445 z"
       id="path970"
       style="fill:#000000;stroke:none;stroke-width:0.0352778" />
    <path
       id="path842"
       style="fill:#000000;stroke-width:0.114945"
       d="M 54.533224,4.2533862 C 53.662265,4.4116622 52.884051,4.8364093 52.040296,5.0894147 45.650986,7.4129453 39.261973,9.7373048 32.872475,12.060316 31.831813,10.45978 30.034141,9.3204344 28.106665,9.1763892 27.540086,9.1295915 26.937677,9.1643513 26.374847,9.2782557 25.951195,9.3653855 25.509298,9.506943 25.10519,9.6817406 23.764352,10.26346 22.662567,11.34458 22.032388,12.649397 c -0.422007,0.879511 -0.627608,1.860498 -0.613111,2.819532 -0.0071,0.218756 0.07535,0.461988 -0.09754,0.638212 -0.284013,0.363724 -0.769429,0.442127 -1.152188,0.66212 -2.001187,0.928256 -4.002534,1.856166 -6.003621,2.784639 -0.04335,-0.753034 0.122998,-1.529491 -0.111325,-2.26236 -0.192119,-0.506133 -0.737997,-0.785041 -1.247845,-0.791741 -0.567778,-0.0035 -1.135734,0.02166 -1.703966,0.01326 -1.9676293,0.01076 -3.9385437,-0.03434 -5.9039162,0.04307 -0.6436299,0.167149 -1.052619,0.877351 -0.9409795,1.521304 -5.001e-4,3.259907 -0.021644,6.520015 0.022842,9.779733 0.1313699,0.675639 0.8616812,1.12134 1.5260869,1.01062 2.4600463,-0.01135 4.9225958,0.03792 7.3809328,-0.03696 0.661274,-0.145258 1.078355,-0.87355 0.966279,-1.523879 0.0042,-1.646315 0.0058,-3.292637 0.0053,-4.938957 3.405258,-1.579838 6.810479,-3.159758 10.21591,-4.739223 -4.087345,7.801239 -8.173906,15.602891 -12.26159,23.403951 -2.3117411,0.02383 -4.6273996,-0.04847 -6.9364653,0.05187 -0.6365528,0.173939 -1.0267693,0.880508 -0.9225948,1.517111 0.00636,4.06851 -0.020079,8.137994 0.023293,12.205867 0.1111504,0.687891 0.8567831,1.146894 1.5261468,1.033212 1.001066,0.01416 2.0060914,-0.02474 3.0046034,0.02977 0.5010114,0.14838 0.6930038,0.689085 0.8449902,1.134437 0.7834127,1.820486 2.4610817,3.202266 4.4027847,3.612841 2.076529,0.442052 4.370547,-0.25838 5.797655,-1.841846 0.684461,-0.736917 1.187604,-1.637969 1.468678,-2.602953 0.219352,-0.348783 0.676538,-0.296608 1.031473,-0.319729 3.809204,-0.019 7.618533,-0.0039 11.427789,-0.0088 0.185439,0.791878 0.547145,1.599204 1.016596,2.260729 0.885471,1.269321 2.250378,2.204598 3.774766,2.505686 1.449027,0.313011 3.061902,0.07634 4.367226,-0.686459 1.329115,-0.768453 2.337246,-2.024849 2.812842,-3.484048 0.08443,-0.29555 0.3096,-0.562746 0.631741,-0.593737 0.44107,-0.03503 0.885784,0.0095 1.328523,-0.0033 0.781162,0.002 1.569614,0.03247 2.344796,-0.06784 0.624057,-0.184428 0.984414,-0.889891 0.879116,-1.513041 0.0014,-1.924905 0.0031,-3.84981 0.0043,-5.774715 2.414954,0 4.829918,0 7.24487,0 0.0606,1.34363 -0.05941,2.70291 0.07654,4.033253 0.23304,0.752848 1.268587,1.150488 1.91263,0.655466 0.419568,-0.283385 0.648703,-0.808904 0.571317,-1.308976 -0.01142,-1.659062 0.04117,-3.321453 -0.04043,-4.978177 -0.159302,-0.648209 -0.872625,-1.055334 -1.516659,-0.951741 -2.744728,1.78e-4 -5.489467,3.9e-4 -8.2342,5.29e-4 -0.06072,-1.34159 0.06036,-2.699071 -0.07712,-4.027281 -0.204614,-0.628436 -0.918549,-0.98614 -1.552695,-0.872705 -2.081486,-0.0014 -4.162973,-0.003 -6.244455,-0.0043 -3.713179,-7.08867 -7.426875,-14.177067 -11.139645,-21.26595 1.101633,-1.136838 1.772984,-2.667576 1.836272,-4.257374 0.01329,-0.350952 -0.01067,-0.701544 -0.04148,-1.050969 6.519629,-2.371869 13.039704,-4.7425284 19.55968,-7.1134489 0,3.0901519 0,6.1803029 0,9.2704539 -2.150499,0.489962 -4.023714,2.155406 -4.639574,4.290264 -0.416395,1.363231 -0.33893,2.913297 0.251148,4.248067 0.728718,1.720906 2.289378,3.055174 4.101221,3.510836 1.916553,0.520806 4.068946,0.02958 5.569422,-1.271638 1.047188,-0.897309 1.790076,-2.142019 2.048436,-3.487948 0.208015,-1.018204 0.145928,-2.086846 -0.157801,-3.057389 -0.560026,-1.81136 -1.999419,-3.316415 -3.780405,-3.964467 -0.260551,-0.100875 -0.562227,-0.198517 -0.84282,-0.286187 -0.0028,-3.770778 0.01253,-7.5416705 -0.02385,-11.312335 C 55.710061,4.6973211 55.13668,4.2230657 54.533177,4.2533226 Z M 27.586941,11.705696 c 1.897688,-0.05231 3.649192,1.645671 3.64174,3.546662 0.06247,1.758937 -1.334325,3.465254 -3.096686,3.672068 -1.585729,0.248186 -3.302577,-0.678867 -3.8822,-2.192793 -0.605672,-1.429475 -0.191709,-3.252872 1.056487,-4.206102 0.639879,-0.518333 1.455547,-0.819303 2.280659,-0.819835 z M 6.95039,19.061893 c 1.5533127,0 3.106624,0 4.659937,0 0,2.419664 0,4.839324 0,7.258989 -1.602368,0 -3.2047357,0 -4.8071036,0 0,-2.419665 0,-4.839325 0,-7.258989 0.049054,0 0.098111,0 0.1471666,0 z m 47.613789,0 c 1.892178,-0.051 3.642871,1.63775 3.6374,3.534713 0.06908,1.760302 -1.324263,3.471448 -3.086893,3.684704 -1.597634,0.253259 -3.330081,-0.686251 -3.903807,-2.216036 -0.596221,-1.440313 -0.160614,-3.26784 1.103503,-4.209497 0.635059,-0.503323 1.437683,-0.795471 2.249797,-0.793884 z m -29.065276,2.147776 c 1.012297,0.24802 2.041847,0.399206 3.078788,0.223269 0.341598,-0.07445 0.710704,-0.162814 1.042788,0.0011 0.394504,0.15204 0.654573,0.523363 0.795912,0.894623 0.592231,1.181872 1.232498,2.359357 1.843348,3.541287 2.648166,5.054634 5.296321,10.109269 7.944494,15.163898 -8.404287,0 -16.808573,0 -25.21286,0 3.466322,-6.615644 6.932474,-13.231376 10.39892,-19.846955 0.0362,0.0076 0.0724,0.01521 0.10861,0.0228 z M 6.95039,43.583446 c 13.813998,0 27.627995,0 41.441992,0 0,3.237138 0,6.474276 0,9.711415 -0.818742,0 -1.637485,0 -2.456228,0 -0.474688,-2.050849 -2.001287,-3.85893 -4.007959,-4.546609 -1.980001,-0.716297 -4.317033,-0.329143 -5.945136,1.01137 -1.025553,0.822375 -1.755318,1.980465 -2.117961,3.228201 -0.0085,0.205089 -0.14626,0.25061 -0.329828,0.240384 -1.387724,0.134499 -2.783819,0.0315 -4.175261,0.06666 -2.649555,0 -5.29911,0 -7.948665,0 -0.423608,-1.861032 -1.707657,-3.501252 -3.442156,-4.317469 -1.827441,-0.86649 -4.114982,-0.769161 -5.848216,0.319469 -1.231992,0.753048 -2.1771416,1.928696 -2.6453864,3.30072 -0.090989,0.319013 -0.3304984,0.600846 -0.6674009,0.664286 -0.450174,0.09004 -0.911779,0.0022 -1.3671983,0.03127 -0.2125877,5.84e-4 -0.4251763,8.62e-4 -0.637763,0.0018 0,-3.237139 0,-6.474277 0,-9.711415 0.049054,0 0.098111,0 0.1471666,0 z m 8.378219,7.356738 c 1.896365,-0.05257 3.649765,1.643806 3.638454,3.545049 0.06449,1.764746 -1.341043,3.477562 -3.111085,3.677513 -1.609867,0.244898 -3.348478,-0.722255 -3.900139,-2.272566 -0.568825,-1.43903 -0.119043,-3.244582 1.142995,-4.170716 0.631218,-0.494292 1.426487,-0.780504 2.229775,-0.77928 z m 24.522095,0 c 1.896226,-0.05223 3.649643,1.643663 3.637913,3.545049 0.06452,1.764315 -1.340138,3.476913 -3.109993,3.677016 -1.600256,0.243897 -3.32894,-0.708866 -3.890316,-2.245037 -0.586728,-1.443829 -0.136973,-3.268947 1.134868,-4.19974 0.630433,-0.49339 1.425027,-0.779378 2.227528,-0.777288 z" />
  </g>
</svg>
