<?xml version="1.0" encoding="UTF-8" standalone="no"?>
<!-- Created with Inkscape (http://www.inkscape.org/) -->

<svg
   width="65mm"
   height="65mm"
   viewBox="0 0 65 65"
   version="1.1"
   id="svg5"
   inkscape:version="1.1.1 (3bf5ae0d25, 2021-09-20)"
   sodipodi:docname="clock.svg"
   xmlns:inkscape="http://www.inkscape.org/namespaces/inkscape"
   xmlns:sodipodi="http://sodipodi.sourceforge.net/DTD/sodipodi-0.dtd"
   xmlns="http://www.w3.org/2000/svg"
   xmlns:svg="http://www.w3.org/2000/svg">
  <sodipodi:namedview
     id="namedview7"
     pagecolor="#ffffff"
     bordercolor="#666666"
     borderopacity="1.0"
     inkscape:pageshadow="2"
     inkscape:pageopacity="0.0"
     inkscape:pagecheckerboard="0"
     inkscape:document-units="mm"
     showgrid="false"
     inkscape:zoom="0.70710678"
     inkscape:cx="-370.52395"
     inkscape:cy="140.71425"
     inkscape:window-width="1920"
     inkscape:window-height="1017"
     inkscape:window-x="1912"
     inkscape:window-y="-8"
     inkscape:window-maximized="1"
     inkscape:current-layer="layer6" />
  <defs
     id="defs2" />
  <g
     inkscape:groupmode="layer"
     id="layer6"
     inkscape:label="icon"
     style="display:inline">
    <g
       transform="matrix(0.00468483,0,0,-0.00468483,6.1009829,62.492707)"
       fill="#000000"
       stroke="none"
       id="g942">
      <path
         d="m 3280,12789 c -330,-38 -748,-188 -1205,-431 -932,-496 -1515,-1035 -1619,-1495 -20,-89 -21,-211 -2,-283 12,-44 401,-1059 410,-1067 1,-2 49,52 107,120 210,246 524,552 794,773 760,622 1684,1060 2645,1254 107,22 219,42 248,46 28,4 52,9 52,12 0,2 -161,205 -357,450 -393,489 -418,515 -565,572 -137,53 -317,71 -508,49 z"
         id="path934" />
      <path
         d="m 7646,12785 c -112,-19 -209,-57 -291,-113 -63,-43 -107,-94 -432,-497 -199,-248 -363,-453 -363,-456 0,-4 24,-9 53,-13 28,-4 131,-23 227,-42 877,-174 1708,-543 2440,-1082 347,-256 743,-625 1019,-949 58,-68 106,-122 107,-120 9,8 398,1023 410,1067 19,72 18,194 -2,283 -79,349 -435,747 -1014,1134 -430,288 -926,543 -1310,675 -108,36 -289,83 -405,103 -127,23 -341,28 -439,10 z"
         id="path936" />
      <path
         d="M 5245,11259 C 4400,11201 3547,10939 2815,10512 1333,9648 322,8169 66,6490 17,6166 6,6010 6,5635 6,5259 17,5099 66,4780 281,3374 1028,2098 2155,1209 2920,605 3824,212 4780,66 5102,17 5260,6 5635,6 c 376,0 534,11 855,60 1406,215 2682,961 3571,2089 604,765 996,1666 1143,2625 49,319 60,479 60,855 0,375 -11,531 -60,855 -214,1401 -956,2674 -2079,3566 -891,707 -1980,1127 -3123,1204 -176,11 -580,11 -757,-1 z m 790,-774 c 970,-83 1848,-429 2610,-1029 339,-266 674,-616 932,-971 775,-1069 1079,-2400 847,-3710 C 10236,3713 9674,2716 8860,1996 8510,1687 8171,1462 7745,1254 6424,610 4852,609 3532,1250 c -101,49 -225,113 -275,141 -1078,612 -1877,1589 -2256,2761 -249,770 -298,1623 -140,2423 121,615 349,1172 703,1724 259,403 664,845 1061,1157 756,595 1637,944 2595,1029 202,18 610,18 815,0 z"
         id="path938" />
      <path
         d="m 5508,9711 c -108,-43 -191,-122 -230,-219 l -23,-57 -3,-1707 -2,-1708 -1713,-2 -1712,-3 -66,-32 c -79,-39 -150,-111 -187,-191 -24,-50 -27,-69 -27,-157 0,-87 3,-107 26,-156 50,-106 143,-185 254,-214 52,-13 275,-15 1955,-15 1549,0 1904,3 1945,14 119,31 206,103 258,214 l 32,67 v 1945 1945 l -23,57 c -33,81 -108,160 -190,200 -58,29 -78,33 -157,36 -69,1 -101,-2 -137,-17 z"
         id="path940" />
    </g>
  </g>
</svg>
