<?xml version="1.0" encoding="UTF-8" standalone="no"?>
<!-- Created with Inkscape (http://www.inkscape.org/) -->

<svg
   width="65mm"
   height="65mm"
   viewBox="0 0 65 65"
   version="1.1"
   id="svg5"
   inkscape:version="1.1.1 (3bf5ae0d25, 2021-09-20)"
   sodipodi:docname="compass.svg"
   xmlns:inkscape="http://www.inkscape.org/namespaces/inkscape"
   xmlns:sodipodi="http://sodipodi.sourceforge.net/DTD/sodipodi-0.dtd"
   xmlns="http://www.w3.org/2000/svg"
   xmlns:svg="http://www.w3.org/2000/svg">
  <sodipodi:namedview
     id="namedview7"
     pagecolor="#ffffff"
     bordercolor="#666666"
     borderopacity="1.0"
     inkscape:pageshadow="2"
     inkscape:pageopacity="0.0"
     inkscape:pagecheckerboard="0"
     inkscape:document-units="mm"
     showgrid="false"
     inkscape:zoom="1.0809568"
     inkscape:cx="-237.75233"
     inkscape:cy="227.11361"
     inkscape:window-width="1920"
     inkscape:window-height="1017"
     inkscape:window-x="1912"
     inkscape:window-y="-8"
     inkscape:window-maximized="1"
     inkscape:current-layer="layer6" />
  <defs
     id="defs2" />
  <g
     inkscape:groupmode="layer"
     id="layer6"
     inkscape:label="dice"
     style="display:inline">
    <path
       d="m -193.41538,25.566298 c -0.10583,0.211667 -0.0353,0.493889 0.17639,0.599722 0.52916,0.352778 0.88194,-0.105833 0.42333,-0.564444 -0.24694,-0.246945 -0.45861,-0.246945 -0.59972,-0.03528 z"
       id="path968"
       style="fill:#000000;stroke:none;stroke-width:0.0352778" />
    <path
       d="m -210.91316,-5.4428706 c 0,0.2116667 0.14111,0.4586112 0.35278,0.5644445 0.21166,0.1058333 0.24694,-0.035278 0.14111,-0.3175 -0.24695,-0.6350001 -0.49389,-0.7408334 -0.49389,-0.2469445 z"
       id="path970"
       style="fill:#000000;stroke:none;stroke-width:0.0352778" />
    <path
       d="m -165.93399,51.742411 c 0.35278,0.388055 0.70556,0.705555 0.81139,0.705555 0.10583,0 -0.10583,-0.3175 -0.45861,-0.705555 -0.35278,-0.388056 -0.70556,-0.705556 -0.81139,-0.705556 -0.10583,0 0.10583,0.3175 0.45861,0.705556 z"
       id="path972"
       style="fill:#000000;stroke:none;stroke-width:0.0352778" />
    <g
       style="fill:#000000"
       id="g1325"
       transform="matrix(1.8409319,0,0,1.8409319,3.5227582,3.5237317)">
      <g
         id="g1316">
	<path
   d="m 27.665,30.754 -1.477,-2.769 c 0.408,-0.45 0.519,-1.121 0.216,-1.688 l -3.51,-6.578 h 2.203 c 0.546,0 0.986,-0.442 0.986,-0.986 0,-0.545 -0.44,-0.986 -0.986,-0.986 h -3.255 l -1.663,-3.12 C 21.64,13.375 22.57,11.52 22.57,9.444 22.57,6.008 20.029,3.173 16.725,2.694 V 0.987 C 16.726,0.442 16.285,0 15.74,0 15.195,0 14.754,0.442 14.754,0.987 v 1.705 c -3.304,0.479 -5.845,3.314 -5.845,6.75 0,2.076 0.929,3.931 2.389,5.183 L 9.635,17.744 H 7.33 c -0.545,0 -0.986,0.441 -0.986,0.986 0,0.544 0.441,0.986 0.986,0.986 h 1.254 l -3.509,6.578 c -0.302,0.568 -0.193,1.24 0.217,1.69 l -1.476,2.769 c -0.128,0.24 -0.037,0.539 0.203,0.667 0.074,0.039 0.154,0.058 0.232,0.058 0.176,0 0.347,-0.094 0.436,-0.26 l 1.479,-2.771 c 0.071,0.011 0.143,0.025 0.214,0.025 0.529,0 1.041,-0.285 1.307,-0.783 l 4.251,-7.971 h 7.605 l 4.251,7.971 c 0.266,0.5 0.777,0.783 1.306,0.783 0.072,0 0.146,-0.015 0.217,-0.025 l 1.479,2.771 c 0.089,0.166 0.26,0.262 0.437,0.262 0.078,0 0.157,-0.02 0.231,-0.059 0.238,-0.128 0.329,-0.427 0.201,-0.667 z M 12.99,17.745 13.911,16.017 c 0.583,0.162 1.194,0.256 1.829,0.256 0.635,0 1.248,-0.094 1.831,-0.256 l 0.921,1.729 z m 1.883,-3.533 0.867,-1.625 0.867,1.625 c -0.283,0.051 -0.57,0.088 -0.868,0.088 -0.296,0 -0.584,-0.036 -0.866,-0.088 z M 19.219,12.82 17.727,10.022 C 17.412,9.428 16.791,9.057 16.118,9.057 h -0.755 c -0.673,0 -1.292,0.371 -1.608,0.965 l -1.493,2.799 c -0.85,-0.875 -1.379,-2.064 -1.379,-3.378 0,-2.678 2.179,-4.857 4.857,-4.857 2.678,0 4.858,2.179 4.858,4.857 -10e-4,1.313 -0.53,2.503 -1.379,3.377 z"
   id="path1314" />

</g>
    </g>
  </g>
</svg>
