<?xml version="1.0" encoding="UTF-8" standalone="no"?>
<!-- Created with Inkscape (http://www.inkscape.org/) -->

<svg
   width="3089.9998"
   height="540"
   viewBox="0 0 817.56245 142.875"
   version="1.1"
   id="svg16875"
   inkscape:version="1.1.1 (3bf5ae0d25, 2021-09-20)"
   sodipodi:docname="deck-poker-cards-back.svg"
   xmlns:inkscape="http://www.inkscape.org/namespaces/inkscape"
   xmlns:sodipodi="http://sodipodi.sourceforge.net/DTD/sodipodi-0.dtd"
   xmlns="http://www.w3.org/2000/svg"
   xmlns:svg="http://www.w3.org/2000/svg">
  <sodipodi:namedview
     id="namedview16877"
     pagecolor="#ffffff"
     bordercolor="#666666"
     borderopacity="1.0"
     inkscape:pageshadow="2"
     inkscape:pageopacity="0.0"
     inkscape:pagecheckerboard="0"
     inkscape:document-units="mm"
     showgrid="false"
     units="px"
     inkscape:zoom="0.25"
     inkscape:cx="1112"
     inkscape:cy="-162"
     inkscape:window-width="1920"
     inkscape:window-height="1017"
     inkscape:window-x="1912"
     inkscape:window-y="-8"
     inkscape:window-maximized="1"
     inkscape:current-layer="layer2"
     width="359.99997px"
     fit-margin-top="0"
     fit-margin-left="0"
     fit-margin-right="0"
     fit-margin-bottom="0" />
  <defs
     id="defs16872" />
  <g
     inkscape:groupmode="layer"
     id="layer2"
     inkscape:label="decoration"
     style="display:inline">
    <path
       id="rect5652"
       style="display:inline;fill:#ff0000;stroke-width:1;stroke-linecap:round;paint-order:stroke fill markers"
       d="m 8.8408038,5.2916666 c -1.966219,0 -3.5491372,1.5829182 -3.5491372,3.5491372 V 12.824023 L 8.2170695,15.749426 15.543237,8.4232585 12.411645,5.2916666 Z m 4.6942872,0 2.569869,2.569869 2.569869,-2.569869 z m 6.261116,0 -3.130558,3.1305582 7.327202,7.3272012 7.32565,-7.3261675 -3.131592,-3.1315919 z m 9.515181,0 2.569353,2.5693523 2.569353,-2.5693523 z m 6.261118,0 -3.13056,3.1305582 7.326685,7.3266842 7.326167,-7.3266842 -3.130558,-3.1305582 z m 9.515182,0 2.56935,2.5693523 2.569353,-2.5693523 z m 6.261115,0 -3.130558,3.1305582 7.326683,7.3266842 7.32617,-7.3266842 -3.130558,-3.1305582 z m 9.514147,0 2.569353,2.5693523 2.569353,-2.5693523 z m 6.26215,0 -3.131073,3.1310749 7.326682,7.3266845 7.326686,-7.3272012 -3.130558,-3.1305582 z m 9.513631,0 2.569869,2.569869 2.569869,-2.569869 z m 6.26215,0 -3.131073,3.1310749 7.326682,7.3266845 2.861842,-2.861841 V 8.8408038 c 0,-1.966219 -1.582917,-3.5491372 -3.549136,-3.5491372 z m -66.796955,3.692281 -7.3261674,7.3261674 7.3272014,7.327202 7.326168,-7.326685 z m 15.77578,0 -7.326166,7.3261674 7.326685,7.326685 7.326683,-7.325651 z m 15.776816,0 -7.326686,7.3266844 7.326686,7.326685 7.326685,-7.326685 z m 15.776815,0 -7.327201,7.3266844 7.326683,7.326685 7.327201,-7.327202 z m 15.775781,0 -7.327201,7.3266844 7.326683,7.326685 7.326685,-7.327202 z M 5.2916666,13.946952 v 4.72736 l 2.36368,-2.36368 z m 84.6666654,0.06305 -2.300634,2.300635 2.300634,2.300635 z m -18.637104,2.861324 -7.327201,7.327202 7.326682,7.326684 7.327202,-7.327201 z m -63.1046752,5.17e-4 -2.9248862,2.924886 v 8.80308 l 2.9254029,2.925403 7.3261675,-7.326684 z m 15.7752642,0 -7.326168,7.326168 7.326685,7.326685 7.326683,-7.326168 z m 63.105192,0 -7.327201,7.326685 7.326682,7.326684 2.861842,-2.861842 v -8.930203 z m -47.328894,5.29e-4 -7.326169,7.326168 7.326685,7.326685 7.326167,-7.326168 z m 15.776813,0 -7.326683,7.326168 7.326683,7.326685 7.326686,-7.32618 z m -39.441002,7.886845 -7.3261674,7.326684 7.3266844,7.326686 7.326685,-7.32617 z m 63.105192,0 -7.327201,7.3272 7.326683,7.326685 7.327201,-7.327201 z m -15.776815,5.29e-4 -7.326167,7.326684 7.326683,7.326686 7.326169,-7.326686 z m -31.552078,5.29e-4 -7.326169,7.326166 7.326685,7.326685 7.326685,-7.326167 z m 15.776297,0 -7.326686,7.326684 7.326686,7.326683 7.326685,-7.326683 z M 5.2916666,29.723768 v 4.726326 l 2.3631633,-2.363163 z m 84.6666654,0.06304 -2.300118,2.300119 2.300118,2.300118 z M 8.215519,32.64762 5.2916666,35.571472 v 8.805148 l 2.9248862,2.924884 7.3261672,-7.326683 z m 78.882006,0 -7.327201,7.327201 7.326685,7.326683 2.861323,-2.861323 v -8.931754 z m -63.105191,5.29e-4 -7.326168,7.326167 7.326685,7.326685 7.326685,-7.326167 z m 15.776297,0 -7.326685,7.326167 7.327201,7.327201 7.32617,-7.326683 z m 15.775781,0 -7.326685,7.326685 7.326685,7.326683 7.326686,-7.326683 z m 15.776297,0 -7.326682,7.326685 7.326166,7.326683 7.326686,-7.327201 z m -55.216266,7.88789 -7.3266844,7.326686 7.3272014,7.327201 7.326168,-7.326685 z m 15.775782,0 -7.326169,7.326167 7.326685,7.327202 7.326167,-7.326683 z m 15.776297,0 -7.326686,7.326167 7.326686,7.326686 7.326685,-7.326167 z m 15.776297,0 -7.327202,7.326686 7.326686,7.326683 7.327201,-7.327202 z m 15.776299,5.3e-4 -7.327201,7.326685 7.326683,7.326686 7.326685,-7.327202 z m -73.9174514,4.96298 v 4.726326 l 2.3631633,-2.363163 z m 84.6666654,0.06304 -2.300118,2.300118 2.300118,2.300118 z M 8.2165528,48.423917 5.2916666,51.348803 v 8.803079 l 2.9254029,2.925403 7.3261675,-7.326167 z m 31.5515622,0 -7.326169,7.326167 7.326685,7.326685 7.326167,-7.326167 z m 15.776297,0 -7.326167,7.326685 7.326683,7.326683 7.32617,-7.326683 z m 15.776816,0 -7.327201,7.327201 7.326682,7.326686 7.327202,-7.327202 z m -47.329411,5.29e-4 -7.326168,7.326169 7.326685,7.326683 7.326683,-7.326167 z m 63.105192,0 -7.327201,7.326685 7.326166,7.326686 2.862358,-2.862371 v -8.929688 z m -70.993083,7.887374 -7.3261674,7.326167 7.3272014,7.327202 7.326168,-7.326167 z m 63.105192,0 -7.327201,7.327202 7.326683,7.326167 7.326685,-7.326683 z m -47.329412,5.3e-4 -7.326166,7.326169 7.326685,7.326683 7.326167,-7.326167 z m 15.776816,0 -7.326167,7.326169 7.326683,7.326683 7.326169,-7.326167 z m 15.776297,0 -7.326683,7.326169 7.326683,7.326683 7.326685,-7.326683 z M 5.2916666,61.27533 v 4.727358 l 2.36368,-2.363679 z m 84.6666654,0.06305 -2.300634,2.300634 2.300634,2.300634 z M 8.2160358,64.199698 5.2916666,67.124069 v 8.803594 l 2.9254029,2.925403 7.3261675,-7.326167 z m 15.7762982,0 -7.326685,7.326167 7.327202,7.327201 7.326166,-7.326683 z m 47.328894,0 -7.327201,7.326685 7.326682,7.326683 7.327202,-7.327201 z m 15.775781,0 -7.327201,7.327201 7.326166,7.326167 2.862358,-2.862358 v -8.929687 z m -31.552597,5.29e-4 -7.326167,7.326685 7.326683,7.326686 7.32617,-7.326686 z m -15.776297,5.29e-4 -7.326169,7.326167 7.326685,7.326685 7.326167,-7.326169 z m -23.664189,7.886856 -7.3261674,7.326167 7.3266844,7.327201 7.326685,-7.326167 z m 63.105192,0 -7.327201,7.326686 7.326683,7.326682 7.327201,-7.327201 z m -47.328377,5.29e-4 -7.326685,7.32617 7.326685,7.326683 7.326685,-7.326167 z m 31.551562,0 -7.326167,7.326686 7.326167,7.326685 7.326685,-7.326685 z m -15.775781,5.29e-4 -7.326686,7.326167 7.326686,7.326686 7.326685,-7.32617 z M 5.2916666,77.052143 v 4.726326 l 2.3631633,-2.363163 z m 84.6666654,0.06304 -2.300118,2.300119 2.300118,2.300118 z M 8.215519,79.975995 5.2916666,82.89985 v 8.805145 L 8.2160358,94.629366 15.54272,87.30268 Z m 15.776815,0 -7.326168,7.326685 7.326685,7.326686 7.326685,-7.32617 z m 15.776297,0 -7.326167,7.326685 7.326683,7.326686 7.32617,-7.326686 z m 15.775781,0 -7.326685,7.326685 7.326685,7.326686 7.326686,-7.326686 z m 31.553629,0 -7.327202,7.327201 7.32617,7.32617 2.861323,-2.861326 v -8.931754 z m -15.777332,5.29e-4 -7.326682,7.326167 7.326166,7.326685 7.326686,-7.326685 z m -39.440484,7.887372 -7.326169,7.326685 7.326685,7.326689 7.326685,-7.326173 z m 15.776297,0 -7.326686,7.326685 7.326686,7.326689 7.326685,-7.326689 z m -31.552079,5.29e-4 -7.3266844,7.326683 7.3266844,7.326682 7.326685,-7.326682 z m 47.328376,0 -7.326683,7.326683 7.326167,7.326172 7.326685,-7.326688 z m 15.776299,5.29e-4 -7.326685,7.326167 7.326167,7.326689 7.326685,-7.326689 z M 5.2916666,92.827408 v 4.726326 l 2.3631633,-2.363163 z m 84.6666654,0.06304 -2.300118,2.300118 2.300118,2.300118 z m -50.190217,2.861323 -7.326169,7.326689 7.326685,7.32669 7.326167,-7.32617 z m 15.776813,0 -7.326683,7.327209 7.326167,7.32617 7.327202,-7.32669 z m -47.3283752,5.18e-4 -2.9248862,2.924884 v 8.803087 l 2.9254029,2.9254 7.3261675,-7.32668 z m 15.7757812,0 -7.326685,7.326691 7.326685,7.32667 7.326683,-7.32667 z m 47.328375,0 -7.326682,7.326691 7.326682,7.32667 7.326686,-7.32667 z m 15.775781,0 -7.326682,7.326691 7.326682,7.32667 2.861842,-2.86184 v -8.929681 z m -70.992047,7.887891 -7.3266844,7.32617 7.3272014,7.3272 7.326168,-7.32668 z m 15.775782,0 -7.326685,7.32617 7.326685,7.3272 7.326683,-7.32668 z m 15.776297,0 -7.326167,7.32669 7.326167,7.32617 7.326685,-7.32617 z m 15.776815,0 -7.327201,7.32669 7.326683,7.32667 7.327201,-7.3272 z m 15.775263,0 -7.326683,7.32669 7.326683,7.32667 7.326685,-7.32667 z m -73.9169334,4.963 v 4.72737 l 2.36368,-2.36368 z m 84.6666654,0.063 -2.300634,2.30064 2.300634,2.30062 z m -18.637104,2.86132 -7.327201,7.32721 7.326682,7.32667 7.327202,-7.3272 z m -63.1046752,5.2e-4 -2.9248862,2.92488 v 8.80257 l 2.9254029,2.9254 7.3261675,-7.32617 z m 15.7752642,0 -7.326168,7.32616 7.327202,7.32669 7.326166,-7.32617 z m 15.776298,0 -7.326169,7.32668 7.326685,7.32668 7.326686,-7.32616 z m 15.776813,0 -7.326683,7.32668 7.326683,7.32668 7.326686,-7.32668 z m 31.551562,0 -7.326682,7.32668 7.326682,7.32668 2.861842,-2.86184 v -8.92969 z m -70.992564,7.88737 -7.3261674,7.32617 7.3272014,7.3272 7.326168,-7.32617 z m 63.105192,0 -7.327201,7.3272 7.326683,7.32668 7.327201,-7.32719 z m -15.776815,5.3e-4 -7.326686,7.32668 7.326686,7.32668 7.326685,-7.32668 z m -31.552078,5.3e-4 -7.326169,7.32616 7.327201,7.32669 7.325651,-7.32617 z m 15.776297,0 -7.326686,7.32668 7.326686,7.32668 7.326685,-7.32668 z M 5.2916666,124.38 v 4.72633 l 2.3631633,-2.36316 z m 84.6666654,0.0631 -2.300118,2.30012 2.300118,2.30012 z m -65.965998,2.86081 -7.325651,7.32668 2.952791,2.95279 h 8.747785 l 2.952277,-2.95227 z m 31.552078,0 -7.326685,7.3272 2.952276,2.95227 h 8.748303 l 2.952792,-2.95279 z m 31.553113,0 -7.327201,7.3272 2.952273,2.95227 h 3.686599 c 1.966219,0 3.549136,-1.58292 3.549136,-3.54914 v -3.86953 z m -78.882006,5.1e-4 -2.9238524,2.92385 v 3.80597 c 0,1.96622 1.5829182,3.54914 3.5491372,3.54914 h 3.7496422 l 2.952274,-2.95227 z m 31.553112,0 -7.326167,7.32617 2.95279,2.95279 h 8.747786 l 2.952277,-2.95227 z m 31.552078,0 -7.327201,7.32669 2.952276,2.95227 h 8.748303 l 2.952792,-2.95279 z m -7.88789,7.88738 -2.391585,2.39158 h 4.783172 z m -31.552078,5.3e-4 -2.391069,2.39105 h 4.782137 z m 15.775781,0 -2.391069,2.39105 h 4.782138 z m -31.552596,5e-4 -2.390551,2.39055 h 4.781103 z m 63.105192,0 -2.390552,2.39055 h 4.781103 z" />
    <path
       id="rect5652-4"
       style="display:inline;fill:#0000ff;stroke-width:1;stroke-linecap:round;paint-order:stroke fill markers"
       d="m 112.02829,5.2916666 c -1.96622,0 -3.54913,1.5829182 -3.54913,3.5491372 v 3.9832192 l 2.9254,2.925403 7.32617,-7.3261675 -3.13159,-3.1315919 z m 4.69429,0 2.56987,2.569869 2.56987,-2.569869 z m 6.26112,0 -3.13056,3.1305582 7.3272,7.3272012 7.32565,-7.3261675 -3.13159,-3.1315919 z m 9.51518,0 2.56935,2.5693523 2.56935,-2.5693523 z m 6.26112,0 -3.13056,3.1305582 7.32668,7.3266842 7.32617,-7.3266842 -3.13056,-3.1305582 z m 9.51518,0 2.56935,2.5693523 2.56935,-2.5693523 z m 6.26111,0 -3.13055,3.1305582 7.32668,7.3266842 7.32617,-7.3266842 -3.13056,-3.1305582 z m 9.51415,0 2.56935,2.5693523 2.56936,-2.5693523 z m 6.26215,0 -3.13107,3.1310749 7.32668,7.3266845 7.32668,-7.3272012 -3.13055,-3.1305582 z m 9.51363,0 2.56987,2.569869 2.56987,-2.569869 z m 6.26215,0 -3.13107,3.1310749 7.32668,7.3266845 2.86184,-2.861841 V 8.8408038 c 0,-1.966219 -1.58292,-3.5491372 -3.54913,-3.5491372 z m -66.79695,3.692281 -7.32617,7.3261674 7.3272,7.327202 7.32617,-7.326685 z m 15.77578,0 -7.32617,7.3261674 7.32668,7.326685 7.32669,-7.325651 z m 15.77681,0 -7.32668,7.3266844 7.32668,7.326685 7.32669,-7.326685 z m 15.77682,0 -7.3272,7.3266844 7.32668,7.326685 7.3272,-7.327202 z m 15.77578,0 -7.3272,7.3266844 7.32668,7.326685 7.32669,-7.327202 z m -73.91745,4.9630044 v 4.72736 l 2.36368,-2.36368 z m 84.66666,0.06305 -2.30063,2.300635 2.30063,2.300635 z m -18.6371,2.861324 -7.3272,7.327202 7.32668,7.326684 7.3272,-7.327201 z m -63.10468,5.17e-4 -2.92488,2.924886 v 8.80308 l 2.9254,2.925403 7.32617,-7.326684 z m 15.77527,0 -7.32617,7.326168 7.32668,7.326685 7.32669,-7.326168 z m 63.10519,0 -7.3272,7.326685 7.32668,7.326684 2.86184,-2.861842 v -8.930203 z m -47.32889,5.29e-4 -7.32617,7.326168 7.32668,7.326685 7.32617,-7.326168 z m 15.77681,0 -7.32668,7.326168 7.32668,7.326685 7.32668,-7.32618 z m -39.441,7.886845 -7.32617,7.326684 7.32668,7.326686 7.32669,-7.32617 z m 63.10519,0 -7.3272,7.3272 7.32668,7.326685 7.3272,-7.327201 z m -15.77682,5.29e-4 -7.32616,7.326684 7.32668,7.326686 7.32617,-7.326686 z m -31.55208,5.29e-4 -7.32616,7.326166 7.32668,7.326685 7.32669,-7.326167 z m 15.7763,0 -7.32668,7.326684 7.32668,7.326683 7.32669,-7.326683 z m -42.36485,4.963498 v 4.726326 l 2.36316,-2.363163 z m 84.66666,0.06304 -2.30012,2.300119 2.30012,2.300118 z m -81.74281,2.860808 -2.92385,2.923852 v 8.805148 l 2.92488,2.924884 7.32617,-7.326683 z m 78.882,0 -7.3272,7.327201 7.32669,7.326683 2.86132,-2.861323 v -8.931754 z m -63.10519,5.29e-4 -7.32616,7.326167 7.32668,7.326685 7.32669,-7.326167 z m 15.7763,0 -7.32668,7.326167 7.3272,7.327201 7.32617,-7.326683 z m 15.77578,0 -7.32668,7.326685 7.32668,7.326683 7.32669,-7.326683 z m 15.7763,0 -7.32668,7.326685 7.32616,7.326683 7.32669,-7.327201 z m -55.21627,7.88789 -7.32668,7.326686 7.3272,7.327201 7.32617,-7.326685 z m 15.77578,0 -7.32616,7.326167 7.32668,7.327202 7.32617,-7.326683 z m 15.7763,0 -7.32668,7.326167 7.32668,7.326686 7.32669,-7.326167 z m 15.7763,0 -7.3272,7.326686 7.32668,7.326683 7.3272,-7.327202 z m 15.7763,5.3e-4 -7.3272,7.326685 7.32668,7.326686 7.32669,-7.327202 z m -73.91745,4.96298 v 4.726326 l 2.36316,-2.363163 z m 84.66666,0.06304 -2.30012,2.300118 2.30012,2.300118 z m -81.74178,2.861323 -2.92488,2.924886 v 8.803079 l 2.9254,2.925403 7.32617,-7.326167 z m 31.55157,0 -7.32617,7.326167 7.32668,7.326685 7.32617,-7.326167 z m 15.77629,0 -7.32616,7.326685 7.32668,7.326683 7.32617,-7.326683 z m 15.77682,0 -7.3272,7.327201 7.32668,7.326686 7.3272,-7.327202 z m -47.32941,5.29e-4 -7.32617,7.326169 7.32668,7.326683 7.32669,-7.326167 z m 63.10519,0 -7.3272,7.326685 7.32616,7.326686 2.86236,-2.862371 v -8.929688 z m -70.99308,7.887374 -7.32617,7.326167 7.3272,7.327202 7.32617,-7.326167 z m 63.10519,0 -7.3272,7.327202 7.32668,7.326167 7.32669,-7.326683 z m -47.32941,5.3e-4 -7.32617,7.326169 7.32668,7.326683 7.32617,-7.326167 z m 15.77681,0 -7.32617,7.326169 7.32669,7.326683 7.32617,-7.326167 z m 15.7763,0 -7.32668,7.326169 7.32668,7.326683 7.32668,-7.326683 z m -58.14115,4.96298 v 4.727358 l 2.36368,-2.363679 z m 84.66666,0.06305 -2.30063,2.300634 2.30063,2.300634 z m -81.74229,2.861323 -2.92437,2.924371 v 8.803594 l 2.9254,2.925403 7.32617,-7.326167 z m 15.77629,0 -7.32668,7.326167 7.3272,7.327201 7.32617,-7.326683 z m 47.3289,0 -7.3272,7.326685 7.32668,7.326683 7.3272,-7.327201 z m 15.77578,0 -7.3272,7.327201 7.32616,7.326167 2.86236,-2.862358 v -8.929687 z m -31.5526,5.29e-4 -7.32616,7.326685 7.32668,7.326686 7.32617,-7.326686 z m -15.77629,5.29e-4 -7.32617,7.326167 7.32668,7.326685 7.32617,-7.326169 z m -23.66419,7.886856 -7.32617,7.326167 7.32668,7.327201 7.32669,-7.326167 z m 63.10519,0 -7.3272,7.326686 7.32668,7.326682 7.3272,-7.327201 z m -47.32838,5.29e-4 -7.32668,7.32617 7.32668,7.326683 7.32669,-7.326167 z m 31.55156,0 -7.32616,7.326686 7.32616,7.326685 7.32669,-7.326685 z m -15.77578,5.29e-4 -7.32668,7.326167 7.32668,7.326686 7.32669,-7.32617 z m -42.36485,4.963473 v 4.726326 l 2.36316,-2.363163 z m 84.66666,0.06304 -2.30012,2.300119 2.30012,2.300118 z m -81.74281,2.860808 -2.92385,2.923855 v 8.805145 l 2.92437,2.924371 7.32668,-7.326686 z m 15.77681,0 -7.32616,7.326685 7.32668,7.326686 7.32669,-7.32617 z m 15.7763,0 -7.32617,7.326685 7.32669,7.326686 7.32617,-7.326686 z m 15.77578,0 -7.32668,7.326685 7.32668,7.326686 7.32669,-7.326686 z m 31.55363,0 -7.3272,7.327201 7.32617,7.32617 2.86132,-2.861326 v -8.931754 z m -15.77733,5.29e-4 -7.32668,7.326167 7.32616,7.326685 7.32669,-7.326685 z m -39.44049,7.887372 -7.32616,7.326685 7.32668,7.326692 7.32669,-7.326176 z m 15.7763,0 -7.32668,7.326685 7.32668,7.326692 7.32669,-7.326692 z m -31.55208,5.29e-4 -7.32668,7.326683 7.32668,7.326685 7.32669,-7.326685 z m 47.32838,0 -7.32668,7.326683 7.32616,7.326175 7.32669,-7.326691 z m 15.7763,5.29e-4 -7.32669,7.326167 7.32617,7.326692 7.32669,-7.326692 z m -73.91745,4.962454 v 4.726326 l 2.36316,-2.363163 z m 84.66666,0.06304 -2.30012,2.300118 2.30012,2.300118 z m -50.19021,2.861323 -7.32617,7.326682 7.32668,7.32669 7.32617,-7.32617 z m 15.77681,0 -7.32668,7.327202 7.32616,7.32617 7.3272,-7.32669 z m -47.32838,5.18e-4 -2.92488,2.924884 v 8.80308 l 2.9254,2.9254 7.32617,-7.32668 z m 15.77578,0 -7.32668,7.326684 7.32668,7.32668 7.32669,-7.32668 z m 47.32838,0 -7.32668,7.326684 7.32668,7.32668 7.32668,-7.32668 z m 15.77578,0 -7.32668,7.326684 7.32668,7.32668 2.86184,-2.86184 v -8.929684 z m -70.99205,7.887884 -7.32668,7.32617 7.3272,7.3272 7.32617,-7.32668 z m 15.77578,0 -7.32668,7.32617 7.32668,7.3272 7.32669,-7.32668 z m 15.7763,0 -7.32617,7.32669 7.32617,7.32617 7.32669,-7.32617 z m 15.77682,0 -7.3272,7.32669 7.32668,7.32668 7.3272,-7.3272 z m 15.77526,0 -7.32668,7.32669 7.32668,7.32668 7.32669,-7.32668 z m -73.91693,4.96301 v 4.72736 l 2.36368,-2.36368 z m 84.66666,0.063 -2.30063,2.30064 2.30063,2.30063 z m -18.6371,2.86133 -7.3272,7.3272 7.32668,7.32668 7.3272,-7.3272 z m -63.10468,5.2e-4 -2.92488,2.92488 v 8.80257 l 2.9254,2.9254 7.32617,-7.32617 z m 15.77527,0 -7.32617,7.32616 7.3272,7.32669 7.32617,-7.32617 z m 15.7763,0 -7.32617,7.32668 7.32668,7.32668 7.32669,-7.32616 z m 15.77681,0 -7.32668,7.32668 7.32668,7.32668 7.32668,-7.32668 z m 31.55156,0 -7.32668,7.32668 7.32668,7.32668 2.86184,-2.86184 v -8.92969 z m -70.99256,7.88737 -7.32617,7.32617 7.3272,7.3272 7.32617,-7.32617 z m 63.10519,0 -7.3272,7.3272 7.32668,7.32668 7.3272,-7.3272 z m -15.77682,5.3e-4 -7.32668,7.32668 7.32668,7.32668 7.32669,-7.32668 z m -31.55208,5.3e-4 -7.32616,7.32616 7.3272,7.32669 7.32565,-7.32617 z m 15.7763,0 -7.32668,7.32668 7.32668,7.32668 7.32669,-7.32668 z M 108.47916,124.38 v 4.72633 l 2.36316,-2.36316 z m 84.66666,0.0631 -2.30012,2.30012 2.30012,2.30012 z m -65.966,2.86081 -7.32565,7.32668 2.95279,2.95279 h 8.74779 l 2.95228,-2.95227 z m 31.55208,0 -7.32668,7.3272 2.95227,2.95227 h 8.74831 l 2.95279,-2.95279 z m 31.55311,0 -7.3272,7.3272 2.95228,2.95227 h 3.6866 c 1.96621,0 3.54913,-1.58292 3.54913,-3.54914 v -3.86953 z m -78.882,5.1e-4 -2.92385,2.92385 v 3.80597 c 0,1.96622 1.58291,3.54914 3.54913,3.54914 h 3.74965 l 2.95227,-2.95227 z m 31.55311,0 -7.32617,7.32617 2.95279,2.95279 h 8.74779 l 2.95228,-2.95227 z m 31.55208,0 -7.3272,7.32669 2.95227,2.95227 h 8.74831 l 2.95279,-2.95279 z m -7.88789,7.88738 -2.39159,2.39158 h 4.78318 z m -31.55208,5.3e-4 -2.39107,2.39105 h 4.78214 z m 15.77578,0 -2.39107,2.39105 h 4.78214 z m -31.55259,5e-4 -2.39056,2.39055 h 4.78111 z m 63.10519,0 -2.39055,2.39055 h 4.7811 z" />
    <path
       id="rect5652-9"
       style="display:inline;fill:#ff6600;stroke-width:1;stroke-linecap:round;paint-order:stroke fill markers"
       d="m 215.21578,5.2916666 c -1.96622,0 -3.54913,1.5829182 -3.54913,3.5491372 v 3.9832192 l 2.9254,2.925403 7.32617,-7.3261675 -3.13159,-3.1315919 z m 4.69429,0 2.56987,2.569869 2.56987,-2.569869 z m 6.26112,0 -3.13056,3.1305582 7.3272,7.3272012 7.32565,-7.3261675 -3.13159,-3.1315919 z m 9.51518,0 2.56935,2.5693523 2.56935,-2.5693523 z m 6.26112,0 -3.13056,3.1305582 7.32668,7.3266842 7.32617,-7.3266842 -3.13056,-3.1305582 z m 9.51518,0 2.56935,2.5693523 2.56935,-2.5693523 z m 6.26111,0 -3.13055,3.1305582 7.32668,7.3266842 7.32617,-7.3266842 -3.13056,-3.1305582 z m 9.51415,0 2.56935,2.5693523 2.56936,-2.5693523 z m 6.26215,0 -3.13107,3.1310749 7.32668,7.3266845 7.32668,-7.3272012 -3.13055,-3.1305582 z m 9.51363,0 2.56987,2.569869 2.56987,-2.569869 z m 6.26215,0 -3.13107,3.1310749 7.32668,7.3266845 2.86184,-2.861841 V 8.8408038 c 0,-1.966219 -1.58292,-3.5491372 -3.54913,-3.5491372 z m -66.79695,3.692281 -7.32617,7.3261674 7.3272,7.327202 7.32617,-7.326685 z m 15.77578,0 -7.32617,7.3261674 7.32668,7.326685 7.32669,-7.325651 z m 15.77681,0 -7.32668,7.3266844 7.32668,7.326685 7.32669,-7.326685 z m 15.77682,0 -7.3272,7.3266844 7.32668,7.326685 7.3272,-7.327202 z m 15.77578,0 -7.3272,7.3266844 7.32668,7.326685 7.32669,-7.327202 z m -73.91745,4.9630044 v 4.72736 l 2.36368,-2.36368 z m 84.66666,0.06305 -2.30063,2.300635 2.30063,2.300635 z m -18.6371,2.861324 -7.3272,7.327202 7.32668,7.326684 7.3272,-7.327201 z m -63.10468,5.17e-4 -2.92488,2.924886 v 8.80308 l 2.9254,2.925403 7.32617,-7.326684 z m 15.77527,0 -7.32617,7.326168 7.32668,7.326685 7.32669,-7.326168 z m 63.10519,0 -7.3272,7.326685 7.32668,7.326684 2.86184,-2.861842 v -8.930203 z m -47.32889,5.29e-4 -7.32617,7.326168 7.32668,7.326685 7.32617,-7.326168 z m 15.77681,0 -7.32668,7.326168 7.32668,7.326685 7.32668,-7.32618 z m -39.441,7.886845 -7.32617,7.326684 7.32668,7.326686 7.32669,-7.32617 z m 63.10519,0 -7.3272,7.3272 7.32668,7.326685 7.3272,-7.327201 z m -15.77682,5.29e-4 -7.32616,7.326684 7.32668,7.326686 7.32617,-7.326686 z m -31.55208,5.29e-4 -7.32616,7.326166 7.32668,7.326685 7.32669,-7.326167 z m 15.7763,0 -7.32668,7.326684 7.32668,7.326683 7.32669,-7.326683 z m -42.36485,4.963498 v 4.726326 l 2.36316,-2.363163 z m 84.66666,0.06304 -2.30012,2.300119 2.30012,2.300118 z m -81.74281,2.860808 -2.92385,2.923852 v 8.805148 l 2.92488,2.924884 7.32617,-7.326683 z m 78.882,0 -7.3272,7.327201 7.32669,7.326683 2.86132,-2.861323 v -8.931754 z m -63.10519,5.29e-4 -7.32616,7.326167 7.32668,7.326685 7.32669,-7.326167 z m 15.7763,0 -7.32668,7.326167 7.3272,7.327201 7.32617,-7.326683 z m 15.77578,0 -7.32668,7.326685 7.32668,7.326683 7.32669,-7.326683 z m 15.7763,0 -7.32668,7.326685 7.32616,7.326683 7.32669,-7.327201 z m -55.21627,7.88789 -7.32668,7.326686 7.3272,7.327201 7.32617,-7.326685 z m 15.77578,0 -7.32616,7.326167 7.32668,7.327202 7.32617,-7.326683 z m 15.7763,0 -7.32668,7.326167 7.32668,7.326686 7.32669,-7.326167 z m 15.7763,0 -7.3272,7.326686 7.32668,7.326683 7.3272,-7.327202 z m 15.7763,5.3e-4 -7.3272,7.326685 7.32668,7.326686 7.32669,-7.327202 z m -73.91745,4.96298 v 4.726326 l 2.36316,-2.363163 z m 84.66666,0.06304 -2.30012,2.300118 2.30012,2.300118 z m -81.74178,2.861323 -2.92488,2.924886 v 8.803079 l 2.9254,2.925403 7.32617,-7.326167 z m 31.55157,0 -7.32617,7.326167 7.32668,7.326685 7.32617,-7.326167 z m 15.77629,0 -7.32616,7.326685 7.32668,7.326683 7.32617,-7.326683 z m 15.77682,0 -7.3272,7.327201 7.32668,7.326686 7.3272,-7.327202 z m -47.32941,5.29e-4 -7.32617,7.326169 7.32668,7.326683 7.32669,-7.326167 z m 63.10519,0 -7.3272,7.326685 7.32616,7.326686 2.86236,-2.862371 v -8.929688 z m -70.99308,7.887374 -7.32617,7.326167 7.3272,7.327202 7.32617,-7.326167 z m 63.10519,0 -7.3272,7.327202 7.32668,7.326167 7.32669,-7.326683 z m -47.32941,5.3e-4 -7.32617,7.326169 7.32668,7.326683 7.32617,-7.326167 z m 15.77681,0 -7.32617,7.326169 7.32669,7.326683 7.32617,-7.326167 z m 15.7763,0 -7.32668,7.326169 7.32668,7.326683 7.32668,-7.326683 z m -58.14115,4.96298 v 4.727358 l 2.36368,-2.363679 z m 84.66666,0.06305 -2.30063,2.300634 2.30063,2.300634 z m -81.74229,2.861323 -2.92437,2.924371 v 8.803594 l 2.9254,2.925403 7.32617,-7.326167 z m 15.77629,0 -7.32668,7.326167 7.3272,7.327201 7.32617,-7.326683 z m 47.3289,0 -7.3272,7.326685 7.32668,7.326683 7.3272,-7.327201 z m 15.77578,0 -7.3272,7.327201 7.32616,7.326167 2.86236,-2.862358 v -8.929687 z m -31.5526,5.29e-4 -7.32616,7.326685 7.32668,7.326686 7.32617,-7.326686 z m -15.77629,5.29e-4 -7.32617,7.326167 7.32668,7.326685 7.32617,-7.326169 z m -23.66419,7.886856 -7.32617,7.326167 7.32668,7.327201 7.32669,-7.326167 z m 63.10519,0 -7.3272,7.326686 7.32668,7.326682 7.3272,-7.327201 z m -47.32838,5.29e-4 -7.32668,7.32617 7.32668,7.326683 7.32669,-7.326167 z m 31.55156,0 -7.32616,7.326686 7.32616,7.326685 7.32669,-7.326685 z m -15.77578,5.29e-4 -7.32668,7.326167 7.32668,7.326686 7.32669,-7.32617 z m -42.36485,4.963473 v 4.726326 l 2.36316,-2.363163 z m 84.66666,0.06304 -2.30012,2.300119 2.30012,2.300118 z m -81.74281,2.860808 -2.92385,2.923855 v 8.805145 l 2.92437,2.924371 7.32668,-7.326686 z m 15.77681,0 -7.32616,7.326685 7.32668,7.326686 7.32669,-7.32617 z m 15.7763,0 -7.32617,7.326685 7.32669,7.326686 7.32617,-7.326686 z m 15.77578,0 -7.32668,7.326685 7.32668,7.326686 7.32669,-7.326686 z m 31.55363,0 -7.3272,7.327201 7.32617,7.32617 2.86132,-2.861326 v -8.931754 z m -15.77733,5.29e-4 -7.32668,7.326167 7.32616,7.326685 7.32669,-7.326685 z m -39.44049,7.887372 -7.32616,7.326685 7.32668,7.326692 7.32669,-7.326176 z m 15.7763,0 -7.32668,7.326685 7.32668,7.326692 7.32669,-7.326692 z m -31.55208,5.29e-4 -7.32668,7.326683 7.32668,7.326685 7.32669,-7.326685 z m 47.32838,0 -7.32668,7.326683 7.32616,7.326175 7.32669,-7.326691 z m 15.7763,5.29e-4 -7.32669,7.326167 7.32617,7.326692 7.32669,-7.326692 z m -73.91745,4.962454 v 4.726326 l 2.36316,-2.363163 z m 84.66666,0.06304 -2.30012,2.300118 2.30012,2.300118 z m -50.19021,2.861323 -7.32617,7.326682 7.32668,7.32669 7.32617,-7.32617 z m 15.77681,0 -7.32668,7.327202 7.32616,7.32617 7.3272,-7.32669 z m -47.32838,5.18e-4 -2.92488,2.924884 v 8.80308 l 2.9254,2.9254 7.32617,-7.32668 z m 15.77578,0 -7.32668,7.326684 7.32668,7.32668 7.32669,-7.32668 z m 47.32838,0 -7.32668,7.326684 7.32668,7.32668 7.32668,-7.32668 z m 15.77578,0 -7.32668,7.326684 7.32668,7.32668 2.86184,-2.86184 v -8.929684 z m -70.99205,7.887884 -7.32668,7.32617 7.3272,7.3272 7.32617,-7.32668 z m 15.77578,0 -7.32668,7.32617 7.32668,7.3272 7.32669,-7.32668 z m 15.7763,0 -7.32617,7.32669 7.32617,7.32617 7.32669,-7.32617 z m 15.77682,0 -7.3272,7.32669 7.32668,7.32668 7.3272,-7.3272 z m 15.77526,0 -7.32668,7.32669 7.32668,7.32668 7.32669,-7.32668 z m -73.91693,4.96301 v 4.72736 l 2.36368,-2.36368 z m 84.66666,0.063 -2.30063,2.30064 2.30063,2.30063 z m -18.6371,2.86133 -7.3272,7.3272 7.32668,7.32668 7.3272,-7.3272 z m -63.10468,5.2e-4 -2.92488,2.92488 v 8.80257 l 2.9254,2.9254 7.32617,-7.32617 z m 15.77527,0 -7.32617,7.32616 7.3272,7.32669 7.32617,-7.32617 z m 15.7763,0 -7.32617,7.32668 7.32668,7.32668 7.32669,-7.32616 z m 15.77681,0 -7.32668,7.32668 7.32668,7.32668 7.32668,-7.32668 z m 31.55156,0 -7.32668,7.32668 7.32668,7.32668 2.86184,-2.86184 v -8.92969 z m -70.99256,7.88737 -7.32617,7.32617 7.3272,7.3272 7.32617,-7.32617 z m 63.10519,0 -7.3272,7.3272 7.32668,7.32668 7.3272,-7.3272 z m -15.77682,5.3e-4 -7.32668,7.32668 7.32668,7.32668 7.32669,-7.32668 z m -31.55208,5.3e-4 -7.32616,7.32616 7.3272,7.32669 7.32565,-7.32617 z m 15.7763,0 -7.32668,7.32668 7.32668,7.32668 7.32669,-7.32668 z M 211.66665,124.38 v 4.72633 l 2.36316,-2.36316 z m 84.66666,0.0631 -2.30012,2.30012 2.30012,2.30012 z m -65.966,2.86081 -7.32565,7.32668 2.95279,2.95279 h 8.74779 l 2.95228,-2.95227 z m 31.55208,0 -7.32668,7.3272 2.95227,2.95227 h 8.74831 l 2.95279,-2.95279 z m 31.55311,0 -7.3272,7.3272 2.95228,2.95227 h 3.6866 c 1.96621,0 3.54913,-1.58292 3.54913,-3.54914 v -3.86953 z m -78.882,5.1e-4 -2.92385,2.92385 v 3.80597 c 0,1.96622 1.58291,3.54914 3.54913,3.54914 h 3.74965 l 2.95227,-2.95227 z m 31.55311,0 -7.32617,7.32617 2.95279,2.95279 h 8.74779 l 2.95228,-2.95227 z m 31.55208,0 -7.3272,7.32669 2.95227,2.95227 h 8.74831 l 2.95279,-2.95279 z m -7.88789,7.88738 -2.39159,2.39158 h 4.78318 z m -31.55208,5.3e-4 -2.39107,2.39105 h 4.78214 z m 15.77578,0 -2.39107,2.39105 h 4.78214 z m -31.55259,5e-4 -2.39056,2.39055 h 4.78111 z m 63.10519,0 -2.39055,2.39055 h 4.7811 z" />
    <path
       id="rect5652-6"
       style="display:inline;fill:#ffff00;stroke-width:1;stroke-linecap:round;paint-order:stroke fill markers"
       d="m 318.40327,5.2916666 c -1.96622,0 -3.54913,1.5829182 -3.54913,3.5491372 v 3.9832192 l 2.9254,2.925403 7.32617,-7.3261675 -3.13159,-3.1315919 z m 4.69429,0 2.56987,2.569869 2.56987,-2.569869 z m 6.26112,0 -3.13056,3.1305582 7.3272,7.3272012 7.32565,-7.3261675 -3.13159,-3.1315919 z m 9.51518,0 2.56935,2.5693523 2.56935,-2.5693523 z m 6.26112,0 -3.13056,3.1305582 7.32668,7.3266842 7.32617,-7.3266842 -3.13056,-3.1305582 z m 9.51518,0 2.56935,2.5693523 2.56935,-2.5693523 z m 6.26111,0 -3.13055,3.1305582 7.32668,7.3266842 7.32617,-7.3266842 -3.13056,-3.1305582 z m 9.51415,0 2.56935,2.5693523 2.56936,-2.5693523 z m 6.26215,0 -3.13107,3.1310749 7.32668,7.3266845 7.32668,-7.3272012 -3.13055,-3.1305582 z m 9.51363,0 2.56987,2.569869 2.56987,-2.569869 z m 6.26215,0 -3.13107,3.1310749 7.32668,7.3266845 2.86184,-2.861841 V 8.8408038 c 0,-1.966219 -1.58292,-3.5491372 -3.54913,-3.5491372 z m -66.79695,3.692281 -7.32617,7.3261674 7.3272,7.327202 7.32617,-7.326685 z m 15.77578,0 -7.32617,7.3261674 7.32668,7.326685 7.32669,-7.325651 z m 15.77681,0 -7.32668,7.3266844 7.32668,7.326685 7.32669,-7.326685 z m 15.77682,0 -7.3272,7.3266844 7.32668,7.326685 7.3272,-7.327202 z m 15.77578,0 -7.3272,7.3266844 7.32668,7.326685 7.32669,-7.327202 z m -73.91745,4.9630044 v 4.72736 l 2.36368,-2.36368 z m 84.66666,0.06305 -2.30063,2.300635 2.30063,2.300635 z m -18.6371,2.861324 -7.3272,7.327202 7.32668,7.326684 7.3272,-7.327201 z m -63.10468,5.17e-4 -2.92488,2.924886 v 8.80308 l 2.9254,2.925403 7.32617,-7.326684 z m 15.77527,0 -7.32617,7.326168 7.32668,7.326685 7.32669,-7.326168 z m 63.10519,0 -7.3272,7.326685 7.32668,7.326684 2.86184,-2.861842 v -8.930203 z m -47.32889,5.29e-4 -7.32617,7.326168 7.32668,7.326685 7.32617,-7.326168 z m 15.77681,0 -7.32668,7.326168 7.32668,7.326685 7.32668,-7.32618 z m -39.441,7.886845 -7.32617,7.326684 7.32668,7.326686 7.32669,-7.32617 z m 63.10519,0 -7.3272,7.3272 7.32668,7.326685 7.3272,-7.327201 z m -15.77682,5.29e-4 -7.32616,7.326684 7.32668,7.326686 7.32617,-7.326686 z m -31.55208,5.29e-4 -7.32616,7.326166 7.32668,7.326685 7.32669,-7.326167 z m 15.7763,0 -7.32668,7.326684 7.32668,7.326683 7.32669,-7.326683 z m -42.36485,4.963498 v 4.726326 l 2.36316,-2.363163 z m 84.66666,0.06304 -2.30012,2.300119 2.30012,2.300118 z m -81.74281,2.860808 -2.92385,2.923852 v 8.805148 l 2.92488,2.924884 7.32617,-7.326683 z m 78.882,0 -7.3272,7.327201 7.32669,7.326683 2.86132,-2.861323 v -8.931754 z m -63.10519,5.29e-4 -7.32616,7.326167 7.32668,7.326685 7.32669,-7.326167 z m 15.7763,0 -7.32668,7.326167 7.3272,7.327201 7.32617,-7.326683 z m 15.77578,0 -7.32668,7.326685 7.32668,7.326683 7.32669,-7.326683 z m 15.7763,0 -7.32668,7.326685 7.32616,7.326683 7.32669,-7.327201 z m -55.21627,7.88789 -7.32668,7.326686 7.3272,7.327201 7.32617,-7.326685 z m 15.77578,0 -7.32616,7.326167 7.32668,7.327202 7.32617,-7.326683 z m 15.7763,0 -7.32668,7.326167 7.32668,7.326686 7.32669,-7.326167 z m 15.7763,0 -7.3272,7.326686 7.32668,7.326683 7.3272,-7.327202 z m 15.7763,5.3e-4 -7.3272,7.326685 7.32668,7.326686 7.32669,-7.327202 z m -73.91745,4.96298 v 4.726326 l 2.36316,-2.363163 z m 84.66666,0.06304 -2.30012,2.300118 2.30012,2.300118 z m -81.74178,2.861323 -2.92488,2.924886 v 8.803079 l 2.9254,2.925403 7.32617,-7.326167 z m 31.55157,0 -7.32617,7.326167 7.32668,7.326685 7.32617,-7.326167 z m 15.77629,0 -7.32616,7.326685 7.32668,7.326683 7.32617,-7.326683 z m 15.77682,0 -7.3272,7.327201 7.32668,7.326686 7.3272,-7.327202 z m -47.32941,5.29e-4 -7.32617,7.326169 7.32668,7.326683 7.32669,-7.326167 z m 63.10519,0 -7.3272,7.326685 7.32616,7.326686 2.86236,-2.862371 v -8.929688 z m -70.99308,7.887374 -7.32617,7.326167 7.3272,7.327202 7.32617,-7.326167 z m 63.10519,0 -7.3272,7.327202 7.32668,7.326167 7.32669,-7.326683 z m -47.32941,5.3e-4 -7.32617,7.326169 7.32668,7.326683 7.32617,-7.326167 z m 15.77681,0 -7.32617,7.326169 7.32669,7.326683 7.32617,-7.326167 z m 15.7763,0 -7.32668,7.326169 7.32668,7.326683 7.32668,-7.326683 z m -58.14115,4.96298 v 4.727358 l 2.36368,-2.363679 z m 84.66666,0.06305 -2.30063,2.300634 2.30063,2.300634 z m -81.74229,2.861323 -2.92437,2.924371 v 8.803594 l 2.9254,2.925403 7.32617,-7.326167 z m 15.77629,0 -7.32668,7.326167 7.3272,7.327201 7.32617,-7.326683 z m 47.3289,0 -7.3272,7.326685 7.32668,7.326683 7.3272,-7.327201 z m 15.77578,0 -7.3272,7.327201 7.32616,7.326167 2.86236,-2.862358 v -8.929687 z m -31.5526,5.29e-4 -7.32616,7.326685 7.32668,7.326686 7.32617,-7.326686 z m -15.77629,5.29e-4 -7.32617,7.326167 7.32668,7.326685 7.32617,-7.326169 z m -23.66419,7.886856 -7.32617,7.326167 7.32668,7.327201 7.32669,-7.326167 z m 63.10519,0 -7.3272,7.326686 7.32668,7.326682 7.3272,-7.327201 z m -47.32838,5.29e-4 -7.32668,7.32617 7.32668,7.326683 7.32669,-7.326167 z m 31.55156,0 -7.32616,7.326686 7.32616,7.326685 7.32669,-7.326685 z m -15.77578,5.29e-4 -7.32668,7.326167 7.32668,7.326686 7.32669,-7.32617 z m -42.36485,4.963473 v 4.726326 l 2.36316,-2.363163 z m 84.66666,0.06304 -2.30012,2.300119 2.30012,2.300118 z m -81.74281,2.860808 -2.92385,2.923855 v 8.805145 l 2.92437,2.924371 7.32668,-7.326686 z m 15.77681,0 -7.32616,7.326685 7.32668,7.326686 7.32669,-7.32617 z m 15.7763,0 -7.32617,7.326685 7.32669,7.326686 7.32617,-7.326686 z m 15.77578,0 -7.32668,7.326685 7.32668,7.326686 7.32669,-7.326686 z m 31.55363,0 -7.3272,7.327201 7.32617,7.32617 2.86132,-2.861326 v -8.931754 z m -15.77733,5.29e-4 -7.32668,7.326167 7.32616,7.326685 7.32669,-7.326685 z m -39.44049,7.887372 -7.32616,7.326685 7.32668,7.326692 7.32669,-7.326176 z m 15.7763,0 -7.32668,7.326685 7.32668,7.326692 7.32669,-7.326692 z m -31.55208,5.29e-4 -7.32668,7.326683 7.32668,7.326685 7.32669,-7.326685 z m 47.32838,0 -7.32668,7.326683 7.32616,7.326175 7.32669,-7.326691 z m 15.7763,5.29e-4 -7.32669,7.326167 7.32617,7.326692 7.32669,-7.326692 z m -73.91745,4.962454 v 4.726326 l 2.36316,-2.363163 z m 84.66666,0.06304 -2.30012,2.300118 2.30012,2.300118 z m -50.19021,2.861323 -7.32617,7.326682 7.32668,7.32669 7.32617,-7.32617 z m 15.77681,0 -7.32668,7.327202 7.32616,7.32617 7.3272,-7.32669 z m -47.32838,5.18e-4 -2.92488,2.924884 v 8.80308 l 2.9254,2.9254 7.32617,-7.32668 z m 15.77578,0 -7.32668,7.326684 7.32668,7.32668 7.32669,-7.32668 z m 47.32838,0 -7.32668,7.326684 7.32668,7.32668 7.32668,-7.32668 z m 15.77578,0 -7.32668,7.326684 7.32668,7.32668 2.86184,-2.86184 v -8.929684 z m -70.99205,7.887884 -7.32668,7.32617 7.3272,7.3272 7.32617,-7.32668 z m 15.77578,0 -7.32668,7.32617 7.32668,7.3272 7.32669,-7.32668 z m 15.7763,0 -7.32617,7.32669 7.32617,7.32617 7.32669,-7.32617 z m 15.77682,0 -7.3272,7.32669 7.32668,7.32668 7.3272,-7.3272 z m 15.77526,0 -7.32668,7.32669 7.32668,7.32668 7.32669,-7.32668 z m -73.91693,4.96301 v 4.72736 l 2.36368,-2.36368 z m 84.66666,0.063 -2.30063,2.30064 2.30063,2.30063 z m -18.6371,2.86133 -7.3272,7.3272 7.32668,7.32668 7.3272,-7.3272 z m -63.10468,5.2e-4 -2.92488,2.92488 v 8.80257 l 2.9254,2.9254 7.32617,-7.32617 z m 15.77527,0 -7.32617,7.32616 7.3272,7.32669 7.32617,-7.32617 z m 15.7763,0 -7.32617,7.32668 7.32668,7.32668 7.32669,-7.32616 z m 15.77681,0 -7.32668,7.32668 7.32668,7.32668 7.32668,-7.32668 z m 31.55156,0 -7.32668,7.32668 7.32668,7.32668 2.86184,-2.86184 v -8.92969 z m -70.99256,7.88737 -7.32617,7.32617 7.3272,7.3272 7.32617,-7.32617 z m 63.10519,0 -7.3272,7.3272 7.32668,7.32668 7.3272,-7.3272 z m -15.77682,5.3e-4 -7.32668,7.32668 7.32668,7.32668 7.32669,-7.32668 z m -31.55208,5.3e-4 -7.32616,7.32616 7.3272,7.32669 7.32565,-7.32617 z m 15.7763,0 -7.32668,7.32668 7.32668,7.32668 7.32669,-7.32668 z M 314.85414,124.38 v 4.72633 l 2.36316,-2.36316 z m 84.66666,0.0631 -2.30012,2.30012 2.30012,2.30012 z m -65.966,2.86081 -7.32565,7.32668 2.95279,2.95279 h 8.74779 l 2.95228,-2.95227 z m 31.55208,0 -7.32668,7.3272 2.95227,2.95227 h 8.74831 l 2.95279,-2.95279 z m 31.55311,0 -7.3272,7.3272 2.95228,2.95227 h 3.6866 c 1.96621,0 3.54913,-1.58292 3.54913,-3.54914 v -3.86953 z m -78.882,5.1e-4 -2.92385,2.92385 v 3.80597 c 0,1.96622 1.58291,3.54914 3.54913,3.54914 h 3.74965 l 2.95227,-2.95227 z m 31.55311,0 -7.32617,7.32617 2.95279,2.95279 h 8.74779 l 2.95228,-2.95227 z m 31.55208,0 -7.3272,7.32669 2.95227,2.95227 h 8.74831 l 2.95279,-2.95279 z m -7.88789,7.88738 -2.39159,2.39158 h 4.78318 z m -31.55208,5.3e-4 -2.39107,2.39105 h 4.78214 z m 15.77578,0 -2.39107,2.39105 h 4.78214 z m -31.55259,5e-4 -2.39056,2.39055 h 4.78111 z m 63.10519,0 -2.39055,2.39055 h 4.7811 z" />
    <path
       id="rect5652-8"
       style="display:inline;fill:#ff00ff;stroke-width:1;stroke-linecap:round;paint-order:stroke fill markers"
       d="m 421.59076,5.2916666 c -1.96622,0 -3.54913,1.5829182 -3.54913,3.5491372 v 3.9832192 l 2.9254,2.925403 7.32617,-7.3261675 -3.13159,-3.1315919 z m 4.69429,0 2.56987,2.569869 2.56987,-2.569869 z m 6.26112,0 -3.13056,3.1305582 7.3272,7.3272012 7.32565,-7.3261675 -3.13159,-3.1315919 z m 9.51518,0 2.56935,2.5693523 2.56935,-2.5693523 z m 6.26112,0 -3.13056,3.1305582 7.32668,7.3266842 7.32617,-7.3266842 -3.13056,-3.1305582 z m 9.51518,0 2.56935,2.5693523 2.56935,-2.5693523 z m 6.26111,0 -3.13055,3.1305582 7.32668,7.3266842 7.32617,-7.3266842 -3.13056,-3.1305582 z m 9.51415,0 2.56935,2.5693523 2.56936,-2.5693523 z m 6.26215,0 -3.13107,3.1310749 7.32668,7.3266845 7.32668,-7.3272012 -3.13055,-3.1305582 z m 9.51363,0 2.56987,2.569869 2.56987,-2.569869 z m 6.26215,0 -3.13107,3.1310749 7.32668,7.3266845 2.86184,-2.861841 V 8.8408038 c 0,-1.966219 -1.58292,-3.5491372 -3.54913,-3.5491372 z m -66.79695,3.692281 -7.32617,7.3261674 7.3272,7.327202 7.32617,-7.326685 z m 15.77578,0 -7.32617,7.3261674 7.32668,7.326685 7.32669,-7.325651 z m 15.77681,0 -7.32668,7.3266844 7.32668,7.326685 7.32669,-7.326685 z m 15.77682,0 -7.3272,7.3266844 7.32668,7.326685 7.3272,-7.327202 z m 15.77578,0 -7.3272,7.3266844 7.32668,7.326685 7.32669,-7.327202 z m -73.91745,4.9630044 v 4.72736 l 2.36368,-2.36368 z m 84.66666,0.06305 -2.30063,2.300635 2.30063,2.300635 z m -18.6371,2.861324 -7.3272,7.327202 7.32668,7.326684 7.3272,-7.327201 z m -63.10468,5.17e-4 -2.92488,2.924886 v 8.80308 l 2.9254,2.925403 7.32617,-7.326684 z m 15.77527,0 -7.32617,7.326168 7.32668,7.326685 7.32669,-7.326168 z m 63.10519,0 -7.3272,7.326685 7.32668,7.326684 2.86184,-2.861842 v -8.930203 z m -47.32889,5.29e-4 -7.32617,7.326168 7.32668,7.326685 7.32617,-7.326168 z m 15.77681,0 -7.32668,7.326168 7.32668,7.326685 7.32668,-7.32618 z m -39.441,7.886845 -7.32617,7.326684 7.32668,7.326686 7.32669,-7.32617 z m 63.10519,0 -7.3272,7.3272 7.32668,7.326685 7.3272,-7.327201 z m -15.77682,5.29e-4 -7.32616,7.326684 7.32668,7.326686 7.32617,-7.326686 z m -31.55208,5.29e-4 -7.32616,7.326166 7.32668,7.326685 7.32669,-7.326167 z m 15.7763,0 -7.32668,7.326684 7.32668,7.326683 7.32669,-7.326683 z m -42.36485,4.963498 v 4.726326 l 2.36316,-2.363163 z m 84.66666,0.06304 -2.30012,2.300119 2.30012,2.300118 z m -81.74281,2.860808 -2.92385,2.923852 v 8.805148 l 2.92488,2.924884 7.32617,-7.326683 z m 78.882,0 -7.3272,7.327201 7.32669,7.326683 2.86132,-2.861323 v -8.931754 z m -63.10519,5.29e-4 -7.32616,7.326167 7.32668,7.326685 7.32669,-7.326167 z m 15.7763,0 -7.32668,7.326167 7.3272,7.327201 7.32617,-7.326683 z m 15.77578,0 -7.32668,7.326685 7.32668,7.326683 7.32669,-7.326683 z m 15.7763,0 -7.32668,7.326685 7.32616,7.326683 7.32669,-7.327201 z m -55.21627,7.88789 -7.32668,7.326686 7.3272,7.327201 7.32617,-7.326685 z m 15.77578,0 -7.32616,7.326167 7.32668,7.327202 7.32617,-7.326683 z m 15.7763,0 -7.32668,7.326167 7.32668,7.326686 7.32669,-7.326167 z m 15.7763,0 -7.3272,7.326686 7.32668,7.326683 7.3272,-7.327202 z m 15.7763,5.3e-4 -7.3272,7.326685 7.32668,7.326686 7.32669,-7.327202 z m -73.91745,4.96298 v 4.726326 l 2.36316,-2.363163 z m 84.66666,0.06304 -2.30012,2.300118 2.30012,2.300118 z m -81.74178,2.861323 -2.92488,2.924886 v 8.803079 l 2.9254,2.925403 7.32617,-7.326167 z m 31.55157,0 -7.32617,7.326167 7.32668,7.326685 7.32617,-7.326167 z m 15.77629,0 -7.32616,7.326685 7.32668,7.326683 7.32617,-7.326683 z m 15.77682,0 -7.3272,7.327201 7.32668,7.326686 7.3272,-7.327202 z m -47.32941,5.29e-4 -7.32617,7.326169 7.32668,7.326683 7.32669,-7.326167 z m 63.10519,0 -7.3272,7.326685 7.32616,7.326686 2.86236,-2.862371 v -8.929688 z m -70.99308,7.887374 -7.32617,7.326167 7.3272,7.327202 7.32617,-7.326167 z m 63.10519,0 -7.3272,7.327202 7.32668,7.326167 7.32669,-7.326683 z m -47.32941,5.3e-4 -7.32617,7.326169 7.32668,7.326683 7.32617,-7.326167 z m 15.77681,0 -7.32617,7.326169 7.32669,7.326683 7.32617,-7.326167 z m 15.7763,0 -7.32668,7.326169 7.32668,7.326683 7.32668,-7.326683 z m -58.14115,4.96298 v 4.727358 l 2.36368,-2.363679 z m 84.66666,0.06305 -2.30063,2.300634 2.30063,2.300634 z m -81.74229,2.861323 -2.92437,2.924371 v 8.803594 l 2.9254,2.925403 7.32617,-7.326167 z m 15.77629,0 -7.32668,7.326167 7.3272,7.327201 7.32617,-7.326683 z m 47.3289,0 -7.3272,7.326685 7.32668,7.326683 7.3272,-7.327201 z m 15.77578,0 -7.3272,7.327201 7.32616,7.326167 2.86236,-2.862358 v -8.929687 z m -31.5526,5.29e-4 -7.32616,7.326685 7.32668,7.326686 7.32617,-7.326686 z m -15.77629,5.29e-4 -7.32617,7.326167 7.32668,7.326685 7.32617,-7.326169 z m -23.66419,7.886856 -7.32617,7.326167 7.32668,7.327201 7.32669,-7.326167 z m 63.10519,0 -7.3272,7.326686 7.32668,7.326682 7.3272,-7.327201 z m -47.32838,5.29e-4 -7.32668,7.32617 7.32668,7.326683 7.32669,-7.326167 z m 31.55156,0 -7.32616,7.326686 7.32616,7.326685 7.32669,-7.326685 z m -15.77578,5.29e-4 -7.32668,7.326167 7.32668,7.326686 7.32669,-7.32617 z m -42.36485,4.963473 v 4.726326 l 2.36316,-2.363163 z m 84.66666,0.06304 -2.30012,2.300119 2.30012,2.300118 z m -81.74281,2.860808 -2.92385,2.923855 v 8.805145 l 2.92437,2.924371 7.32668,-7.326686 z m 15.77681,0 -7.32616,7.326685 7.32668,7.326686 7.32669,-7.32617 z m 15.7763,0 -7.32617,7.326685 7.32669,7.326686 7.32617,-7.326686 z m 15.77578,0 -7.32668,7.326685 7.32668,7.326686 7.32669,-7.326686 z m 31.55363,0 -7.3272,7.327201 7.32617,7.32617 2.86132,-2.861326 v -8.931754 z m -15.77733,5.29e-4 -7.32668,7.326167 7.32616,7.326685 7.32669,-7.326685 z m -39.44049,7.887372 -7.32616,7.326685 7.32668,7.326692 7.32669,-7.326176 z m 15.7763,0 -7.32668,7.326685 7.32668,7.326692 7.32669,-7.326692 z m -31.55208,5.29e-4 -7.32668,7.326683 7.32668,7.326685 7.32669,-7.326685 z m 47.32838,0 -7.32668,7.326683 7.32616,7.326175 7.32669,-7.326691 z m 15.7763,5.29e-4 -7.32669,7.326167 7.32617,7.326692 7.32669,-7.326692 z m -73.91745,4.962454 v 4.726326 l 2.36316,-2.363163 z m 84.66666,0.06304 -2.30012,2.300118 2.30012,2.300118 z m -50.19021,2.861323 -7.32617,7.326682 7.32668,7.32669 7.32617,-7.32617 z m 15.77681,0 -7.32668,7.327202 7.32616,7.32617 7.3272,-7.32669 z m -47.32838,5.18e-4 -2.92488,2.924884 v 8.80308 l 2.9254,2.9254 7.32617,-7.32668 z m 15.77578,0 -7.32668,7.326684 7.32668,7.32668 7.32669,-7.32668 z m 47.32838,0 -7.32668,7.326684 7.32668,7.32668 7.32668,-7.32668 z m 15.77578,0 -7.32668,7.326684 7.32668,7.32668 2.86184,-2.86184 v -8.929684 z m -70.99205,7.887884 -7.32668,7.32617 7.3272,7.3272 7.32617,-7.32668 z m 15.77578,0 -7.32668,7.32617 7.32668,7.3272 7.32669,-7.32668 z m 15.7763,0 -7.32617,7.32669 7.32617,7.32617 7.32669,-7.32617 z m 15.77682,0 -7.3272,7.32669 7.32668,7.32668 7.3272,-7.3272 z m 15.77526,0 -7.32668,7.32669 7.32668,7.32668 7.32669,-7.32668 z m -73.91693,4.96301 v 4.72736 l 2.36368,-2.36368 z m 84.66666,0.063 -2.30063,2.30064 2.30063,2.30063 z m -18.6371,2.86133 -7.3272,7.3272 7.32668,7.32668 7.3272,-7.3272 z m -63.10468,5.2e-4 -2.92488,2.92488 v 8.80257 l 2.9254,2.9254 7.32617,-7.32617 z m 15.77527,0 -7.32617,7.32616 7.3272,7.32669 7.32617,-7.32617 z m 15.7763,0 -7.32617,7.32668 7.32668,7.32668 7.32669,-7.32616 z m 15.77681,0 -7.32668,7.32668 7.32668,7.32668 7.32668,-7.32668 z m 31.55156,0 -7.32668,7.32668 7.32668,7.32668 2.86184,-2.86184 v -8.92969 z m -70.99256,7.88737 -7.32617,7.32617 7.3272,7.3272 7.32617,-7.32617 z m 63.10519,0 -7.3272,7.3272 7.32668,7.32668 7.3272,-7.3272 z m -15.77682,5.3e-4 -7.32668,7.32668 7.32668,7.32668 7.32669,-7.32668 z m -31.55208,5.3e-4 -7.32616,7.32616 7.3272,7.32669 7.32565,-7.32617 z m 15.7763,0 -7.32668,7.32668 7.32668,7.32668 7.32669,-7.32668 z M 418.04163,124.38 v 4.72633 l 2.36316,-2.36316 z m 84.66666,0.0631 -2.30012,2.30012 2.30012,2.30012 z m -65.966,2.86081 -7.32565,7.32668 2.95279,2.95279 h 8.74779 l 2.95228,-2.95227 z m 31.55208,0 -7.32668,7.3272 2.95227,2.95227 h 8.74831 l 2.95279,-2.95279 z m 31.55311,0 -7.3272,7.3272 2.95228,2.95227 h 3.6866 c 1.96621,0 3.54913,-1.58292 3.54913,-3.54914 v -3.86953 z m -78.882,5.1e-4 -2.92385,2.92385 v 3.80597 c 0,1.96622 1.58291,3.54914 3.54913,3.54914 h 3.74965 l 2.95227,-2.95227 z m 31.55311,0 -7.32617,7.32617 2.95279,2.95279 h 8.74779 l 2.95228,-2.95227 z m 31.55208,0 -7.3272,7.32669 2.95227,2.95227 h 8.74831 l 2.95279,-2.95279 z m -7.88789,7.88738 -2.39159,2.39158 h 4.78318 z m -31.55208,5.3e-4 -2.39107,2.39105 h 4.78214 z m 15.77578,0 -2.39107,2.39105 h 4.78214 z m -31.55259,5e-4 -2.39056,2.39055 h 4.78111 z m 63.10519,0 -2.39055,2.39055 h 4.7811 z" />
    <path
       id="rect5652-8-5"
       style="display:inline;fill:#00ff00;stroke-width:1;stroke-linecap:round;paint-order:stroke fill markers"
       d="m 524.77825,5.2916666 c -1.96622,0 -3.54913,1.5829182 -3.54913,3.5491372 v 3.9832192 l 2.9254,2.925403 7.32617,-7.3261675 -3.13159,-3.1315919 z m 4.69429,0 2.56987,2.569869 2.56987,-2.569869 z m 6.26112,0 -3.13056,3.1305582 7.3272,7.3272012 7.32565,-7.3261675 -3.13159,-3.1315919 z m 9.51518,0 2.56935,2.5693523 2.56935,-2.5693523 z m 6.26112,0 -3.13056,3.1305582 7.32668,7.3266842 7.32617,-7.3266842 -3.13056,-3.1305582 z m 9.51518,0 2.56935,2.5693523 2.56935,-2.5693523 z m 6.26111,0 -3.13055,3.1305582 7.32668,7.3266842 7.32617,-7.3266842 -3.13056,-3.1305582 z m 9.51415,0 2.56935,2.5693523 2.56936,-2.5693523 z m 6.26215,0 -3.13107,3.1310749 7.32668,7.3266845 7.32668,-7.3272012 -3.13055,-3.1305582 z m 9.51363,0 2.56987,2.569869 2.56987,-2.569869 z m 6.26215,0 -3.13107,3.1310749 7.32668,7.3266845 2.86184,-2.861841 V 8.8408038 c 0,-1.966219 -1.58292,-3.5491372 -3.54913,-3.5491372 z m -66.79695,3.692281 -7.32617,7.3261674 7.3272,7.327202 7.32617,-7.326685 z m 15.77578,0 -7.32617,7.3261674 7.32668,7.326685 7.32669,-7.325651 z m 15.77681,0 -7.32668,7.3266844 7.32668,7.326685 7.32669,-7.326685 z m 15.77682,0 -7.3272,7.3266844 7.32668,7.326685 7.3272,-7.327202 z m 15.77578,0 -7.3272,7.3266844 7.32668,7.326685 7.32669,-7.327202 z m -73.91745,4.9630044 v 4.72736 l 2.36368,-2.36368 z m 84.66666,0.06305 -2.30063,2.300635 2.30063,2.300635 z m -18.6371,2.861324 -7.3272,7.327202 7.32668,7.326684 7.3272,-7.327201 z m -63.10468,5.17e-4 -2.92488,2.924886 v 8.80308 l 2.9254,2.925403 7.32617,-7.326684 z m 15.77527,0 -7.32617,7.326168 7.32668,7.326685 7.32669,-7.326168 z m 63.10519,0 -7.3272,7.326685 7.32668,7.326684 2.86184,-2.861842 v -8.930203 z m -47.32889,5.29e-4 -7.32617,7.326168 7.32668,7.326685 7.32617,-7.326168 z m 15.77681,0 -7.32668,7.326168 7.32668,7.326685 7.32668,-7.32618 z m -39.441,7.886845 -7.32617,7.326684 7.32668,7.326686 7.32669,-7.32617 z m 63.10519,0 -7.3272,7.3272 7.32668,7.326685 7.3272,-7.327201 z m -15.77682,5.29e-4 -7.32616,7.326684 7.32668,7.326686 7.32617,-7.326686 z m -31.55208,5.29e-4 -7.32616,7.326166 7.32668,7.326685 7.32669,-7.326167 z m 15.7763,0 -7.32668,7.326684 7.32668,7.326683 7.32669,-7.326683 z m -42.36485,4.963498 v 4.726326 l 2.36316,-2.363163 z m 84.66666,0.06304 -2.30012,2.300119 2.30012,2.300118 z m -81.74281,2.860808 -2.92385,2.923852 v 8.805148 l 2.92488,2.924884 7.32617,-7.326683 z m 78.882,0 -7.3272,7.327201 7.32669,7.326683 2.86132,-2.861323 v -8.931754 z m -63.10519,5.29e-4 -7.32616,7.326167 7.32668,7.326685 7.32669,-7.326167 z m 15.7763,0 -7.32668,7.326167 7.3272,7.327201 7.32617,-7.326683 z m 15.77578,0 -7.32668,7.326685 7.32668,7.326683 7.32669,-7.326683 z m 15.7763,0 -7.32668,7.326685 7.32616,7.326683 7.32669,-7.327201 z m -55.21627,7.88789 -7.32668,7.326686 7.3272,7.327201 7.32617,-7.326685 z m 15.77578,0 -7.32616,7.326167 7.32668,7.327202 7.32617,-7.326683 z m 15.7763,0 -7.32668,7.326167 7.32668,7.326686 7.32669,-7.326167 z m 15.7763,0 -7.3272,7.326686 7.32668,7.326683 7.3272,-7.327202 z m 15.7763,5.3e-4 -7.3272,7.326685 7.32668,7.326686 7.32669,-7.327202 z m -73.91745,4.96298 v 4.726326 l 2.36316,-2.363163 z m 84.66666,0.06304 -2.30012,2.300118 2.30012,2.300118 z m -81.74178,2.861323 -2.92488,2.924886 v 8.803079 l 2.9254,2.925403 7.32617,-7.326167 z m 31.55157,0 -7.32617,7.326167 7.32668,7.326685 7.32617,-7.326167 z m 15.77629,0 -7.32616,7.326685 7.32668,7.326683 7.32617,-7.326683 z m 15.77682,0 -7.3272,7.327201 7.32668,7.326686 7.3272,-7.327202 z m -47.32941,5.29e-4 -7.32617,7.326169 7.32668,7.326683 7.32669,-7.326167 z m 63.10519,0 -7.3272,7.326685 7.32616,7.326686 2.86236,-2.862371 v -8.929688 z m -70.99308,7.887374 -7.32617,7.326167 7.3272,7.327202 7.32617,-7.326167 z m 63.10519,0 -7.3272,7.327202 7.32668,7.326167 7.32669,-7.326683 z m -47.32941,5.3e-4 -7.32617,7.326169 7.32668,7.326683 7.32617,-7.326167 z m 15.77681,0 -7.32617,7.326169 7.32669,7.326683 7.32617,-7.326167 z m 15.7763,0 -7.32668,7.326169 7.32668,7.326683 7.32668,-7.326683 z m -58.14115,4.96298 v 4.727358 l 2.36368,-2.363679 z m 84.66666,0.06305 -2.30063,2.300634 2.30063,2.300634 z m -81.74229,2.861323 -2.92437,2.924371 v 8.803594 l 2.9254,2.925403 7.32617,-7.326167 z m 15.77629,0 -7.32668,7.326167 7.3272,7.327201 7.32617,-7.326683 z m 47.3289,0 -7.3272,7.326685 7.32668,7.326683 7.3272,-7.327201 z m 15.77578,0 -7.3272,7.327201 7.32616,7.326167 2.86236,-2.862358 v -8.929687 z m -31.5526,5.29e-4 -7.32616,7.326685 7.32668,7.326686 7.32617,-7.326686 z m -15.77629,5.29e-4 -7.32617,7.326167 7.32668,7.326685 7.32617,-7.326169 z m -23.66419,7.886856 -7.32617,7.326167 7.32668,7.327201 7.32669,-7.326167 z m 63.10519,0 -7.3272,7.326686 7.32668,7.326682 7.3272,-7.327201 z m -47.32838,5.29e-4 -7.32668,7.32617 7.32668,7.326683 7.32669,-7.326167 z m 31.55156,0 -7.32616,7.326686 7.32616,7.326685 7.32669,-7.326685 z m -15.77578,5.29e-4 -7.32668,7.326167 7.32668,7.326686 7.32669,-7.32617 z m -42.36485,4.963473 v 4.726326 l 2.36316,-2.363163 z m 84.66666,0.06304 -2.30012,2.300119 2.30012,2.300118 z m -81.74281,2.860808 -2.92385,2.923855 v 8.805145 l 2.92437,2.924371 7.32668,-7.326686 z m 15.77681,0 -7.32616,7.326685 7.32668,7.326686 7.32669,-7.32617 z m 15.7763,0 -7.32617,7.326685 7.32669,7.326686 7.32617,-7.326686 z m 15.77578,0 -7.32668,7.326685 7.32668,7.326686 7.32669,-7.326686 z m 31.55363,0 -7.3272,7.327201 7.32617,7.32617 2.86132,-2.861326 v -8.931754 z m -15.77733,5.29e-4 -7.32668,7.326167 7.32616,7.326685 7.32669,-7.326685 z m -39.44049,7.887372 -7.32616,7.326685 7.32668,7.326692 7.32669,-7.326176 z m 15.7763,0 -7.32668,7.326685 7.32668,7.326692 7.32669,-7.326692 z m -31.55208,5.29e-4 -7.32668,7.326683 7.32668,7.326685 7.32669,-7.326685 z m 47.32838,0 -7.32668,7.326683 7.32616,7.326175 7.32669,-7.326691 z m 15.7763,5.29e-4 -7.32669,7.326167 7.32617,7.326692 7.32669,-7.326692 z m -73.91745,4.962454 v 4.726326 l 2.36316,-2.363163 z m 84.66666,0.06304 -2.30012,2.300118 2.30012,2.300118 z m -50.19021,2.861323 -7.32617,7.326682 7.32668,7.32669 7.32617,-7.32617 z m 15.77681,0 -7.32668,7.327202 7.32616,7.32617 7.3272,-7.32669 z m -47.32838,5.18e-4 -2.92488,2.924884 v 8.80308 l 2.9254,2.9254 7.32617,-7.32668 z m 15.77578,0 -7.32668,7.326684 7.32668,7.32668 7.32669,-7.32668 z m 47.32838,0 -7.32668,7.326684 7.32668,7.32668 7.32668,-7.32668 z m 15.77578,0 -7.32668,7.326684 7.32668,7.32668 2.86184,-2.86184 v -8.929684 z m -70.99205,7.887884 -7.32668,7.32617 7.3272,7.3272 7.32617,-7.32668 z m 15.77578,0 -7.32668,7.32617 7.32668,7.3272 7.32669,-7.32668 z m 15.7763,0 -7.32617,7.32669 7.32617,7.32617 7.32669,-7.32617 z m 15.77682,0 -7.3272,7.32669 7.32668,7.32668 7.3272,-7.3272 z m 15.77526,0 -7.32668,7.32669 7.32668,7.32668 7.32669,-7.32668 z m -73.91693,4.96301 v 4.72736 l 2.36368,-2.36368 z m 84.66666,0.063 -2.30063,2.30064 2.30063,2.30063 z m -18.6371,2.86133 -7.3272,7.3272 7.32668,7.32668 7.3272,-7.3272 z m -63.10468,5.2e-4 -2.92488,2.92488 v 8.80257 l 2.9254,2.9254 7.32617,-7.32617 z m 15.77527,0 -7.32617,7.32616 7.3272,7.32669 7.32617,-7.32617 z m 15.7763,0 -7.32617,7.32668 7.32668,7.32668 7.32669,-7.32616 z m 15.77681,0 -7.32668,7.32668 7.32668,7.32668 7.32668,-7.32668 z m 31.55156,0 -7.32668,7.32668 7.32668,7.32668 2.86184,-2.86184 v -8.92969 z m -70.99256,7.88737 -7.32617,7.32617 7.3272,7.3272 7.32617,-7.32617 z m 63.10519,0 -7.3272,7.3272 7.32668,7.32668 7.3272,-7.3272 z m -15.77682,5.3e-4 -7.32668,7.32668 7.32668,7.32668 7.32669,-7.32668 z m -31.55208,5.3e-4 -7.32616,7.32616 7.3272,7.32669 7.32565,-7.32617 z m 15.7763,0 -7.32668,7.32668 7.32668,7.32668 7.32669,-7.32668 z M 521.22912,124.38 v 4.72633 l 2.36316,-2.36316 z m 84.66666,0.0631 -2.30012,2.30012 2.30012,2.30012 z m -65.966,2.86081 -7.32565,7.32668 2.95279,2.95279 h 8.74779 l 2.95228,-2.95227 z m 31.55208,0 -7.32668,7.3272 2.95227,2.95227 h 8.74831 l 2.95279,-2.95279 z m 31.55311,0 -7.3272,7.3272 2.95228,2.95227 h 3.6866 c 1.96621,0 3.54913,-1.58292 3.54913,-3.54914 v -3.86953 z m -78.882,5.1e-4 -2.92385,2.92385 v 3.80597 c 0,1.96622 1.58291,3.54914 3.54913,3.54914 h 3.74965 l 2.95227,-2.95227 z m 31.55311,0 -7.32617,7.32617 2.95279,2.95279 h 8.74779 l 2.95228,-2.95227 z m 31.55208,0 -7.3272,7.32669 2.95227,2.95227 h 8.74831 l 2.95279,-2.95279 z m -7.88789,7.88738 -2.39159,2.39158 h 4.78318 z m -31.55208,5.3e-4 -2.39107,2.39105 h 4.78214 z m 15.77578,0 -2.39107,2.39105 h 4.78214 z m -31.55259,5e-4 -2.39056,2.39055 h 4.78111 z m 63.10519,0 -2.39055,2.39055 h 4.7811 z" />
    <path
       id="rect5652-8-1"
       style="display:inline;fill:#999999;stroke-width:1;stroke-linecap:round;paint-order:stroke fill markers"
       d="m 627.96574,5.2916666 c -1.96622,0 -3.54913,1.5829182 -3.54913,3.5491372 v 3.9832192 l 2.9254,2.925403 7.32617,-7.3261675 -3.13159,-3.1315919 z m 4.69429,0 2.56987,2.569869 2.56987,-2.569869 z m 6.26112,0 -3.13056,3.1305582 7.3272,7.3272012 7.32565,-7.3261675 -3.13159,-3.1315919 z m 9.51518,0 2.56935,2.5693523 2.56935,-2.5693523 z m 6.26112,0 -3.13056,3.1305582 7.32668,7.3266842 7.32617,-7.3266842 -3.13056,-3.1305582 z m 9.51518,0 2.56935,2.5693523 2.56935,-2.5693523 z m 6.26111,0 -3.13055,3.1305582 7.32668,7.3266842 7.32617,-7.3266842 -3.13056,-3.1305582 z m 9.51415,0 2.56935,2.5693523 2.56936,-2.5693523 z m 6.26215,0 -3.13107,3.1310749 7.32668,7.3266845 7.32668,-7.3272012 -3.13055,-3.1305582 z m 9.51363,0 2.56987,2.569869 2.56987,-2.569869 z m 6.26215,0 -3.13107,3.1310749 7.32668,7.3266845 2.86184,-2.861841 V 8.8408038 c 0,-1.966219 -1.58292,-3.5491372 -3.54913,-3.5491372 z m -66.79695,3.692281 -7.32617,7.3261674 7.3272,7.327202 7.32617,-7.326685 z m 15.77578,0 -7.32617,7.3261674 7.32668,7.326685 7.32669,-7.325651 z m 15.77681,0 -7.32668,7.3266844 7.32668,7.326685 7.32669,-7.326685 z m 15.77682,0 -7.3272,7.3266844 7.32668,7.326685 7.3272,-7.327202 z m 15.77578,0 -7.3272,7.3266844 7.32668,7.326685 7.32669,-7.327202 z m -73.91745,4.9630044 v 4.72736 l 2.36368,-2.36368 z m 84.66666,0.06305 -2.30063,2.300635 2.30063,2.300635 z m -18.6371,2.861324 -7.3272,7.327202 7.32668,7.326684 7.3272,-7.327201 z m -63.10468,5.17e-4 -2.92488,2.924886 v 8.80308 l 2.9254,2.925403 7.32617,-7.326684 z m 15.77527,0 -7.32617,7.326168 7.32668,7.326685 7.32669,-7.326168 z m 63.10519,0 -7.3272,7.326685 7.32668,7.326684 2.86184,-2.861842 v -8.930203 z m -47.32889,5.29e-4 -7.32617,7.326168 7.32668,7.326685 7.32617,-7.326168 z m 15.77681,0 -7.32668,7.326168 7.32668,7.326685 7.32668,-7.32618 z m -39.441,7.886845 -7.32617,7.326684 7.32668,7.326686 7.32669,-7.32617 z m 63.10519,0 -7.3272,7.3272 7.32668,7.326685 7.3272,-7.327201 z m -15.77682,5.29e-4 -7.32616,7.326684 7.32668,7.326686 7.32617,-7.326686 z m -31.55208,5.29e-4 -7.32616,7.326166 7.32668,7.326685 7.32669,-7.326167 z m 15.7763,0 -7.32668,7.326684 7.32668,7.326683 7.32669,-7.326683 z m -42.36485,4.963498 v 4.726326 l 2.36316,-2.363163 z m 84.66666,0.06304 -2.30012,2.300119 2.30012,2.300118 z m -81.74281,2.860808 -2.92385,2.923852 v 8.805148 l 2.92488,2.924884 7.32617,-7.326683 z m 78.882,0 -7.3272,7.327201 7.32669,7.326683 2.86132,-2.861323 v -8.931754 z m -63.10519,5.29e-4 -7.32616,7.326167 7.32668,7.326685 7.32669,-7.326167 z m 15.7763,0 -7.32668,7.326167 7.3272,7.327201 7.32617,-7.326683 z m 15.77578,0 -7.32668,7.326685 7.32668,7.326683 7.32669,-7.326683 z m 15.7763,0 -7.32668,7.326685 7.32616,7.326683 7.32669,-7.327201 z m -55.21627,7.88789 -7.32668,7.326686 7.3272,7.327201 7.32617,-7.326685 z m 15.77578,0 -7.32616,7.326167 7.32668,7.327202 7.32617,-7.326683 z m 15.7763,0 -7.32668,7.326167 7.32668,7.326686 7.32669,-7.326167 z m 15.7763,0 -7.3272,7.326686 7.32668,7.326683 7.3272,-7.327202 z m 15.7763,5.3e-4 -7.3272,7.326685 7.32668,7.326686 7.32669,-7.327202 z m -73.91745,4.96298 v 4.726326 l 2.36316,-2.363163 z m 84.66666,0.06304 -2.30012,2.300118 2.30012,2.300118 z m -81.74178,2.861323 -2.92488,2.924886 v 8.803079 l 2.9254,2.925403 7.32617,-7.326167 z m 31.55157,0 -7.32617,7.326167 7.32668,7.326685 7.32617,-7.326167 z m 15.77629,0 -7.32616,7.326685 7.32668,7.326683 7.32617,-7.326683 z m 15.77682,0 -7.3272,7.327201 7.32668,7.326686 7.3272,-7.327202 z m -47.32941,5.29e-4 -7.32617,7.326169 7.32668,7.326683 7.32669,-7.326167 z m 63.10519,0 -7.3272,7.326685 7.32616,7.326686 2.86236,-2.862371 v -8.929688 z m -70.99308,7.887374 -7.32617,7.326167 7.3272,7.327202 7.32617,-7.326167 z m 63.10519,0 -7.3272,7.327202 7.32668,7.326167 7.32669,-7.326683 z m -47.32941,5.3e-4 -7.32617,7.326169 7.32668,7.326683 7.32617,-7.326167 z m 15.77681,0 -7.32617,7.326169 7.32669,7.326683 7.32617,-7.326167 z m 15.7763,0 -7.32668,7.326169 7.32668,7.326683 7.32668,-7.326683 z m -58.14115,4.96298 v 4.727358 l 2.36368,-2.363679 z m 84.66666,0.06305 -2.30063,2.300634 2.30063,2.300634 z m -81.74229,2.861323 -2.92437,2.924371 v 8.803594 l 2.9254,2.925403 7.32617,-7.326167 z m 15.77629,0 -7.32668,7.326167 7.3272,7.327201 7.32617,-7.326683 z m 47.3289,0 -7.3272,7.326685 7.32668,7.326683 7.3272,-7.327201 z m 15.77578,0 -7.3272,7.327201 7.32616,7.326167 2.86236,-2.862358 v -8.929687 z m -31.5526,5.29e-4 -7.32616,7.326685 7.32668,7.326686 7.32617,-7.326686 z m -15.77629,5.29e-4 -7.32617,7.326167 7.32668,7.326685 7.32617,-7.326169 z m -23.66419,7.886856 -7.32617,7.326167 7.32668,7.327201 7.32669,-7.326167 z m 63.10519,0 -7.3272,7.326686 7.32668,7.326682 7.3272,-7.327201 z m -47.32838,5.29e-4 -7.32668,7.32617 7.32668,7.326683 7.32669,-7.326167 z m 31.55156,0 -7.32616,7.326686 7.32616,7.326685 7.32669,-7.326685 z m -15.77578,5.29e-4 -7.32668,7.326167 7.32668,7.326686 7.32669,-7.32617 z m -42.36485,4.963473 v 4.726326 l 2.36316,-2.363163 z m 84.66666,0.06304 -2.30012,2.300119 2.30012,2.300118 z m -81.74281,2.860808 -2.92385,2.923855 v 8.805145 l 2.92437,2.924371 7.32668,-7.326686 z m 15.77681,0 -7.32616,7.326685 7.32668,7.326686 7.32669,-7.32617 z m 15.7763,0 -7.32617,7.326685 7.32669,7.326686 7.32617,-7.326686 z m 15.77578,0 -7.32668,7.326685 7.32668,7.326686 7.32669,-7.326686 z m 31.55363,0 -7.3272,7.327201 7.32617,7.32617 2.86132,-2.861326 v -8.931754 z m -15.77733,5.29e-4 -7.32668,7.326167 7.32616,7.326685 7.32669,-7.326685 z m -39.44049,7.887372 -7.32616,7.326685 7.32668,7.326692 7.32669,-7.326176 z m 15.7763,0 -7.32668,7.326685 7.32668,7.326692 7.32669,-7.326692 z m -31.55208,5.29e-4 -7.32668,7.326683 7.32668,7.326685 7.32669,-7.326685 z m 47.32838,0 -7.32668,7.326683 7.32616,7.326175 7.32669,-7.326691 z m 15.7763,5.29e-4 -7.32669,7.326167 7.32617,7.326692 7.32669,-7.326692 z m -73.91745,4.962454 v 4.726326 l 2.36316,-2.363163 z m 84.66666,0.06304 -2.30012,2.300118 2.30012,2.300118 z m -50.19021,2.861323 -7.32617,7.326682 7.32668,7.32669 7.32617,-7.32617 z m 15.77681,0 -7.32668,7.327202 7.32616,7.32617 7.3272,-7.32669 z m -47.32838,5.18e-4 -2.92488,2.924884 v 8.80308 l 2.9254,2.9254 7.32617,-7.32668 z m 15.77578,0 -7.32668,7.326684 7.32668,7.32668 7.32669,-7.32668 z m 47.32838,0 -7.32668,7.326684 7.32668,7.32668 7.32668,-7.32668 z m 15.77578,0 -7.32668,7.326684 7.32668,7.32668 2.86184,-2.86184 v -8.929684 z m -70.99205,7.887884 -7.32668,7.32617 7.3272,7.3272 7.32617,-7.32668 z m 15.77578,0 -7.32668,7.32617 7.32668,7.3272 7.32669,-7.32668 z m 15.7763,0 -7.32617,7.32669 7.32617,7.32617 7.32669,-7.32617 z m 15.77682,0 -7.3272,7.32669 7.32668,7.32668 7.3272,-7.3272 z m 15.77526,0 -7.32668,7.32669 7.32668,7.32668 7.32669,-7.32668 z m -73.91693,4.96301 v 4.72736 l 2.36368,-2.36368 z m 84.66666,0.063 -2.30063,2.30064 2.30063,2.30063 z m -18.6371,2.86133 -7.3272,7.3272 7.32668,7.32668 7.3272,-7.3272 z m -63.10468,5.2e-4 -2.92488,2.92488 v 8.80257 l 2.9254,2.9254 7.32617,-7.32617 z m 15.77527,0 -7.32617,7.32616 7.3272,7.32669 7.32617,-7.32617 z m 15.7763,0 -7.32617,7.32668 7.32668,7.32668 7.32669,-7.32616 z m 15.77681,0 -7.32668,7.32668 7.32668,7.32668 7.32668,-7.32668 z m 31.55156,0 -7.32668,7.32668 7.32668,7.32668 2.86184,-2.86184 v -8.92969 z m -70.99256,7.88737 -7.32617,7.32617 7.3272,7.3272 7.32617,-7.32617 z m 63.10519,0 -7.3272,7.3272 7.32668,7.32668 7.3272,-7.3272 z m -15.77682,5.3e-4 -7.32668,7.32668 7.32668,7.32668 7.32669,-7.32668 z m -31.55208,5.3e-4 -7.32616,7.32616 7.3272,7.32669 7.32565,-7.32617 z m 15.7763,0 -7.32668,7.32668 7.32668,7.32668 7.32669,-7.32668 z M 624.41661,124.38 v 4.72633 l 2.36316,-2.36316 z m 84.66666,0.0631 -2.30012,2.30012 2.30012,2.30012 z m -65.966,2.86081 -7.32565,7.32668 2.95279,2.95279 h 8.74779 l 2.95228,-2.95227 z m 31.55208,0 -7.32668,7.3272 2.95227,2.95227 h 8.74831 l 2.95279,-2.95279 z m 31.55311,0 -7.3272,7.3272 2.95228,2.95227 h 3.6866 c 1.96621,0 3.54913,-1.58292 3.54913,-3.54914 v -3.86953 z m -78.882,5.1e-4 -2.92385,2.92385 v 3.80597 c 0,1.96622 1.58291,3.54914 3.54913,3.54914 h 3.74965 l 2.95227,-2.95227 z m 31.55311,0 -7.32617,7.32617 2.95279,2.95279 h 8.74779 l 2.95228,-2.95227 z m 31.55208,0 -7.3272,7.32669 2.95227,2.95227 h 8.74831 l 2.95279,-2.95279 z m -7.88789,7.88738 -2.39159,2.39158 h 4.78318 z m -31.55208,5.3e-4 -2.39107,2.39105 h 4.78214 z m 15.77578,0 -2.39107,2.39105 h 4.78214 z m -31.55259,5e-4 -2.39056,2.39055 h 4.78111 z m 63.10519,0 -2.39055,2.39055 h 4.7811 z" />
    <path
       id="rect5652-8-1-5"
       style="display:inline;fill:#808000;stroke-width:1;stroke-linecap:round;paint-order:stroke fill markers"
       d="m 731.15323,5.2916666 c -1.96622,0 -3.54913,1.5829182 -3.54913,3.5491372 v 3.9832192 l 2.9254,2.925403 7.32617,-7.3261675 -3.13159,-3.1315919 z m 4.69429,0 2.56987,2.569869 2.56987,-2.569869 z m 6.26112,0 -3.13056,3.1305582 7.3272,7.3272012 7.32565,-7.3261675 -3.13159,-3.1315919 z m 9.51518,0 2.56935,2.5693523 2.56935,-2.5693523 z m 6.26112,0 -3.13056,3.1305582 7.32668,7.3266842 7.32617,-7.3266842 -3.13056,-3.1305582 z m 9.51518,0 2.56935,2.5693523 2.56935,-2.5693523 z m 6.26111,0 -3.13055,3.1305582 7.32668,7.3266842 7.32617,-7.3266842 -3.13056,-3.1305582 z m 9.51415,0 2.56935,2.5693523 2.56936,-2.5693523 z m 6.26215,0 -3.13107,3.1310749 7.32668,7.3266845 7.32668,-7.3272012 -3.13055,-3.1305582 z m 9.51363,0 2.56987,2.569869 2.56987,-2.569869 z m 6.26215,0 -3.13107,3.1310749 7.32668,7.3266845 2.86184,-2.861841 V 8.8408038 c 0,-1.966219 -1.58292,-3.5491372 -3.54913,-3.5491372 z m -66.79695,3.692281 -7.32617,7.3261674 7.3272,7.327202 7.32617,-7.326685 z m 15.77578,0 -7.32617,7.3261674 7.32668,7.326685 7.32669,-7.325651 z m 15.77681,0 -7.32668,7.3266844 7.32668,7.326685 7.32669,-7.326685 z m 15.77682,0 -7.3272,7.3266844 7.32668,7.326685 7.3272,-7.327202 z m 15.77578,0 -7.3272,7.3266844 7.32668,7.326685 7.32669,-7.327202 z M 727.6041,13.946952 v 4.72736 l 2.36368,-2.36368 z m 84.66666,0.06305 -2.30063,2.300635 2.30063,2.300635 z m -18.6371,2.861324 -7.3272,7.327202 7.32668,7.326684 7.3272,-7.327201 z m -63.10468,5.17e-4 -2.92488,2.924886 v 8.80308 l 2.9254,2.925403 7.32617,-7.326684 z m 15.77527,0 -7.32617,7.326168 7.32668,7.326685 7.32669,-7.326168 z m 63.10519,0 -7.3272,7.326685 7.32668,7.326684 2.86184,-2.861842 v -8.930203 z m -47.32889,5.29e-4 -7.32617,7.326168 7.32668,7.326685 7.32617,-7.326168 z m 15.77681,0 -7.32668,7.326168 7.32668,7.326685 7.32668,-7.32618 z m -39.441,7.886845 -7.32617,7.326684 7.32668,7.326686 7.32669,-7.32617 z m 63.10519,0 -7.3272,7.3272 7.32668,7.326685 7.3272,-7.327201 z m -15.77682,5.29e-4 -7.32616,7.326684 7.32668,7.326686 7.32617,-7.326686 z m -31.55208,5.29e-4 -7.32616,7.326166 7.32668,7.326685 7.32669,-7.326167 z m 15.7763,0 -7.32668,7.326684 7.32668,7.326683 7.32669,-7.326683 z m -42.36485,4.963498 v 4.726326 l 2.36316,-2.363163 z m 84.66666,0.06304 -2.30012,2.300119 2.30012,2.300118 z m -81.74281,2.860808 -2.92385,2.923852 v 8.805148 l 2.92488,2.924884 7.32617,-7.326683 z m 78.882,0 -7.3272,7.327201 7.32669,7.326683 2.86132,-2.861323 v -8.931754 z m -63.10519,5.29e-4 -7.32616,7.326167 7.32668,7.326685 7.32669,-7.326167 z m 15.7763,0 -7.32668,7.326167 7.3272,7.327201 7.32617,-7.326683 z m 15.77578,0 -7.32668,7.326685 7.32668,7.326683 7.32669,-7.326683 z m 15.7763,0 -7.32668,7.326685 7.32616,7.326683 7.32669,-7.327201 z m -55.21627,7.88789 -7.32668,7.326686 7.3272,7.327201 7.32617,-7.326685 z m 15.77578,0 -7.32616,7.326167 7.32668,7.327202 7.32617,-7.326683 z m 15.7763,0 -7.32668,7.326167 7.32668,7.326686 7.32669,-7.326167 z m 15.7763,0 -7.3272,7.326686 7.32668,7.326683 7.3272,-7.327202 z m 15.7763,5.3e-4 -7.3272,7.326685 7.32668,7.326686 7.32669,-7.327202 z m -73.91745,4.96298 v 4.726326 l 2.36316,-2.363163 z m 84.66666,0.06304 -2.30012,2.300118 2.30012,2.300118 z m -81.74178,2.861323 -2.92488,2.924886 v 8.803079 l 2.9254,2.925403 7.32617,-7.326167 z m 31.55157,0 -7.32617,7.326167 7.32668,7.326685 7.32617,-7.326167 z m 15.77629,0 -7.32616,7.326685 7.32668,7.326683 7.32617,-7.326683 z m 15.77682,0 -7.3272,7.327201 7.32668,7.326686 7.3272,-7.327202 z m -47.32941,5.29e-4 -7.32617,7.326169 7.32668,7.326683 7.32669,-7.326167 z m 63.10519,0 -7.3272,7.326685 7.32616,7.326686 2.86236,-2.862371 v -8.929688 z m -70.99308,7.887374 -7.32617,7.326167 7.3272,7.327202 7.32617,-7.326167 z m 63.10519,0 -7.3272,7.327202 7.32668,7.326167 7.32669,-7.326683 z m -47.32941,5.3e-4 -7.32617,7.326169 7.32668,7.326683 7.32617,-7.326167 z m 15.77681,0 -7.32617,7.326169 7.32669,7.326683 7.32617,-7.326167 z m 15.7763,0 -7.32668,7.326169 7.32668,7.326683 7.32668,-7.326683 z m -58.14115,4.96298 v 4.727358 l 2.36368,-2.363679 z m 84.66666,0.06305 -2.30063,2.300634 2.30063,2.300634 z m -81.74229,2.861323 -2.92437,2.924371 v 8.803594 l 2.9254,2.925403 7.32617,-7.326167 z m 15.77629,0 -7.32668,7.326167 7.3272,7.327201 7.32617,-7.326683 z m 47.3289,0 -7.3272,7.326685 7.32668,7.326683 7.3272,-7.327201 z m 15.77578,0 -7.3272,7.327201 7.32616,7.326167 2.86236,-2.862358 v -8.929687 z m -31.5526,5.29e-4 -7.32616,7.326685 7.32668,7.326686 7.32617,-7.326686 z m -15.77629,5.29e-4 -7.32617,7.326167 7.32668,7.326685 7.32617,-7.326169 z m -23.66419,7.886856 -7.32617,7.326167 7.32668,7.327201 7.32669,-7.326167 z m 63.10519,0 -7.3272,7.326686 7.32668,7.326682 7.3272,-7.327201 z m -47.32838,5.29e-4 -7.32668,7.32617 7.32668,7.326683 7.32669,-7.326167 z m 31.55156,0 -7.32616,7.326686 7.32616,7.326685 7.32669,-7.326685 z m -15.77578,5.29e-4 -7.32668,7.326167 7.32668,7.326686 7.32669,-7.32617 z m -42.36485,4.963473 v 4.726326 l 2.36316,-2.363163 z m 84.66666,0.06304 -2.30012,2.300119 2.30012,2.300118 z m -81.74281,2.860808 -2.92385,2.923855 v 8.805145 l 2.92437,2.924371 7.32668,-7.326686 z m 15.77681,0 -7.32616,7.326685 7.32668,7.326686 7.32669,-7.32617 z m 15.7763,0 -7.32617,7.326685 7.32669,7.326686 7.32617,-7.326686 z m 15.77578,0 -7.32668,7.326685 7.32668,7.326686 7.32669,-7.326686 z m 31.55363,0 -7.3272,7.327201 7.32617,7.32617 2.86132,-2.861326 v -8.931754 z m -15.77733,5.29e-4 -7.32668,7.326167 7.32616,7.326685 7.32669,-7.326685 z m -39.44049,7.887372 -7.32616,7.326685 7.32668,7.326692 7.32669,-7.326176 z m 15.7763,0 -7.32668,7.326685 7.32668,7.326692 7.32669,-7.326692 z m -31.55208,5.29e-4 -7.32668,7.326683 7.32668,7.326685 7.32669,-7.326685 z m 47.32838,0 -7.32668,7.326683 7.32616,7.326175 7.32669,-7.326691 z m 15.7763,5.29e-4 -7.32669,7.326167 7.32617,7.326692 7.32669,-7.326692 z m -73.91745,4.962454 v 4.726326 l 2.36316,-2.363163 z m 84.66666,0.06304 -2.30012,2.300118 2.30012,2.300118 z m -50.19021,2.861323 -7.32617,7.326682 7.32668,7.32669 7.32617,-7.32617 z m 15.77681,0 -7.32668,7.327202 7.32616,7.32617 7.3272,-7.32669 z m -47.32838,5.18e-4 -2.92488,2.924884 v 8.80308 l 2.9254,2.9254 7.32617,-7.32668 z m 15.77578,0 -7.32668,7.326684 7.32668,7.32668 7.32669,-7.32668 z m 47.32838,0 -7.32668,7.326684 7.32668,7.32668 7.32668,-7.32668 z m 15.77578,0 -7.32668,7.326684 7.32668,7.32668 2.86184,-2.86184 v -8.929684 z m -70.99205,7.887884 -7.32668,7.32617 7.3272,7.3272 7.32617,-7.32668 z m 15.77578,0 -7.32668,7.32617 7.32668,7.3272 7.32669,-7.32668 z m 15.7763,0 -7.32617,7.32669 7.32617,7.32617 7.32669,-7.32617 z m 15.77682,0 -7.3272,7.32669 7.32668,7.32668 7.3272,-7.3272 z m 15.77526,0 -7.32668,7.32669 7.32668,7.32668 7.32669,-7.32668 z m -73.91693,4.96301 v 4.72736 l 2.36368,-2.36368 z m 84.66666,0.063 -2.30063,2.30064 2.30063,2.30063 z m -18.6371,2.86133 -7.3272,7.3272 7.32668,7.32668 7.3272,-7.3272 z m -63.10468,5.2e-4 -2.92488,2.92488 v 8.80257 l 2.9254,2.9254 7.32617,-7.32617 z m 15.77527,0 -7.32617,7.32616 7.3272,7.32669 7.32617,-7.32617 z m 15.7763,0 -7.32617,7.32668 7.32668,7.32668 7.32669,-7.32616 z m 15.77681,0 -7.32668,7.32668 7.32668,7.32668 7.32668,-7.32668 z m 31.55156,0 -7.32668,7.32668 7.32668,7.32668 2.86184,-2.86184 v -8.92969 z m -70.99256,7.88737 -7.32617,7.32617 7.3272,7.3272 7.32617,-7.32617 z m 63.10519,0 -7.3272,7.3272 7.32668,7.32668 7.3272,-7.3272 z m -15.77682,5.3e-4 -7.32668,7.32668 7.32668,7.32668 7.32669,-7.32668 z m -31.55208,5.3e-4 -7.32616,7.32616 7.3272,7.32669 7.32565,-7.32617 z m 15.7763,0 -7.32668,7.32668 7.32668,7.32668 7.32669,-7.32668 z M 727.6041,124.38 v 4.72633 l 2.36316,-2.36316 z m 84.66666,0.0631 -2.30012,2.30012 2.30012,2.30012 z m -65.966,2.86081 -7.32565,7.32668 2.95279,2.95279 h 8.74779 l 2.95228,-2.95227 z m 31.55208,0 -7.32668,7.3272 2.95227,2.95227 h 8.74831 l 2.95279,-2.95279 z m 31.55311,0 -7.3272,7.3272 2.95228,2.95227 h 3.6866 c 1.96621,0 3.54913,-1.58292 3.54913,-3.54914 v -3.86953 z m -78.882,5.1e-4 -2.92385,2.92385 v 3.80597 c 0,1.96622 1.58291,3.54914 3.54913,3.54914 h 3.74965 l 2.95227,-2.95227 z m 31.55311,0 -7.32617,7.32617 2.95279,2.95279 h 8.74779 l 2.95228,-2.95227 z m 31.55208,0 -7.3272,7.32669 2.95227,2.95227 h 8.74831 l 2.95279,-2.95279 z m -7.88789,7.88738 -2.39159,2.39158 h 4.78318 z m -31.55208,5.3e-4 -2.39107,2.39105 h 4.78214 z m 15.77578,0 -2.39107,2.39105 h 4.78214 z m -31.55259,5e-4 -2.39056,2.39055 h 4.78111 z m 63.10519,0 -2.39055,2.39055 h 4.7811 z" />
  </g>
</svg>
