<?xml version="1.0" encoding="UTF-8" standalone="no"?>
<!-- Created with Inkscape (http://www.inkscape.org/) -->

<svg
   width="65mm"
   height="65mm"
   viewBox="0 0 65 65"
   version="1.1"
   id="svg5"
   inkscape:version="1.1.1 (3bf5ae0d25, 2021-09-20)"
   sodipodi:docname="peeple-down.svg"
   xmlns:inkscape="http://www.inkscape.org/namespaces/inkscape"
   xmlns:sodipodi="http://sodipodi.sourceforge.net/DTD/sodipodi-0.dtd"
   xmlns="http://www.w3.org/2000/svg"
   xmlns:svg="http://www.w3.org/2000/svg">
  <sodipodi:namedview
     id="namedview7"
     pagecolor="#ffffff"
     bordercolor="#666666"
     borderopacity="1.0"
     inkscape:pageshadow="2"
     inkscape:pageopacity="0.0"
     inkscape:pagecheckerboard="0"
     inkscape:document-units="mm"
     showgrid="false"
     inkscape:zoom="1"
     inkscape:cx="121"
     inkscape:cy="165.5"
     inkscape:window-width="1920"
     inkscape:window-height="1017"
     inkscape:window-x="1912"
     inkscape:window-y="-8"
     inkscape:window-maximized="1"
     inkscape:current-layer="layer1" />
  <defs
     id="defs2">
    <filter
       inkscape:collect="always"
       style="color-interpolation-filters:sRGB"
       id="filter2033-07"
       x="-0.05171003"
       y="-0.051709754"
       width="1.1034201"
       height="1.1034195">
      <feGaussianBlur
         inkscape:collect="always"
         stdDeviation="1.3682965"
         id="feGaussianBlur2035-9" />
    </filter>
  </defs>
  <g
     inkscape:groupmode="layer"
     id="layer1"
     inkscape:label="all"
     style="display:inline">
    <ellipse
       style="display:inline;opacity:0.281437;mix-blend-mode:normal;fill:#000000;fill-opacity:1;stroke:none;stroke-width:8.71233;stroke-linecap:square;stroke-linejoin:bevel;paint-order:stroke fill markers;filter:url(#filter2033-07)"
       id="path873-7"
       cx="32.5"
       cy="32.5"
       transform="matrix(0.9182399,0,0,0.9182399,2.6572022,2.6572022)"
       rx="31.753139"
       ry="31.753309" />
    <path
       id="path13440"
       style="display:inline;fill:#ffffff;fill-opacity:1;stroke:none;stroke-width:15.1181;stroke-linecap:round;stroke-miterlimit:4;stroke-dasharray:none;paint-order:normal"
       d="M 121.01953 7.234375 C 108.35513 7.234375 99.246788 13.975172 93.986328 22.441406 C 89.281761 30.013039 87.325167 38.794381 86.943359 46.486328 C 72.586559 53.627651 56.682106 60.828729 43.876953 68.189453 C 37.160091 72.050535 31.302708 75.933512 26.894531 80.107422 C 22.486355 84.280387 19.234375 88.979298 19.234375 94.523438 C 19.234375 96.027321 19.701711 97.352793 20.373047 98.482422 L 19.445312 98.519531 L 19.234375 135.58398 C 19.234375 137.94318 20.380007 139.86653 21.669922 141.27734 C 22.961689 142.68815 24.508788 143.7837 26.271484 144.80664 C 29.011975 146.39724 32.316805 147.77898 35.945312 149.00977 C 26.916995 160.90883 19.234375 172.40369 19.234375 185.11719 C 19.234375 187.00455 19.21645 188.47882 19.380859 189.95898 C 19.535506 191.33231 19.921343 193.01764 21.15625 194.42383 L 19.445312 194.42383 L 19.445312 222.51562 C 19.307073 223.72615 19.234375 224.94576 19.234375 226.17773 C 19.234375 228.06509 19.216445 229.53937 19.380859 231.01953 C 19.547537 232.4997 19.969836 234.34643 21.449219 235.81055 C 22.929092 237.27514 24.739203 237.6687 26.214844 237.83008 C 27.690484 237.99282 29.177288 237.97461 31.083984 237.97461 L 83.404297 237.97461 C 87.202231 237.97461 89.982988 238.20602 92.84375 236.35547 C 95.705004 234.50585 96.748621 231.9798 98.787109 228.20508 L 98.828125 228.12891 L 98.865234 228.05078 C 98.865234 228.05078 103.42569 218.72337 108.86719 209.4668 C 111.58769 204.83898 114.54231 200.22897 117.11133 196.96289 C 117.89634 195.96568 118.6392 195.11753 119.30469 194.42383 L 122.73438 194.42383 C 123.39985 195.11753 124.14467 195.96568 124.92969 196.96289 C 127.49871 200.22897 130.45137 204.83898 133.17188 209.4668 C 138.61286 218.72337 143.17383 228.05078 143.17383 228.05078 L 143.21094 228.12891 L 143.25391 228.20312 C 145.29241 231.97785 146.32551 234.4909 149.16797 236.3457 C 152.0095 238.20004 154.78484 237.97266 158.5293 237.97266 L 211.07812 237.97266 C 212.95434 237.97266 214.41749 237.99356 215.88281 237.83008 C 217.34766 237.66639 219.16647 237.25825 220.63086 235.78516 C 222.09431 234.31207 222.49786 232.48334 222.66016 231.00977 L 223.0918 194.42383 L 220.89453 194.42383 C 222.13409 193.0071 222.50858 191.32546 222.66016 189.94922 C 222.82339 188.47613 222.80469 187.00454 222.80469 185.11719 C 222.80469 172.40368 215.12208 160.9073 206.09375 149.00781 C 209.72226 147.77754 213.02709 146.39687 215.76758 144.80664 C 217.53028 143.78369 219.0783 142.68815 220.36914 141.27734 C 221.66044 139.86654 222.80469 137.94319 222.80469 135.58398 L 222.73828 98.519531 L 221.66797 98.476562 C 222.33832 97.347753 222.80469 96.025655 222.80469 94.523438 C 222.80469 88.979298 219.55269 84.280383 215.14453 80.107422 C 210.73637 75.933493 204.87895 72.048582 198.16211 68.1875 C 185.35695 60.826776 169.45248 53.627167 155.0957 46.486328 C 154.71389 38.795318 152.75687 30.012084 148.05273 22.441406 C 142.79231 13.974693 133.68397 7.234375 121.01953 7.234375 z "
       transform="scale(0.26458333)" />
    <path
       id="rect9017-0"
       style="display:inline;fill:#000000;fill-opacity:0.60407239;stroke:#000000;stroke-width:15.1181;stroke-linecap:round;stroke-miterlimit:4;stroke-dasharray:none;paint-order:normal"
       d="m 221.66797,98.476562 c -0.38243,0.643964 -0.82976,1.227753 -1.29883,1.740238 -1.29084,1.4108 -2.83886,2.50634 -4.60156,3.52929 -3.52494,2.04543 -7.96895,3.75011 -12.85742,5.22461 -7.26236,2.19218 -15.39683,3.82215 -22.46875,4.51953 7.03439,12.19284 16.3964,23.39144 24.60156,34.1211 0.35748,0.46751 0.6971,0.93032 1.05078,1.39648 3.62851,-1.23027 6.93334,-2.61094 9.67383,-4.20117 1.7627,-1.02295 3.31072,-2.11849 4.60156,-3.5293 1.2913,-1.4108 2.43555,-3.33415 2.43555,-5.69336 l -0.0664,-37.064449 z m -201.294923,0.0059 -0.927735,0.03711 -0.210937,37.064449 c 0,2.3592 1.145632,4.28255 2.435547,5.69336 1.291767,1.41081 2.838866,2.50636 4.601562,3.5293 2.740491,1.5906 6.045322,2.97234 9.673828,4.20313 0.353683,-0.46615 0.693298,-0.929 1.050782,-1.39649 8.205618,-10.73014 17.567635,-21.92872 24.601562,-34.12109 -7.071912,-0.69691 -15.206388,-2.32736 -22.46875,-4.51953 -4.888477,-1.47498 -9.332483,-3.18067 -12.857422,-5.22657 -1.762696,-1.02294 -3.309795,-2.11849 -4.601562,-3.52929 -0.467651,-0.511487 -0.915062,-1.091918 -1.296875,-1.734378 z m 88.494143,69.923828 c -5.4415,9.25657 -10.001956,18.58398 -10.001956,18.58398 l -0.03711,0.0781 -0.04102,0.0762 c -2.038488,3.77472 -3.082105,6.30078 -5.943359,8.15039 -2.860762,1.85056 -5.641519,1.61914 -9.439453,1.61914 H 31.083984 c -1.906696,0 -3.3935,0.0182 -4.86914,-0.14453 -1.475641,-0.16138 -3.285752,-0.55493 -4.765625,-2.01953 -0.106782,-0.10568 -0.196899,-0.21678 -0.292969,-0.32617 h -1.710938 v 28.09179 c -0.138238,1.21053 -0.210937,2.43014 -0.210937,3.66211 0,1.88736 -0.01793,3.36164 0.146484,4.8418 0.166678,1.48017 0.588977,3.3269 2.06836,4.79102 1.479873,1.46459 3.289984,1.85815 4.765625,2.01953 1.47564,0.16274 2.962444,0.14453 4.86914,0.14453 h 52.320313 c 3.797934,0 6.578691,0.23141 9.439453,-1.61914 2.861254,-1.84962 3.904871,-4.37567 5.943359,-8.15039 l 0.04102,-0.0762 0.03711,-0.0781 c 0,0 4.560456,-9.32741 10.001956,-18.58398 2.7205,-4.62782 5.67512,-9.23783 8.24414,-12.50391 0.78501,-0.99721 1.52787,-1.84536 2.19336,-2.53906 h 3.42969 c 0.66546,0.6937 1.41029,1.54185 2.19531,2.53906 2.56902,3.26608 5.52168,7.87609 8.24219,12.50391 5.44097,9.25657 10.00195,18.58398 10.00195,18.58398 l 0.0371,0.0781 0.043,0.0742 c 2.0385,3.77473 3.0716,6.28778 5.91406,8.14258 2.84153,1.85434 5.61687,1.62696 9.36133,1.62696 h 52.54882 c 1.87622,0 3.33937,0.0209 4.80469,-0.14258 1.46485,-0.16369 3.28366,-0.57183 4.74805,-2.04492 1.46345,-1.47309 1.867,-3.30182 2.0293,-4.77539 l 0.43164,-36.58594 h -2.19727 c -0.0877,0.10019 -0.16701,0.20348 -0.26367,0.30078 -1.46439,1.47309 -3.2832,1.88123 -4.74805,2.04492 -1.46532,0.16347 -2.92847,0.14258 -4.80469,0.14258 H 158.5293 c -3.74446,0 -6.5198,0.22738 -9.36133,-1.62695 -2.84246,-1.85481 -3.87556,-4.36785 -5.91406,-8.14258 l -0.043,-0.0742 -0.0371,-0.0781 c 0,0 -4.56096,-9.32741 -10.00195,-18.58398 -12.75223,-21.02023 -11.90701,-21.01587 -24.30469,0 z"
       transform="scale(0.26458333)"
       sodipodi:nodetypes="cccccscccccccccccccccccccccccsscscccscscssccccscccccccccsscccccccsscccccc" />
    <path
       style="font-variation-settings:normal;opacity:1;fill:none;fill-opacity:1;stroke:#000000;stroke-width:4;stroke-linecap:butt;stroke-linejoin:miter;stroke-miterlimit:4;stroke-dasharray:none;stroke-dashoffset:0;stroke-opacity:1;stop-color:#000000;stop-opacity:1"
       d="M 24.964377,62.441663 V 50.866145"
       id="path13201" />
    <path
       style="font-variation-settings:normal;display:inline;fill:none;fill-opacity:1;stroke:#000000;stroke-width:4;stroke-linecap:butt;stroke-linejoin:miter;stroke-miterlimit:4;stroke-dasharray:none;stroke-dashoffset:0;stroke-opacity:1;stop-color:#000000"
       d="M 32.019785,51.761893 V 40.186375"
       id="path13201-0" />
    <path
       style="font-variation-settings:normal;display:inline;fill:none;fill-opacity:1;stroke:#000000;stroke-width:4;stroke-linecap:butt;stroke-linejoin:miter;stroke-miterlimit:4;stroke-dasharray:none;stroke-dashoffset:0;stroke-opacity:1;stop-color:#000000"
       d="M 38.932496,63.003903 V 51.428385"
       id="path13201-4" />
    <path
       fill="#000000"
       d="m 32.019695,2.1945327 c -3.35079,0 -5.76064,1.7836075 -7.15247,4.023632 -1.24475,2.0033277 -1.76264,4.3269963 -1.86366,6.3621573 -3.79857,1.889475 -8.00655,3.794427 -11.39458,5.741952 -1.7771697,1.021578 -3.3265996,2.049142 -4.4929296,3.153489 -1.16633,1.104097 -2.02686,2.347517 -2.02686,3.814404 0,0.624204 0.30281,1.132932 0.6441,1.506209 0.34178,0.373275 0.75132,0.663159 1.2177,0.933812 0.93264,0.541311 2.10852,0.992488 3.4019296,1.382743 1.9215,0.580012 4.07346,1.011214 5.94457,1.195605 -1.86106,3.225899 -4.3378,6.188882 -6.5088697,9.027898 -2.5089999,3.281079 -4.6994299,6.427704 -4.6994299,9.92326 0,0.499364 -0.005,0.889245 0.0385,1.280871 0.0441,0.391628 0.15587,0.880506 0.54729,1.267886 0.3915499,0.387508 0.87084,0.491626 1.26127,0.534325 0.3904299,0.04306 0.7837199,0.03794 1.2882,0.03794 H 22.067235 c 1.00487,0 1.74067,0.06142 2.49758,-0.428206 0.75704,-0.489377 1.03305,-1.157903 1.5724,-2.156631 l 0.0109,-0.01996 0.01,-0.02072 c 0,0 1.20666,-2.468113 2.64639,-4.917248 0.7198,-1.224444 1.50128,-2.443895 2.181,-3.308044 0.34004,-0.431955 0.65825,-0.774518 0.88734,-0.96802 0.07,-0.05892 0.10177,-0.06992 0.14694,-0.09488 0.0451,0.02498 0.0769,0.03597 0.14694,0.09488 0.22909,0.193502 0.5473,0.536065 0.88734,0.96802 0.67972,0.864149 1.4612,2.0836 2.181,3.308044 1.4396,2.449135 2.64639,4.917122 2.64639,4.917122 l 0.01,0.0206 0.0109,0.01996 c 0.539353,0.99873 0.812878,1.66326 1.564945,2.154011 0.751822,0.490627 1.486019,0.430703 2.476741,0.430703 h 13.903713 c 0.496416,0 0.883618,0.0053 1.271319,-0.03795 0.387575,-0.04331 0.868477,-0.151059 1.255929,-0.540814 0.387205,-0.389753 0.494432,-0.873512 0.537372,-1.263394 0.04319,-0.389754 0.03797,-0.779509 0.03797,-1.278872 0,-3.495559 -2.19043,-6.642181 -4.699435,-9.923385 -2.170948,-2.83889 -4.647686,-5.801876 -6.50887,-9.027898 1.871112,-0.184517 4.023072,-0.615467 5.94457,-1.195481 1.293408,-0.390128 2.46929,-0.841431 3.401931,-1.382616 0.466381,-0.270657 0.875924,-0.560539 1.217458,-0.933814 0.341657,-0.373276 0.644346,-0.882003 0.644346,-1.506209 0,-1.466887 -0.860537,-2.710304 -2.026863,-3.8144 -1.166327,-1.104352 -2.715761,-2.131922 -4.492926,-3.1535 C 49.042523,16.374489 44.834535,14.469413 41.03597,12.580066 40.934949,10.545153 40.41694,8.2212321 39.172305,6.2181569 37.780485,3.9780056 35.370635,2.1945235 32.019835,2.1945235 Z"
       id="path1081-9"
       style="display:inline;fill:none;stroke:#000000;stroke-width:3.99999;stroke-miterlimit:4;stroke-dasharray:none" />
    <path
       fill="#000000"
       d="m 32.019695,2.1945327 c -3.35079,0 -5.76064,1.7836075 -7.15247,4.023632 -1.24475,2.0033277 -1.76264,4.3269963 -1.86366,6.3621573 -3.79857,1.889475 -8.00655,3.794427 -11.39458,5.741952 -1.7771697,1.021578 -3.3265996,2.049142 -4.4929296,3.153489 -1.16633,1.104097 -2.02686,2.347517 -2.02686,3.814404 0,0.624204 0.30281,1.132932 0.6441,1.506209 0.34178,0.373275 0.75132,0.663159 1.2177,0.933812 0.93264,0.541311 2.10852,0.992488 3.4019296,1.382743 1.9215,0.580012 4.07346,1.011214 5.94457,1.195605 -1.86106,3.225899 -4.3378,6.188882 -6.5088697,9.027898 -2.5089999,3.281079 -4.6994299,6.427704 -4.6994299,9.92326 0,0.499364 -0.005,0.889245 0.0385,1.280871 0.0441,0.391628 0.15587,0.880506 0.54729,1.267886 0.3915499,0.387508 0.87084,0.491626 1.26127,0.534325 0.3904299,0.04306 0.7837199,0.03794 1.2882,0.03794 H 22.067235 c 1.00487,0 1.74067,0.06142 2.49758,-0.428206 0.75704,-0.489377 1.03305,-1.157903 1.5724,-2.156631 l 0.0109,-0.01996 0.01,-0.02072 c 0,0 1.20666,-2.468113 2.64639,-4.917248 0.7198,-1.224444 1.50128,-2.443895 2.181,-3.308044 0.34004,-0.431955 0.65825,-0.774518 0.88734,-0.96802 0.07,-0.05892 0.10177,-0.06992 0.14694,-0.09488 0.0451,0.02498 0.0769,0.03597 0.14694,0.09488 0.22909,0.193502 0.5473,0.536065 0.88734,0.96802 0.67972,0.864149 1.4612,2.0836 2.181,3.308044 1.4396,2.449135 2.64639,4.917122 2.64639,4.917122 l 0.01,0.0206 0.0109,0.01996 c 0.539353,0.99873 0.812878,1.66326 1.564945,2.154011 0.751822,0.490627 1.486019,0.430703 2.476741,0.430703 h 13.903713 c 0.496416,0 0.883618,0.0053 1.271319,-0.03795 0.387575,-0.04331 0.868477,-0.151059 1.255929,-0.540814 0.387205,-0.389753 0.494432,-0.873512 0.537372,-1.263394 0.04319,-0.389754 0.03797,-0.779509 0.03797,-1.278872 0,-3.495559 -2.19043,-6.642181 -4.699435,-9.923385 -2.170948,-2.83889 -4.647686,-5.801876 -6.50887,-9.027898 1.871112,-0.184517 4.023072,-0.615467 5.94457,-1.195481 1.293408,-0.390128 2.46929,-0.841431 3.401931,-1.382616 0.466381,-0.270657 0.875924,-0.560539 1.217458,-0.933814 0.341657,-0.373276 0.644346,-0.882003 0.644346,-1.506209 0,-1.466887 -0.860537,-2.710304 -2.026863,-3.8144 -1.166327,-1.104352 -2.715761,-2.131922 -4.492926,-3.1535 C 49.042523,16.374489 44.834535,14.469413 41.03597,12.580066 40.934949,10.545153 40.41694,8.2212321 39.172305,6.2181569 37.780485,3.9780056 35.370635,2.1945235 32.019835,2.1945235 Z"
       id="path967"
       style="display:inline;fill:#000000;stroke:none;stroke-width:3.99999;stroke-miterlimit:4;stroke-dasharray:none;fill-opacity:0.17873305" />
  </g>
</svg>
