<?xml version="1.0" encoding="UTF-8" standalone="no"?>
<!-- Created with Inkscape (http://www.inkscape.org/) -->

<svg
   width="65mm"
   height="65mm"
   viewBox="0 0 65 65"
   version="1.1"
   id="svg5"
   inkscape:version="1.1.1 (3bf5ae0d25, 2021-09-20)"
   sodipodi:docname="peeple-up.svg"
   xmlns:inkscape="http://www.inkscape.org/namespaces/inkscape"
   xmlns:sodipodi="http://sodipodi.sourceforge.net/DTD/sodipodi-0.dtd"
   xmlns="http://www.w3.org/2000/svg"
   xmlns:svg="http://www.w3.org/2000/svg">
  <sodipodi:namedview
     id="namedview7"
     pagecolor="#ffffff"
     bordercolor="#666666"
     borderopacity="1.0"
     inkscape:pageshadow="2"
     inkscape:pageopacity="0.0"
     inkscape:pagecheckerboard="0"
     inkscape:document-units="mm"
     showgrid="false"
     inkscape:zoom="2"
     inkscape:cx="107.75"
     inkscape:cy="130.25"
     inkscape:window-width="1920"
     inkscape:window-height="1017"
     inkscape:window-x="1912"
     inkscape:window-y="-8"
     inkscape:window-maximized="1"
     inkscape:current-layer="layer1" />
  <defs
     id="defs2">
    <filter
       inkscape:collect="always"
       style="color-interpolation-filters:sRGB"
       id="filter2033-07"
       x="-0.05171003"
       y="-0.051709754"
       width="1.1034201"
       height="1.1034195">
      <feGaussianBlur
         inkscape:collect="always"
         stdDeviation="1.3682965"
         id="feGaussianBlur2035-9" />
    </filter>
  </defs>
  <g
     inkscape:groupmode="layer"
     id="layer1"
     inkscape:label="all"
     style="display:inline">
    <ellipse
       style="display:inline;opacity:0.281437;mix-blend-mode:normal;fill:#000000;fill-opacity:1;stroke:none;stroke-width:8.71233;stroke-linecap:square;stroke-linejoin:bevel;paint-order:stroke fill markers;filter:url(#filter2033-07)"
       id="path873-7"
       cx="32.5"
       cy="32.5"
       transform="matrix(0.9182399,0,0,0.9182399,2.6572022,2.6572022)"
       rx="31.753139"
       ry="31.753309" />
    <path
       id="path6300"
       style="display:inline;fill:#ffffff;stroke:none;stroke-width:0;stroke-miterlimit:4;stroke-dasharray:none"
       d="M 121.01953 9.9550781 C 108.35513 9.9550781 99.246788 16.068841 93.986328 23.746094 C 89.281761 30.612109 87.325167 38.575663 86.943359 45.550781 C 72.586563 52.026586 56.682106 58.553753 43.876953 65.228516 C 37.160092 68.729772 31.302708 72.252177 26.894531 76.037109 C 22.755425 79.590213 19.67207 83.57324 19.306641 88.207031 C 19.153052 106.52515 19.230469 116.81222 19.230469 135.27344 L 22.986328 135.28711 C 20.699045 138.05342 19.234375 141.07482 19.234375 144.44141 C 19.234375 146.58074 20.380007 148.32418 21.669922 149.60352 C 22.773539 150.69651 24.07365 151.57578 25.525391 152.38867 C 21.722389 158.50254 19.234375 164.70256 19.234375 171.26172 L 19.355469 224.12109 C 19.278445 224.93965 19.234375 225.76232 19.234375 226.5918 C 19.234375 228.2562 19.220863 229.56582 19.371094 230.87109 L 19.371094 230.98242 C 19.537771 232.32465 19.96007 233.9985 21.439453 235.32617 C 22.182253 235.9928 23.008842 236.4139 23.833984 236.6875 C 24.652765 236.95899 25.470113 237.08531 26.205078 237.1582 C 26.20829 237.15852 26.211631 237.15788 26.214844 237.1582 C 26.580554 237.19461 26.9469 237.22328 27.320312 237.24219 C 27.323591 237.24236 27.326798 237.24202 27.330078 237.24219 C 27.703716 237.26098 28.084615 237.27237 28.478516 237.2793 C 28.481859 237.27936 28.484936 237.27924 28.488281 237.2793 C 29.28019 237.29307 30.124458 237.28906 31.074219 237.28906 C 31.077802 237.28906 31.080398 237.28906 31.083984 237.28906 L 83.394531 237.28906 L 83.404297 237.28906 C 84.35378 237.28906 85.238625 237.30141 86.078125 237.29492 C 86.914638 237.28833 87.703512 237.26192 88.464844 237.18359 C 88.878009 237.14134 89.282936 237.08194 89.681641 237.00391 C 89.99032 236.94323 90.294738 236.86895 90.597656 236.78125 C 90.661356 236.76287 90.725551 236.74431 90.789062 236.72461 C 91.072068 236.63653 91.354212 236.53281 91.634766 236.41602 C 92.037604 236.24872 92.44081 236.05863 92.84375 235.82227 C 92.909266 235.78386 92.961747 235.74023 93.025391 235.70117 C 93.262088 235.55583 93.488172 235.4067 93.701172 235.25195 C 93.797776 235.18182 93.892126 235.10927 93.984375 235.03711 C 94.168961 234.89259 94.344571 234.74286 94.513672 234.58984 C 96.211985 233.05459 97.204998 231.08631 98.787109 228.42969 L 98.828125 228.36133 L 98.865234 228.29102 C 98.865234 228.29102 99.158427 227.75621 99.384766 227.34375 C 99.534846 227.07162 99.885416 226.45157 100.23242 225.83008 C 101.95228 222.75605 105.14443 217.18014 108.86719 211.4375 C 111.58769 207.24096 114.54231 203.06132 117.11133 200.09961 C 118.39652 198.61917 119.59899 197.44639 120.46484 196.7832 C 120.72941 196.58126 120.84881 196.5426 121.01953 196.45703 C 121.18999 196.54264 121.3095 196.58126 121.57422 196.7832 C 122.44007 197.44639 123.6445 198.61917 124.92969 200.09961 C 127.49871 203.06132 130.45137 207.24096 133.17188 211.4375 C 136.30537 216.27159 139.02245 220.92486 140.86914 224.17383 C 140.86941 224.18038 140.87083 224.1868 140.87109 224.19336 C 142.22344 226.57304 143.16406 228.28906 143.16406 228.28906 L 143.20117 228.35938 L 143.24414 228.42969 C 145.28263 231.85264 146.31573 234.1286 149.1582 235.81055 C 149.87173 236.23279 150.58116 236.53456 151.30273 236.75195 C 152.02095 236.96833 152.75118 237.10076 153.50977 237.17969 C 153.88598 237.21883 154.27001 237.24631 154.66211 237.26367 C 155.06001 237.28144 155.46838 237.28944 155.88672 237.29297 C 156.71513 237.29979 157.58688 237.28711 158.51953 237.28711 L 211.06836 237.28711 C 211.07194 237.28711 211.07454 237.28711 211.07812 237.28711 C 212.48128 237.28711 213.65271 237.29711 214.76758 237.24023 C 214.77085 237.24007 214.77407 237.2404 214.77734 237.24023 C 215.14992 237.2211 215.51648 237.19525 215.88281 237.1582 C 217.34766 237.00974 219.16647 236.6405 220.63086 235.30469 C 221.86562 234.17763 222.33103 232.83182 222.54883 231.63281 C 222.56626 231.53724 222.58137 231.443 222.5957 231.34961 C 222.61459 231.22594 222.6457 231.09363 222.66016 230.97461 C 222.82339 229.6388 222.80469 228.30327 222.80469 226.5918 C 222.80469 225.71336 222.7542 224.84084 222.66797 223.97461 L 222.80469 171.26172 C 222.80469 164.7032 220.3179 158.50242 216.51562 152.38867 C 217.96689 151.57595 219.26661 150.69622 220.36914 149.60352 C 221.66044 148.32419 222.80469 146.58075 222.80469 144.44141 C 222.80469 141.34343 221.56728 138.53694 219.58789 135.95312 L 222.80859 135.96484 L 222.80859 87.517578 C 221.25566 82.769505 218.19953 78.696612 215.14453 76.037109 C 210.73637 72.252177 204.87895 68.729775 198.16211 65.228516 C 185.35695 58.553753 169.45248 52.026144 155.0957 45.550781 C 154.71389 38.576506 152.75687 30.611248 148.05273 23.746094 C 142.79232 16.068407 133.68397 9.9550781 121.01953 9.9550781 z "
       transform="scale(0.26458333)" />
    <path
       id="path2741"
       style="display:inline;fill:#000000;stroke:#000000;stroke-width:15.1181;stroke-miterlimit:4;stroke-dasharray:none;fill-opacity:0.45848379"
       d="M 121.01953 9.9550781 C 108.35513 9.9550781 99.246788 16.068841 93.986328 23.746094 C 89.281761 30.612109 87.325167 38.575663 86.943359 45.550781 C 72.586564 52.026586 56.682106 58.553753 43.876953 65.228516 C 37.160092 68.729772 31.302708 72.252177 26.894531 76.037109 C 22.755425 79.590213 19.67207 83.57324 19.306641 88.207031 C 19.153052 106.52515 19.230469 116.81222 19.230469 135.27344 L 22.986328 135.28711 C 24.114747 133.92237 25.438236 132.61926 26.894531 131.36914 C 31.302708 127.58421 37.160091 124.06181 43.876953 120.56055 C 56.682106 113.88578 72.58656 107.35667 86.943359 100.88086 C 87.325167 93.90574 89.281761 85.94219 93.986328 79.076172 C 99.246788 71.39892 108.35513 65.285156 121.01953 65.285156 C 133.68397 65.285156 142.79231 71.398485 148.05273 79.076172 C 152.75687 85.941328 154.71389 93.906583 155.0957 100.88086 C 169.45248 107.35622 185.35695 113.88383 198.16211 120.55859 C 204.87895 124.05985 210.73637 127.58223 215.14453 131.36719 C 216.83634 132.81948 218.35508 134.34388 219.58789 135.95312 L 222.80859 135.96484 L 222.80859 87.517578 C 221.25566 82.769505 218.19953 78.696612 215.14453 76.037109 C 210.73637 72.252177 204.87895 68.729775 198.16211 65.228516 C 185.35695 58.553753 169.45248 52.026144 155.0957 45.550781 C 154.71389 38.576506 152.75687 30.611248 148.05273 23.746094 C 142.79232 16.068407 133.68397 9.9550781 121.01953 9.9550781 z M 25.525391 152.38867 C 21.722389 158.50254 19.234375 164.70256 19.234375 171.26172 L 19.355469 224.12109 C 20.390916 213.11697 28.169815 203.04871 36.996094 192.58203 C 45.201712 182.85186 54.563729 172.69676 61.597656 161.64062 C 54.525744 161.00867 46.391268 159.53085 39.128906 157.54297 C 34.240429 156.20544 29.796423 154.65993 26.271484 152.80469 C 26.014743 152.66958 25.77289 152.52726 25.525391 152.38867 z M 216.51562 152.38867 C 216.26777 152.52748 216.02471 152.66742 215.76758 152.80273 C 212.24264 154.65754 207.79863 156.20393 202.91016 157.54102 C 195.6478 159.5289 187.51333 161.00627 180.44141 161.63867 C 187.4758 172.69523 196.83781 182.85033 205.04297 192.58008 C 213.83051 203.0012 221.57818 213.02696 222.66797 223.97461 L 222.80469 171.26172 C 222.80469 164.7032 220.3179 158.50242 216.51562 152.38867 z M 140.86914 224.17383 C 140.86941 224.18038 140.87083 224.1868 140.87109 224.19336 C 142.22344 226.57304 143.16406 228.28906 143.16406 228.28906 L 143.20117 228.35938 L 143.24414 228.42969 C 145.28263 231.85264 146.31573 234.1286 149.1582 235.81055 C 149.51497 236.02167 149.86982 236.20203 150.22656 236.35742 C 149.87327 236.20279 149.52135 236.02162 149.16797 235.8125 C 146.32551 234.13055 145.29241 231.85264 143.25391 228.42969 L 143.21094 228.36133 L 143.17383 228.29102 C 143.17383 228.29102 142.22905 226.56639 140.86914 224.17383 z M 100.23242 225.83008 C 99.848091 226.51702 99.597089 226.95683 99.384766 227.34375 C 99.534846 227.07162 99.885418 226.45157 100.23242 225.83008 z M 19.371094 230.87109 L 19.371094 230.98242 C 19.537771 232.32465 19.96007 233.9985 21.439453 235.32617 C 22.182253 235.9928 23.008842 236.4139 23.833984 236.6875 C 23.011673 236.41398 22.189156 235.99218 21.449219 235.32812 C 19.969836 234.00046 19.547537 232.32465 19.380859 230.98242 C 19.376338 230.94551 19.375342 230.90801 19.371094 230.87109 z M 23.833984 236.6875 C 24.245414 236.82392 24.656206 236.9233 25.056641 236.99805 C 24.656442 236.92371 24.24514 236.82426 23.833984 236.6875 z M 25.056641 236.99805 C 25.453107 237.07206 25.839426 237.12194 26.205078 237.1582 C 26.20829 237.15852 26.211631 237.15788 26.214844 237.1582 C 25.845933 237.12162 25.456839 237.07239 25.056641 236.99805 z M 222.5957 231.34961 C 222.58145 231.44291 222.56617 231.53732 222.54883 231.63281 C 222.56626 231.53724 222.58137 231.443 222.5957 231.34961 z M 94.513672 234.58984 C 94.344638 234.74265 94.168886 234.89278 93.984375 235.03711 C 94.168961 234.89259 94.344571 234.74286 94.513672 234.58984 z M 93.701172 235.25195 C 93.488274 235.40651 93.261961 235.556 93.025391 235.70117 C 93.262088 235.55583 93.488172 235.4067 93.701172 235.25195 z M 91.634766 236.41602 C 91.353649 236.53276 91.072664 236.63665 90.789062 236.72461 C 91.072068 236.63653 91.354212 236.53281 91.634766 236.41602 z M 90.597656 236.78125 C 90.294687 236.86865 89.990398 236.94348 89.681641 237.00391 C 89.99032 236.94323 90.294738 236.86895 90.597656 236.78125 z "
       transform="scale(0.26458333)" />
    <path
       style="font-variation-settings:normal;fill:none;fill-opacity:1;stroke:#000000;stroke-width:4;stroke-linecap:butt;stroke-linejoin:miter;stroke-miterlimit:4;stroke-dasharray:none;stroke-dashoffset:0;stroke-opacity:1;stop-color:#000000"
       d="M 41.03597,12.051711 V 26.691188"
       id="path1261" />
    <path
       style="font-variation-settings:normal;display:inline;fill:none;fill-opacity:1;stroke:#000000;stroke-width:4;stroke-linecap:butt;stroke-linejoin:miter;stroke-miterlimit:4;stroke-dasharray:none;stroke-dashoffset:0;stroke-opacity:1;stop-color:#000000"
       d="M 23.003565,12.051926 V 26.691403"
       id="path1261-3"
       sodipodi:nodetypes="cc" />
    <path
       fill="#000000"
       d="m 32.019695,17.273493 c -3.35079,0 -5.76064,1.61739 -7.15247,3.648663 -1.24475,1.816634 -1.76264,3.923758 -1.86366,5.769258 -3.79857,1.713391 -8.00655,3.440816 -11.39458,5.206847 -1.7771697,0.926375 -3.3265996,1.858179 -4.4929296,2.859609 -1.16633,1.001204 -2.02686,2.128747 -2.02686,3.458932 0,0.566033 0.30281,1.027351 0.6441,1.365843 0.34178,0.338489 0.75132,0.601356 1.2177,0.846787 0.93264,0.490866 2.10852,0.899996 3.4019296,1.253883 1.9215,0.525959 4.07346,0.916976 5.94457,1.084184 -1.86106,2.92527 -4.3378,5.612127 -6.5088697,8.186569 -2.5089999,2.975309 -4.6994299,5.828693 -4.6994299,8.998491 0,0.452827 -0.005,0.806374 0.0385,1.161505 0.0441,0.35513 0.15587,0.798449 0.54729,1.149729 0.3915499,0.351395 0.87084,0.44581 1.26127,0.484529 0.3904299,0.03906 0.7837199,0.03441 1.2882,0.03441 H 22.067235 c 1.00487,0 1.74067,0.0557 2.49758,-0.388301 0.75704,-0.44377 1.03305,-1.049995 1.5724,-1.95565 l 0.0109,-0.0181 0.01,-0.01879 c 0,0 1.20666,-2.238104 2.64639,-4.459 0.7198,-1.110335 1.50128,-2.216143 2.181,-2.999761 0.34004,-0.391699 0.65825,-0.702339 0.88734,-0.877808 0.07,-0.05343 0.10177,-0.0634 0.14694,-0.08604 0.0451,0.02265 0.0769,0.03261 0.14694,0.08604 0.22909,0.175469 0.5473,0.486109 0.88734,0.877808 0.67972,0.783618 1.4612,1.889426 2.181,2.999761 1.4396,2.220896 2.64639,4.458885 2.64639,4.458885 l 0.01,0.01868 0.0109,0.0181 c 0.539353,0.905657 0.812878,1.508258 1.564945,1.953275 0.751822,0.444904 1.486019,0.390565 2.476741,0.390565 h 13.903713 c 0.496416,0 0.883618,0.0048 1.271319,-0.03441 0.387575,-0.03928 0.868477,-0.136981 1.255929,-0.490414 0.387205,-0.353432 0.494432,-0.792109 0.537372,-1.145656 0.04319,-0.353432 0.03797,-0.706865 0.03797,-1.159692 0,-3.1698 -2.19043,-6.023182 -4.699435,-8.998603 -2.170948,-2.574329 -4.647686,-5.261188 -6.50887,-8.18657 1.871112,-0.167322 4.023072,-0.558111 5.94457,-1.084072 1.293408,-0.353771 2.46929,-0.763016 3.401931,-1.253767 0.466381,-0.245434 0.875924,-0.508301 1.217458,-0.84679 0.341657,-0.338489 0.644346,-0.799807 0.644346,-1.365843 0,-1.330185 -0.860537,-2.457725 -2.026863,-3.458928 C 55.757154,33.756214 54.20772,32.824406 52.430555,31.898031 49.042523,30.132 44.834535,28.404461 41.03597,26.691188 40.934949,24.845911 40.41694,22.73856 39.172305,20.922154 37.780485,18.890766 35.370635,17.27349 32.019835,17.27349 Z"
       id="path1081-9"
       style="display:inline;fill:none;stroke:#000000;stroke-width:3.99999;stroke-miterlimit:4;stroke-dasharray:none" />
  </g>
</svg>
