<?xml version="1.0" encoding="UTF-8" standalone="no"?>
<!-- Created with Inkscape (http://www.inkscape.org/) -->

<svg
   width="65mm"
   height="65mm"
   viewBox="0 0 65 65"
   version="1.1"
   id="svg5"
   inkscape:version="1.1.1 (3bf5ae0d25, 2021-09-20)"
   sodipodi:docname="ruler.svg"
   xmlns:inkscape="http://www.inkscape.org/namespaces/inkscape"
   xmlns:sodipodi="http://sodipodi.sourceforge.net/DTD/sodipodi-0.dtd"
   xmlns="http://www.w3.org/2000/svg"
   xmlns:svg="http://www.w3.org/2000/svg">
  <sodipodi:namedview
     id="namedview7"
     pagecolor="#ffffff"
     bordercolor="#666666"
     borderopacity="1.0"
     inkscape:pageshadow="2"
     inkscape:pageopacity="0.0"
     inkscape:pagecheckerboard="0"
     inkscape:document-units="mm"
     showgrid="false"
     inkscape:zoom="0.76435188"
     inkscape:cx="136.06299"
     inkscape:cy="-63.45245"
     inkscape:window-width="1920"
     inkscape:window-height="1017"
     inkscape:window-x="1912"
     inkscape:window-y="-8"
     inkscape:window-maximized="1"
     inkscape:current-layer="layer6" />
  <defs
     id="defs2">
	

		
	
			
			
			
		</defs>
  <g
     inkscape:groupmode="layer"
     id="layer6"
     inkscape:label="dice"
     style="display:inline">
    <path
       d="m -193.41538,25.566298 c -0.10583,0.211667 -0.0353,0.493889 0.17639,0.599722 0.52916,0.352778 0.88194,-0.105833 0.42333,-0.564444 -0.24694,-0.246945 -0.45861,-0.246945 -0.59972,-0.03528 z"
       id="path968"
       style="fill:#000000;stroke:none;stroke-width:0.0352778" />
    <path
       d="m -210.91316,-5.4428706 c 0,0.2116667 0.14111,0.4586112 0.35278,0.5644445 0.21166,0.1058333 0.24694,-0.035278 0.14111,-0.3175 -0.24695,-0.6350001 -0.49389,-0.7408334 -0.49389,-0.2469445 z"
       id="path970"
       style="fill:#000000;stroke:none;stroke-width:0.0352778" />
    <path
       id="path1023"
       style="fill:#000000;stroke-width:0.128899"
       d="M 49.230847,5.0783301 C 48.751781,5.106918 48.368218,5.4271722 48.063702,5.7706022 33.86764,19.968551 19.667688,34.16284 5.4740578,48.363077 c -0.5453388,0.544987 -0.5199105,1.518928 0.046921,2.039581 3.0567652,3.05187 6.1040192,6.113803 9.1667202,9.159394 0.559105,0.515812 1.512799,0.458923 2.016272,-0.107977 14.273504,-14.275392 28.550899,-28.547124 42.821972,-42.824803 0.54534,-0.544987 0.519909,-1.518928 -0.04692,-2.039581 -3.056765,-3.05187 -6.10402,-6.1138022 -9.16672,-9.1593927 C 50.020434,5.1700926 49.619394,5.0435059 49.230847,5.0783301 Z M 56.429212,15.634066 C 42.832106,29.231173 29.234999,42.82828 15.637892,56.425387 13.28219,54.069685 10.926489,51.713984 8.5707878,49.358283 9.8631761,48.0657 11.155564,46.773117 12.447953,45.480534 c 1.215474,1.2149 2.4302,2.43055 3.646145,3.644979 0.682458,-0.681489 1.364436,-1.363466 2.045924,-2.045925 -1.214428,-1.215945 -2.430078,-2.430671 -3.644978,-3.646145 1.748205,-1.748205 3.49641,-3.49641 5.244615,-5.244615 1.215287,1.215087 2.429775,2.430975 3.645562,3.645561 0.682653,-0.681683 1.364825,-1.363854 2.046508,-2.046508 -1.214428,-1.215944 -2.430079,-2.43067 -3.644978,-3.646145 2.051953,-2.051953 4.103906,-4.103906 6.15586,-6.15586 1.215474,1.2149 2.4302,2.43055 3.646145,3.644979 0.682459,-0.68149 1.364436,-1.363466 2.045925,-2.045925 -1.214429,-1.215945 -2.430079,-2.430671 -3.644979,-3.646145 2.051954,-2.051953 4.103907,-4.103907 6.15586,-6.15586 1.215475,1.2149 2.4302,2.43055 3.646145,3.644978 0.682653,-0.681683 1.364825,-1.363854 2.046508,-2.046508 -1.214586,-1.215787 -2.430473,-2.430275 -3.645561,-3.645562 1.748205,-1.748205 3.49641,-3.49641 5.244615,-5.244615 1.215474,1.2149 2.4302,2.43055 3.646145,3.644979 0.682459,-0.68149 1.364436,-1.363466 2.045925,-2.045925 -1.214429,-1.215945 -2.430079,-2.430671 -3.644979,-3.646145 1.292583,-1.292389 2.585166,-2.5847768 3.877749,-3.8771651 2.355701,2.3557011 4.711402,4.7114031 7.067103,7.0671041 z" />
  </g>
</svg>
