<?xml version="1.0" encoding="UTF-8" standalone="no"?>
<!-- Created with Inkscape (http://www.inkscape.org/) -->

<svg
   width="65mm"
   height="65mm"
   viewBox="0 0 65 65"
   version="1.1"
   id="svg5"
   inkscape:version="1.1.1 (3bf5ae0d25, 2021-09-20)"
   sodipodi:docname="scissors.svg"
   xmlns:inkscape="http://www.inkscape.org/namespaces/inkscape"
   xmlns:sodipodi="http://sodipodi.sourceforge.net/DTD/sodipodi-0.dtd"
   xmlns="http://www.w3.org/2000/svg"
   xmlns:svg="http://www.w3.org/2000/svg">
  <sodipodi:namedview
     id="namedview7"
     pagecolor="#ffffff"
     bordercolor="#666666"
     borderopacity="1.0"
     inkscape:pageshadow="2"
     inkscape:pageopacity="0.0"
     inkscape:pagecheckerboard="0"
     inkscape:document-units="mm"
     showgrid="false"
     inkscape:zoom="1.0809568"
     inkscape:cx="-291.4085"
     inkscape:cy="153.1051"
     inkscape:window-width="1920"
     inkscape:window-height="1017"
     inkscape:window-x="1912"
     inkscape:window-y="-8"
     inkscape:window-maximized="1"
     inkscape:current-layer="layer6" />
  <defs
     id="defs2">
    <marker
       refX="0"
       refY="0"
       orient="auto"
       id="Scissors"
       style="overflow:visible">
      <path
         d="M 9.0898857,-3.6061018 C 8.1198849,-4.7769976 6.3697607,-4.7358294 5.0623558,-4.2327734 l -8.2124046,3.0779029 c -2.3882933,-1.3067135 -4.7482873,-0.9325372 -4.7482873,-1.5687873 0,-0.4973164 0.4566662,-0.3883222 0.3883068,-1.6831941 -0.065635,-1.2432767 -1.3635771,-2.1630796 -2.5903987,-2.0816435 -1.227271,-0.00735 -2.499439,0.9331613 -2.510341,2.2300611 -0.09143,1.3063864 1.007209,2.5196896 2.306764,2.6052316 1.5223406,0.2266616 4.218258,-0.6955566 5.482945,1.57086006 -0.9422847,1.73825774 -2.6140244,1.74307674 -4.1255107,1.65607034 -1.2548743,-0.072235 -2.7620933,0.2873979 -3.3606483,1.5208605 -0.578367,1.1820862 -0.0112,2.8646022 1.316749,3.226412 1.3401912,0.4918277 3.1806689,-0.129711 3.4993722,-1.6707242 0.2456585,-1.187823 -0.5953659,-1.7459574 -0.2725074,-2.1771537 0.2436135,-0.32536 1.7907806,-0.1368452 4.5471053,-1.3748244 L 5.6763468,4.2330688 C 6.8000164,4.5467672 8.1730685,4.5362646 9.1684433,3.4313614 L -0.05164093,-0.05372222 9.0898857,-3.6061018 z m -18.3078016,-1.900504 c 1.294559,0.7227998 1.1888392,2.6835702 -0.1564272,3.0632889 -1.2165179,0.423661 -2.7710269,-0.7589694 -2.3831779,-2.0774648 0.227148,-1.0818519 1.653387,-1.480632 2.5396051,-0.9858241 z m 0.056264,8.0173649 c 1.3508301,0.4988648 1.1214429,2.7844356 -0.2522207,3.091609 -0.9110594,0.3163391 -2.2135494,-0.1387976 -2.3056964,-1.2121394 -0.177609,-1.305055 1.356085,-2.4841482 2.5579171,-1.8794696 z"
         id="schere"
         style="marker-start:none" />
    </marker>
  </defs>
  <g
     inkscape:groupmode="layer"
     id="layer6"
     inkscape:label="dice"
     style="display:inline">
    <path
       d="m -193.41538,25.566298 c -0.10583,0.211667 -0.0353,0.493889 0.17639,0.599722 0.52916,0.352778 0.88194,-0.105833 0.42333,-0.564444 -0.24694,-0.246945 -0.45861,-0.246945 -0.59972,-0.03528 z"
       id="path968"
       style="fill:#000000;stroke:none;stroke-width:0.0352778" />
    <path
       d="m -210.91316,-5.4428706 c 0,0.2116667 0.14111,0.4586112 0.35278,0.5644445 0.21166,0.1058333 0.24694,-0.035278 0.14111,-0.3175 -0.24695,-0.6350001 -0.49389,-0.7408334 -0.49389,-0.2469445 z"
       id="path970"
       style="fill:#000000;stroke:none;stroke-width:0.0352778" />
    <path
       d="m -165.93399,51.742411 c 0.35278,0.388055 0.70556,0.705555 0.81139,0.705555 0.10583,0 -0.10583,-0.3175 -0.45861,-0.705555 -0.35278,-0.388056 -0.70556,-0.705556 -0.81139,-0.705556 -0.10583,0 0.10583,0.3175 0.45861,0.705556 z"
       id="path972"
       style="fill:#000000;stroke:none;stroke-width:0.0352778" />
    <path
       d="M 23.099832,4.7414462 C 20.098843,7.2425005 20.217889,11.738729 21.520284,15.093992 l 7.9702,21.076534 c -3.339177,6.146073 -2.359934,12.206695 -3.994617,12.21151 -1.277736,0.0044 -1.001179,-1.170362 -4.327521,-0.984903 -3.193822,0.17817 -5.547201,3.519796 -5.328674,6.671214 -0.0096,3.153235 2.416494,6.414642 5.748654,6.432831 3.357143,0.224988 6.466131,-2.606906 6.676047,-5.946453 0.570833,-3.913018 -1.81904,-10.832554 3.9944,-14.09906 4.473183,2.40781 4.498247,6.702909 4.286172,10.58699 -0.176068,3.224656 0.759346,7.094379 3.932969,8.622875 3.041483,1.477015 7.360006,0.0066 8.279524,-3.407554 1.253482,-3.44704 -0.357371,-8.170993 -4.319052,-8.978142 -3.053703,-0.622172 -4.481314,1.542899 -5.591643,0.716641 -0.837782,-0.623441 -0.36515,-4.599956 -3.566856,-11.672272 L 43.266551,13.452334 C 44.063986,10.562961 44.026612,7.035285 41.180278,4.4862737 L 32.296058,28.201561 23.099734,4.7414681 Z M 18.355733,51.793486 c 1.847248,-3.331558 6.885791,-3.074788 7.871574,0.378687 1.097658,3.122351 -1.928971,7.125263 -5.319485,6.138763 -2.781287,-0.575397 -3.816684,-4.236766 -2.552089,-6.51745 z m 20.598323,-0.205312 c 1.271466,-3.474422 7.145457,-2.902396 7.94507,0.62458 0.819586,2.338381 -0.339814,5.68826 -3.096827,5.933145 -3.35169,0.466218 -6.392709,-3.465317 -4.848243,-6.557725 z"
       id="path4599"
       style="stroke-width:1.17382;marker-start:none;fill:#000000;fill-opacity:1" />
  </g>
</svg>
