<?xml version="1.0" encoding="UTF-8" standalone="no"?>
<!-- Created with Inkscape (http://www.inkscape.org/) -->

<svg
   width="65mm"
   height="65mm"
   viewBox="0 0 65 65"
   version="1.1"
   id="svg5"
   inkscape:version="1.1.2 (0a00cf5339, 2022-02-04)"
   sodipodi:docname="stamp.svg"
   xmlns:inkscape="http://www.inkscape.org/namespaces/inkscape"
   xmlns:sodipodi="http://sodipodi.sourceforge.net/DTD/sodipodi-0.dtd"
   xmlns="http://www.w3.org/2000/svg"
   xmlns:svg="http://www.w3.org/2000/svg">
  <sodipodi:namedview
     id="namedview7"
     pagecolor="#ffffff"
     bordercolor="#666666"
     borderopacity="1.0"
     inkscape:pageshadow="2"
     inkscape:pageopacity="0.0"
     inkscape:pagecheckerboard="0"
     inkscape:document-units="mm"
     showgrid="false"
     inkscape:zoom="0.76435188"
     inkscape:cx="136.06299"
     inkscape:cy="41.865534"
     inkscape:window-width="1298"
     inkscape:window-height="708"
     inkscape:window-x="68"
     inkscape:window-y="28"
     inkscape:window-maximized="1"
     inkscape:current-layer="layer6" />
  <defs
     id="defs2">
	
	
</defs>
  <g
     inkscape:groupmode="layer"
     id="layer6"
     inkscape:label="dice"
     style="display:inline">
    <path
       d="m -193.41538,25.566298 c -0.10583,0.211667 -0.0353,0.493889 0.17639,0.599722 0.52916,0.352778 0.88194,-0.105833 0.42333,-0.564444 -0.24694,-0.246945 -0.45861,-0.246945 -0.59972,-0.03528 z"
       id="path968"
       style="fill:#000000;stroke:none;stroke-width:0.0352778" />
    <path
       d="m -210.91316,-5.4428706 c 0,0.2116667 0.14111,0.4586112 0.35278,0.5644445 0.21166,0.1058333 0.24694,-0.035278 0.14111,-0.3175 -0.24695,-0.6350001 -0.49389,-0.7408334 -0.49389,-0.2469445 z"
       id="path970"
       style="fill:#000000;stroke:none;stroke-width:0.0352778" />
    <g
       id="g1023"
       transform="matrix(0.40324715,0,0,0.40324715,11.003827,52.041977)"
       style="stroke-width:2.47987">
      <path
         class="st0"
         d="m 112.43571,-32.32804 c -1.05728,-2.497402 -2.81173,-4.607189 -5.02417,-6.104996 -2.21245,-1.495425 -4.90167,-2.373577 -7.764731,-2.373577 0,0 -4.589463,0 -8.455025,0 -3.706548,0 -8.237802,0 -11.841427,0 -1.801283,0 -3.373702,0 -4.492625,0 -0.692679,0 -1.210204,0 -1.505744,0 -0.204523,-0.03043 -0.383116,-0.07937 -0.546629,-0.147373 -0.339989,-0.149489 -0.675216,-0.383116 -1.066535,-0.852752 -0.289719,-0.350573 -0.594519,-0.83185 -0.87974,-1.462352 -0.431006,-0.93927 -0.810683,-2.203185 -1.067593,-3.735916 -0.258234,-1.534848 -0.40058,-3.33375 -0.40058,-5.347759 -0.0011,-3.76846 0.4953,-8.272991 1.526646,-13.244512 0.963877,-4.661164 2.449513,-8.994775 3.761581,-13.338175 0.652992,-2.172758 1.262857,-4.347898 1.712384,-6.574366 0.45085,-2.224088 0.745331,-4.504267 0.745331,-6.856942 0,-3.280304 -0.667015,-6.422496 -1.874838,-9.27735 -1.811866,-4.28016 -4.826793,-7.91078 -8.628062,-10.47829 -3.799417,-2.57017 -8.403166,-4.07459 -13.325739,-4.07247 -3.280304,0 -6.422496,0.66596 -9.275234,1.87378 -4.281222,1.81319 -7.912099,4.82706 -10.479616,8.62806 -2.570163,3.79889 -4.073525,8.403697 -4.072202,13.32627 0,2.352675 0.293158,4.632854 0.74295,6.856942 0.679714,3.338512 1.704446,6.565106 2.719387,9.835885 1.017588,3.268398 2.031471,6.579129 2.756694,10.076656 1.03161,4.971521 1.52691,9.476052 1.524529,13.244512 0.0024,2.044171 -0.144727,3.871119 -0.412221,5.420255 -0.198437,1.161256 -0.466195,2.165879 -0.775758,2.990585 -0.231246,0.619125 -0.483658,1.132946 -0.738187,1.544108 -0.383117,0.619125 -0.755915,0.993246 -1.085321,1.219729 -0.297921,0.2032 -0.570971,0.313002 -0.939007,0.371475 -1.720849,0 -11.13737,0 -17.848262,0 -1.93331,0 -4.047596,0 -5.6771643,0 -1.6308917,0 -2.7757437,0 -2.7791833,0 -1.9060583,0 -3.74015,0.389996 -5.4035854,1.09564 -2.49634367,1.055952 -4.6071895,2.810669 -6.1036728,5.023114 -1.4964833,2.210065 -2.3738416,4.901671 -2.3738416,7.763405 V 1.0224244 H -3.2575856 113.52685 V -26.92419 c 0.002,-1.906587 -0.38788,-3.740414 -1.09114,-5.40385 z M 36.789483,-92.36676 c 0,-2.291821 0.460375,-4.455319 1.2954,-6.429639 1.252008,-2.960161 3.350154,-5.490101 5.989108,-7.272871 2.641071,-1.78038 5.799931,-2.81781 9.234223,-2.81781 2.29182,0 4.45426,0.46038 6.429639,1.29434 2.960158,1.25228 5.490369,3.3528 7.271808,5.99017 1.78144,2.642394 2.817548,5.801254 2.818871,9.235546 0,1.74281 -0.218546,3.53007 -0.599281,5.406231 -0.566473,2.815166 -1.508125,5.829035 -2.532592,9.113837 -1.022085,3.287448 -2.121429,6.845565 -2.934229,10.765631 -1.113366,5.373688 -1.677458,10.333567 -1.678781,14.728296 0.0011,2.3876 0.168275,4.611687 0.518583,6.658504 0.265113,1.534848 0.635529,2.974181 1.133211,4.310327 0.325966,0.869156 0.720725,1.686983 1.169193,2.464858 H 41.712055 c 0.24765,-0.429948 0.488421,-0.864393 0.697442,-1.322387 0.760413,-1.672696 1.279261,-3.527954 1.621367,-5.548842 0.341048,-2.020887 0.502179,-4.212166 0.502179,-6.56246 -0.0024,-4.394729 -0.564092,-9.354608 -1.677458,-14.728296 -1.08638,-5.22605 -2.672821,-9.812337 -3.919009,-13.961798 -0.626268,-2.074597 -1.170516,-4.039393 -1.550193,-5.91767 -0.378619,-1.875632 -0.5969,-3.663156 -0.5969,-5.405967 z M 106.21985,-6.2853672 H 0.3955164 V -26.92419 c 0,-0.918104 0.18441458,-1.773237 0.51646666,-2.555875 0.49424164,-1.177396 1.33508744,-2.186516 2.38416034,-2.896923 1.0548938,-0.710141 2.3000229,-1.119187 3.6737396,-1.121568 0.0037,0 1.1482916,0 2.7791833,0 1.6293037,0 3.7438537,0 5.6771647,0 5.704152,0 13.342937,0 16.569266,0 0.965994,0 1.553634,0 1.553634,0 h 0.203464 39.110973 0.205581 c 0,0 0.668073,0 1.788583,0 0.49874,0 1.108604,0 1.767417,0 3.775604,0 9.833504,0 14.5669,0 3.865562,0 8.455024,0 8.455024,0 0.918107,0.0024 1.774297,0.184679 2.558517,0.516466 1.17528,0.4953 2.18546,1.334029 2.89455,2.385219 0.7104,1.053835 1.12024,2.298964 1.12024,3.672681 v 20.6388228 z"
         id="path1004"
         style="stroke-width:0.656131" />
      <rect
         x="2.5682738"
         y="9.2303295"
         class="st0"
         width="101.48147"
         height="10.041467"
         id="rect1006"
         style="stroke-width:0.656131" />
    </g>
  </g>
  <style
     type="text/css"
     id="style1002">
	.st0{fill:#000000;}
</style>
</svg>
