<?xml version="1.0" encoding="UTF-8" standalone="no"?>
<!-- Created with Inkscape (http://www.inkscape.org/) -->

<svg
   width="65mm"
   height="65mm"
   viewBox="0 0 65 65"
   version="1.1"
   id="svg5"
   inkscape:version="1.1.1 (3bf5ae0d25, 2021-09-20)"
   sodipodi:docname="token.svg"
   xmlns:inkscape="http://www.inkscape.org/namespaces/inkscape"
   xmlns:sodipodi="http://sodipodi.sourceforge.net/DTD/sodipodi-0.dtd"
   xmlns="http://www.w3.org/2000/svg"
   xmlns:svg="http://www.w3.org/2000/svg">
  <sodipodi:namedview
     id="namedview7"
     pagecolor="#ffffff"
     bordercolor="#666666"
     borderopacity="1.0"
     inkscape:pageshadow="2"
     inkscape:pageopacity="0.0"
     inkscape:pagecheckerboard="0"
     inkscape:document-units="mm"
     showgrid="false"
     inkscape:zoom="3.0574074"
     inkscape:cx="95.832829"
     inkscape:cy="134.59116"
     inkscape:window-width="1920"
     inkscape:window-height="1017"
     inkscape:window-x="1912"
     inkscape:window-y="-8"
     inkscape:window-maximized="1"
     inkscape:current-layer="layer6" />
  <defs
     id="defs2" />
  <g
     inkscape:groupmode="layer"
     id="layer6"
     inkscape:label="token"
     style="display:inline">
    <g
       transform="matrix(0.0070809,0,0,-0.0072545,10.280189,65.194923)"
       fill="#000000"
       stroke="none"
       id="g887"
       style="stroke-width:558.09999466;stroke-miterlimit:4;stroke-dasharray:none">
      <path
         d="m 2842.3433,8428.3182 c -456.606,-62.9802 -830.9879,-325.3974 -1035.6734,-726.021 -98.8438,-192.4393 -145.2042,-387.5028 -145.2042,-610.5575 0,-305.2787 88.3472,-569.4454 271.1645,-810.8692 33.2395,-42.8615 71.7274,-90.0966 86.5977,-104.0922 14.8703,-14.8703 27.1164,-28.8659 27.1164,-31.49 0,-3.4989 -32.3648,-10.4967 -71.7273,-16.6198 -216.9316,-32.3648 -497.7181,-111.09 -621.0542,-174.9448 -197.6876,-101.468 -258.9183,-211.6833 -184.5668,-331.5205 74.3516,-121.5866 344.6413,-236.1755 712.0255,-303.5292 l 84.8482,-15.7451 13.1209,-88.3471 c 69.1032,-441.7357 42.8615,-810.8693 -82.2241,-1137.1413 -65.6043,-172.3207 -186.3162,-374.382 -316.6501,-530.0829 -81.3494,-97.9691 -264.1667,-279.9117 -443.4851,-441.7356 -375.25669,-338.5183 -523.08506,-508.2147 -617.55527,-707.6518 -34.11424,-72.6021 -82.22406,-216.9316 -82.22406,-247.547 0,-6.123 -8.74725,-24.4922 -19.24393,-38.4878 l -20.11866,-27.1165 1.74945,-406.7467 C 401.863,1224.0904 401.863,1222.341 461.34424,1142.7411 780.61854,718.49987 2491.5789,473.57712 4101.946,622.28022 c 335.0193,30.61535 699.7793,90.09658 959.5723,156.57562 453.1071,116.3383 705.0277,249.29636 788.1265,415.49396 l 23.6175,48.1098 2.6242,402.3731 2.6242,401.4984 -32.3648,92.7207 c -108.4658,311.4018 -248.4217,489.8455 -707.6518,899.2164 -475.85,425.9907 -660.4167,642.0475 -808.2451,949.0757 -106.7164,221.3052 -158.3251,400.6236 -195.0635,679.6606 -18.3692,144.3295 -11.3714,628.9266 9.622,663.9156 3.4989,5.2484 43.7362,20.1187 89.2218,31.4901 381.3797,101.468 565.9465,233.5513 537.9554,384.0039 -20.1187,104.0921 -159.1998,202.936 -399.749,279.9117 -101.468,33.2395 -282.5359,76.9757 -394.5005,96.2196 l -33.2396,6.1231 62.9802,71.7274 c 410.2456,472.351 451.3576,1136.2666 100.5933,1654.978 -69.978,103.2174 -239.6745,272.9139 -342.8919,342.8918 -153.9514,104.0922 -325.3974,176.6943 -504.7158,212.558 -102.3427,20.9934 -325.3974,30.6153 -418.1181,17.4945 z"
         id="path883"
         style="fill:#ffffff;stroke:#000000;stroke-width:558.09999466;stroke-miterlimit:4;stroke-dasharray:none" />
    </g>
  </g>
</svg>
