<?xml version="1.0" encoding="UTF-8" standalone="no"?>
<!-- Created with Inkscape (http://www.inkscape.org/) -->

<svg
   width="65mm"
   height="65mm"
   viewBox="0 0 65 65"
   version="1.1"
   id="svg5"
   inkscape:version="1.1.1 (3bf5ae0d25, 2021-09-20)"
   sodipodi:docname="tray.svg"
   xmlns:inkscape="http://www.inkscape.org/namespaces/inkscape"
   xmlns:sodipodi="http://sodipodi.sourceforge.net/DTD/sodipodi-0.dtd"
   xmlns="http://www.w3.org/2000/svg"
   xmlns:svg="http://www.w3.org/2000/svg">
  <sodipodi:namedview
     id="namedview7"
     pagecolor="#ffffff"
     bordercolor="#666666"
     borderopacity="1.0"
     inkscape:pageshadow="2"
     inkscape:pageopacity="0.0"
     inkscape:pagecheckerboard="0"
     inkscape:document-units="mm"
     showgrid="false"
     inkscape:zoom="1.5287037"
     inkscape:cx="154.37916"
     inkscape:cy="163.86433"
     inkscape:window-width="1920"
     inkscape:window-height="1017"
     inkscape:window-x="1912"
     inkscape:window-y="-8"
     inkscape:window-maximized="1"
     inkscape:current-layer="layer6" />
  <defs
     id="defs2" />
  <g
     inkscape:groupmode="layer"
     id="layer6"
     inkscape:label="tray"
     style="display:inline">
    <path
       id="path835"
       style="fill:#000000;stroke-width:0.999999"
       d="M 64.296875 96.056641 L 5.7597656 154.59375 L 5.7597656 198.49609 A 43.902758 43.902758 0 0 0 49.664062 242.39844 L 196.00586 242.39844 A 43.902758 43.902758 0 0 0 239.9082 198.49609 L 239.9082 154.59375 L 187.64648 102.33203 L 187.64648 143.08984 L 186.00195 143.08984 L 210.64062 169.22656 L 166.73828 169.22656 L 166.73828 183.86133 C 166.73828 191.95407 160.19626 198.49609 152.10352 198.49609 L 93.566406 198.49609 A 14.634252 14.634252 0 0 1 78.931641 183.86133 L 78.931641 169.22656 L 35.029297 169.22656 L 64.564453 137.90625 L 64.564453 96.056641 L 64.296875 96.056641 z "
       transform="scale(0.26458333)" />
    <rect
       style="fill:none;stroke:#000000;stroke-width:4;stroke-linecap:square;stroke-linejoin:round;stroke-miterlimit:4;stroke-dasharray:none;paint-order:stroke fill markers"
       id="rect1012"
       width="32.565533"
       height="32.565533"
       x="17.082619"
       y="5.2935157" />
    <circle
       style="display:inline;fill:#000000;stroke:none;stroke-width:0.999999"
       id="path55-9-3-48"
       cx="24.469097"
       cy="12.813718"
       r="2.6646292" />
    <circle
       style="display:inline;fill:#000000;stroke:none;stroke-width:0.999999"
       id="path55-6-0-5-2"
       cx="24.469097"
       cy="30.338844"
       r="2.6646292" />
    <circle
       style="display:inline;fill:#000000;stroke:none;stroke-width:0.999999"
       id="path55-3-3-6-2-90"
       cx="33.365391"
       cy="21.576284"
       r="2.6646292" />
    <circle
       style="display:inline;fill:#000000;stroke:none;stroke-width:0.999999"
       id="path55-2-7-7-5"
       cx="42.261669"
       cy="12.813718"
       r="2.6646292" />
    <circle
       style="display:inline;fill:#000000;stroke:none;stroke-width:0.999999"
       id="path55-6-1-2-6-9"
       cx="42.261669"
       cy="30.338844"
       r="2.6646292" />
  </g>
</svg>
