<?xml version="1.0" encoding="UTF-8" standalone="no"?>
<!-- Created with Inkscape (http://www.inkscape.org/) -->

<svg
   width="1530"
   height="540.00006"
   viewBox="0 0 404.81251 142.87502"
   version="1.1"
   id="svg16875"
   inkscape:version="1.1.1 (3bf5ae0d25, 2021-09-20)"
   sodipodi:docname="docks.svg"
   xmlns:inkscape="http://www.inkscape.org/namespaces/inkscape"
   xmlns:sodipodi="http://sodipodi.sourceforge.net/DTD/sodipodi-0.dtd"
   xmlns="http://www.w3.org/2000/svg"
   xmlns:svg="http://www.w3.org/2000/svg">
  <sodipodi:namedview
     id="namedview16877"
     pagecolor="#ffffff"
     bordercolor="#666666"
     borderopacity="1.0"
     inkscape:pageshadow="2"
     inkscape:pageopacity="0.0"
     inkscape:pagecheckerboard="0"
     inkscape:document-units="mm"
     showgrid="false"
     units="px"
     inkscape:zoom="0.5404784"
     inkscape:cx="923.25614"
     inkscape:cy="580.04168"
     inkscape:window-width="1920"
     inkscape:window-height="1017"
     inkscape:window-x="1912"
     inkscape:window-y="-8"
     inkscape:window-maximized="1"
     inkscape:current-layer="layer1"
     fit-margin-top="0"
     fit-margin-left="0"
     fit-margin-right="0"
     fit-margin-bottom="0" />
  <defs
     id="defs16872" />
  <g
     inkscape:label="Livello 1"
     inkscape:groupmode="layer"
     id="layer1"
     transform="translate(-103.18749)">
    <path
       sodipodi:nodetypes="cssaacaassccsccscc"
       inkscape:connector-curvature="0"
       id="path3037-7-83"
       d="m 153.30486,76.920706 c 0.49847,1.993889 2.49236,6.978616 5.98167,6.978616 4.48625,0 6.48014,-3.987781 6.48014,-8.972505 0,-3.489309 -1.28551,-5.788413 -2.49238,-8.474033 -1.28495,-2.859638 -3.17988,-5.412115 -4.98471,-7.975559 -2.31556,-3.288873 -7.47709,-9.470979 -7.47709,-9.470979 0,0 -5.16153,6.182106 -7.47709,9.470979 -1.80476,2.563444 -3.6997,5.115921 -4.98471,7.975559 -1.20681,2.68562 -2.49238,4.984724 -2.49238,8.474033 0,4.984724 1.99391,8.972505 6.48014,8.972505 3.48932,0 5.48321,-4.984727 5.98168,-6.978616 0.49848,-0.498472 0.49848,0 0.49848,0.498473 -0.49848,3.98778 -0.49848,4.984725 -0.99695,7.97556 -0.49847,2.990835 -1.99389,8.474032 -1.99389,8.474032 2.49236,-0.996944 7.47709,-0.996944 9.96945,0 0,0 -1.49542,-5.483197 -1.99389,-8.474032 -0.49847,-2.990835 -0.49847,-3.98778 -0.99695,-7.97556 0,-0.498473 0,-0.996945 0.49848,-0.498473 z"
       style="fill:#000000;fill-opacity:1;stroke:none;stroke-width:0.264583" />
    <path
       sodipodi:nodetypes="csccsscssccscc"
       inkscape:connector-curvature="0"
       id="path3126-70"
       d="m 253.50152,57.978754 c 0,-5.505978 -2.84912,-8.972505 -6.97862,-8.972505 -4.12944,0 -7.47709,4.463473 -7.47709,9.969451 0.017,0.47634 0.009,0.942711 0,1.401954 0,3.638101 1.33436,7.166489 2.49237,10.467923 1.19089,3.395096 2.90789,6.370827 4.51739,9.408667 2.49301,4.705282 7.94442,13.61453 7.94442,13.61453 0,0 5.45144,-8.909248 7.94441,-13.61453 1.60957,-3.03784 3.32654,-6.013571 4.5174,-9.408667 1.15805,-3.301434 2.49237,-6.829822 2.49237,-10.467923 -0.0132,-0.485711 -0.009,-0.954376 0,-1.401954 0,-5.505978 -3.34759,-9.969451 -7.47709,-9.969451 -4.12944,0 -6.97862,3.466527 -6.97862,8.972505 0,0.996946 -0.99694,0.996946 -0.99694,0 z"
       style="fill:#ff5555;fill-opacity:1;stroke:none;stroke-width:0.264582" />
    <path
       sodipodi:nodetypes="czczczczc"
       inkscape:connector-curvature="0"
       id="path3204-24-49"
       d="m 357.18751,48.961713 c 0,0 2.99677,7.491936 6.49301,12.486561 3.49624,4.994623 8.49086,9.989246 8.49086,9.989246 0,0 -4.99462,4.994624 -8.49086,9.989247 -3.49624,4.994623 -6.49301,12.486559 -6.49301,12.486559 0,0 -2.99677,-7.491936 -6.493,-12.486559 -3.49626,-4.994623 -8.49088,-9.989247 -8.49088,-9.989247 0,0 4.99462,-4.994623 8.49088,-9.989246 3.49623,-4.994625 6.493,-12.486561 6.493,-12.486561"
       style="fill:#ff5555;stroke:none;stroke-width:0.264583" />
    <path
       sodipodi:nodetypes="csssccsssccsssccsccscc"
       inkscape:connector-curvature="0"
       id="path3037-95"
       d="m 462.80557,76.784774 c 0.97223,1.944456 3.4028,4.861139 5.83337,4.861139 4.37501,0 6.31949,-3.888911 6.31949,-8.750052 0,-4.86114 -1.94448,-9.236166 -6.31949,-9.236166 -2.43057,0 -3.88891,2.430571 -5.34725,3.888912 -0.48612,0.486114 -0.97223,0 -0.48612,-0.486115 1.45834,-1.458342 3.88891,-5.347253 3.88891,-8.750052 0,-3.888911 -2.43057,-8.750053 -6.31948,-8.750053 -3.88891,0 -6.31949,4.861142 -6.31949,8.750053 0,3.402799 2.43058,7.29171 3.88892,8.750052 0.48611,0.486115 0,0.972229 -0.48611,0.486115 -1.45834,-1.458341 -2.91669,-3.888912 -5.34726,-3.888912 -4.37503,0 -6.31948,4.375026 -6.31948,9.236166 0,4.861141 1.94445,8.750052 6.31948,8.750052 2.43057,0 4.86114,-2.916683 5.83337,-4.861139 0.48611,-0.486114 0.48611,0 0.48611,0.486113 -0.48611,3.888913 -0.48611,4.861141 -0.97222,7.777825 -0.48612,2.916683 -1.94446,8.263939 -1.94446,8.263939 2.43057,-0.972229 7.29171,-0.972229 9.72228,0 0,0 -1.45834,-5.347256 -1.94445,-8.263939 -0.48612,-2.916684 -0.48612,-3.888912 -0.97223,-7.777825 0,-0.486113 0,-0.972227 0.48611,-0.486113 z"
       style="fill:#000000;fill-opacity:1;stroke:none;stroke-width:0.264583" />
  </g>
</svg>
