<?xml version="1.0" encoding="UTF-8" standalone="no"?>
<!-- Created with Inkscape (http://www.inkscape.org/) -->

<svg
   width="210mm"
   height="50mm"
   viewBox="0 0 210 50"
   version="1.1"
   id="svg5"
   inkscape:version="1.1.1 (3bf5ae0d25, 2021-09-20)"
   sodipodi:docname="sheet-2.svg"
   xmlns:inkscape="http://www.inkscape.org/namespaces/inkscape"
   xmlns:sodipodi="http://sodipodi.sourceforge.net/DTD/sodipodi-0.dtd"
   xmlns="http://www.w3.org/2000/svg"
   xmlns:svg="http://www.w3.org/2000/svg">
  <sodipodi:namedview
     id="namedview7"
     pagecolor="#ffffff"
     bordercolor="#666666"
     borderopacity="1.0"
     inkscape:pageshadow="2"
     inkscape:pageopacity="0.0"
     inkscape:pagecheckerboard="0"
     inkscape:document-units="mm"
     showgrid="false"
     inkscape:zoom="0.90509668"
     inkscape:cx="507.12814"
     inkscape:cy="104.40874"
     inkscape:window-width="1920"
     inkscape:window-height="1017"
     inkscape:window-x="1912"
     inkscape:window-y="-8"
     inkscape:window-maximized="1"
     inkscape:current-layer="layer3"
     borderlayer="true" />
  <defs
     id="defs2">
    <clipPath
       clipPathUnits="userSpaceOnUse"
       id="clipPath838">
      <path
         d="M 14.173,13.641 H 827.716 V 1176.378 H 14.173 Z"
         id="path836" />
    </clipPath>
    <clipPath
       clipPathUnits="userSpaceOnUse"
       id="clipPath988">
      <path
         d="M 0,0 H 841.89 V 1190.551 H 0 Z"
         id="path986" />
    </clipPath>
  </defs>
  <g
     inkscape:groupmode="layer"
     id="layer3"
     inkscape:label="Panel"
     style="display:inline">
    <g
       id="g16845"
       style="display:inline"
       transform="translate(-107.22147,-369.40206)">
      <g
         id="g13978"
         transform="matrix(0.10997742,0,0,0.11712991,20.60799,378.71895)"
         style="stroke-width:1.64725">
        <path
           sodipodi:type="star"
           style="display:inline;opacity:1;fill:#ffffff;stroke:#000000;stroke-width:23.1665;stroke-linecap:square;stroke-miterlimit:4;stroke-dasharray:none;paint-order:stroke fill markers"
           id="path1091"
           inkscape:flatsided="true"
           sodipodi:sides="3"
           sodipodi:cx="352.23425"
           sodipodi:cy="68.920425"
           sodipodi:r1="51.80286"
           sodipodi:r2="29.009602"
           sodipodi:arg1="0.5496076"
           sodipodi:arg2="1.5968052"
           inkscape:rounded="0"
           inkscape:randomized="0"
           transform="matrix(0.56275086,-0.01563054,0.01530888,0.57457537,676.97123,-34.439732)"
           inkscape:transform-center-x="-0.032169987"
           inkscape:transform-center-y="-6.8711288"
           d="M 396.40808,95.979787 306.71324,93.646404 353.58143,17.135085 Z" />
        <g
           aria-label="3"
           id="text6155"
           style="font-size:21.1005px;stroke-width:0.435837" />
        <g
           aria-label="4"
           transform="scale(1.0320058,0.9689868)"
           id="text3961"
           style="font-size:22.2711px;line-height:1.25;stroke-width:0.917153">
          <path
             d="m 850.50926,-8.3303921 -5.54603,8.66702443 h 5.54603 z m -0.57636,-1.9139229 h 2.76214 V 0.33663233 h 2.31628 V 2.1635584 h -2.31628 v 3.8278452 h -2.18578 V 2.1635584 H 843.1798 V 0.0430192 Z"
             id="path5721" />
        </g>
      </g>
      <g
         id="g14011"
         transform="matrix(0.10997742,0,0,0.11712991,38.805515,349.86935)"
         style="stroke-width:1.64725">
        <rect
           style="display:inline;fill:#ffffff;stroke:#000000;stroke-width:13.178;stroke-linecap:square;stroke-linejoin:round;paint-order:stroke fill markers"
           id="rect1012"
           width="50.911686"
           height="50.911686"
           x="685.34967"
           y="281.97241" />
        <g
           aria-label="6"
           id="text9503"
           style="font-size:21.1005px;stroke-width:0.435837">
          <path
             d="m 710.98581,306.58857 q -1.40121,0 -2.22544,0.95817 -0.81394,0.95818 -0.81394,2.62726 0,1.65878 0.81394,2.62726 0.82423,0.95818 2.22544,0.95818 1.4012,0 2.21514,-0.95818 0.82424,-0.96848 0.82424,-2.62726 0,-1.66908 -0.82424,-2.62726 -0.81394,-0.95817 -2.21514,-0.95817 z m 4.13149,-6.52179 v 1.89575 q -0.78302,-0.37091 -1.58665,-0.56666 -0.79333,-0.19576 -1.57636,-0.19576 -2.0606,0 -3.15271,1.3909 -1.08181,1.3909 -1.23636,4.20362 0.60788,-0.89636 1.52484,-1.3703 0.91697,-0.48424 2.01939,-0.48424 2.31817,0 3.65755,1.41151 1.34969,1.4012 1.34969,3.8224 0,2.36969 -1.4012,3.8018 -1.40121,1.43212 -3.72968,1.43212 -2.66847,0 -4.07998,-2.03999 -1.41151,-2.0503 -1.41151,-5.93452 0,-3.64725 1.7309,-5.81088 1.7309,-2.17393 4.64665,-2.17393 0.78302,0 1.57635,0.15455 0.80363,0.15454 1.66908,0.46363 z"
             id="path17674" />
        </g>
      </g>
      <g
         id="g13988"
         transform="matrix(0.10997742,0,0,0.11712991,18.993984,385.9671)"
         style="stroke-width:1.64725">
        <g
           id="g1237"
           transform="matrix(2.4204297,0,0,2.4214443,822.16828,-6.6745159)"
           style="display:inline;stroke-width:0.68042">
          <path
             style="font-variation-settings:normal;opacity:1;fill:#ffffff;fill-opacity:1;stroke:#000000;stroke-width:2.72168;stroke-linecap:butt;stroke-linejoin:miter;stroke-miterlimit:4;stroke-dasharray:none;stroke-dashoffset:0;stroke-opacity:1;stop-color:#000000;stop-opacity:1"
             d="m 28.454248,20.376912 -12.116003,9.056407 -0.305959,5.874425 12.483152,8.872831 12.299575,-8.934021 -0.18357,-5.874427 z"
             id="path1619" />
          <path
             style="font-variation-settings:normal;opacity:1;fill:none;fill-opacity:1;stroke:#000000;stroke-width:0.68042;stroke-linecap:butt;stroke-linejoin:miter;stroke-miterlimit:4;stroke-dasharray:none;stroke-dashoffset:0;stroke-opacity:1;stop-color:#000000;stop-opacity:1"
             d="m 28.454246,20.376912 -7.710181,15.175601 7.710183,3.671517 7.710185,-3.73271 -7.710187,-15.114408"
             id="path1687" />
          <path
             style="font-variation-settings:normal;opacity:1;fill:#ff2ad4;fill-opacity:1;stroke:#000000;stroke-width:0.68042;stroke-linecap:butt;stroke-linejoin:miter;stroke-miterlimit:4;stroke-dasharray:none;stroke-dashoffset:0;stroke-opacity:1;stop-color:#000000;stop-opacity:1"
             d="m 16.032286,35.307744 4.711779,0.244769"
             id="path1755" />
          <path
             style="font-variation-settings:normal;opacity:1;fill:#ff2ad4;fill-opacity:1;stroke:#000000;stroke-width:0.68042;stroke-linecap:butt;stroke-linejoin:miter;stroke-miterlimit:4;stroke-dasharray:none;stroke-dashoffset:0;stroke-opacity:1;stop-color:#000000;stop-opacity:1"
             d="m 36.164433,35.49132 4.65058,-0.244766"
             id="path1823" />
          <path
             style="font-variation-settings:normal;opacity:1;fill:#ff2ad4;fill-opacity:1;stroke:#000000;stroke-width:0.68042;stroke-linecap:butt;stroke-linejoin:miter;stroke-miterlimit:4;stroke-dasharray:none;stroke-dashoffset:0;stroke-opacity:1;stop-color:#000000;stop-opacity:1"
             d="M 28.515436,44.180575 28.454246,39.22403"
             id="path1858" />
        </g>
        <g
           aria-label="8"
           id="text10365"
           style="font-size:21.1005px;stroke-width:0.435837">
          <path
             d="m 890.95455,71.848234 q -1.48363,0 -2.33877,0.793329 -0.84485,0.79333 -0.84485,2.184232 0,1.390902 0.84485,2.184231 0.85514,0.793329 2.33877,0.793329 1.48363,0 2.33878,-0.793329 0.85515,-0.803632 0.85515,-2.184231 0,-1.390902 -0.85515,-2.184232 -0.84484,-0.793329 -2.33878,-0.793329 z m -2.0812,-0.886056 q -1.33939,-0.329696 -2.0915,-1.246661 -0.74182,-0.916965 -0.74182,-2.235746 0,-1.844233 1.30848,-2.915743 1.31878,-1.07151 3.60604,-1.07151 2.29757,0 3.60605,1.07151 1.30847,1.07151 1.30847,2.915743 0,1.318781 -0.75211,2.235746 -0.74182,0.916965 -2.0709,1.246661 1.50423,0.350301 2.33877,1.370296 0.84485,1.019995 0.84485,2.493321 0,2.235746 -1.3703,3.430892 -1.35999,1.195145 -3.90483,1.195145 -2.54483,0 -3.91513,-1.195145 -1.35999,-1.195146 -1.35999,-3.430892 0,-1.473326 0.84484,-2.493321 0.84485,-1.019995 2.34908,-1.370296 z m -0.76242,-3.28665 q 0,1.195145 0.74182,1.864839 0.75211,0.669693 2.1018,0.669693 1.33939,0 2.09151,-0.669693 0.76242,-0.669694 0.76242,-1.864839 0,-1.195146 -0.76242,-1.86484 -0.75212,-0.669693 -2.09151,-0.669693 -1.34969,0 -2.1018,0.669693 -0.74182,0.669694 -0.74182,1.86484 z"
             id="path17669" />
        </g>
      </g>
      <g
         id="g13995"
         transform="matrix(0.10997742,0,0,0.11712991,15.870594,375.15979)"
         style="stroke-width:1.64725">
        <g
           id="g1292"
           transform="matrix(2.5052471,0,0,2.4613184,830.45731,156.53992)"
           style="display:inline;stroke-width:0.663364">
          <path
             style="font-variation-settings:normal;opacity:1;fill:#ffffff;fill-opacity:1;stroke:#000000;stroke-width:2.65346;stroke-linecap:butt;stroke-linejoin:miter;stroke-miterlimit:4;stroke-dasharray:none;stroke-dashoffset:0;stroke-opacity:1;stop-color:#000000;stop-opacity:1"
             d="m 35.371517,20.206512 -10.2189,5.899882 v 12.274122 l 10.31006,5.952514 10.348,-5.974425 v -11.72694 z"
             id="path1370" />
          <path
             style="font-variation-settings:normal;opacity:1;fill:none;fill-opacity:1;stroke:#000000;stroke-width:0.663364;stroke-linecap:butt;stroke-linejoin:miter;stroke-miterlimit:4;stroke-dasharray:none;stroke-dashoffset:0;stroke-opacity:1;stop-color:#000000;stop-opacity:1"
             d="m 35.371517,20.206512 -10.2189,18.174004 20.65806,-0.02191 z"
             id="path1471" />
        </g>
        <g
           aria-label="10"
           id="text11117"
           style="font-size:21.1005px;stroke-width:0.435837">
          <path
             d="m 908.08131,244.00274 h 3.39998 v -11.7351 l -3.69876,0.74182 v -1.89575 l 3.67816,-0.74182 h 2.0812 v 13.63085 h 3.39998 v 1.7515 h -8.86056 z"
             id="path17660" />
          <path
             d="m 925.59638,231.74219 q -1.60727,0 -2.4212,1.58666 -0.80364,1.57636 -0.80364,4.74967 0,3.16302 0.80364,4.74968 0.81393,1.57635 2.4212,1.57635 1.61756,0 2.4212,-1.57635 0.81393,-1.58666 0.81393,-4.74968 0,-3.17331 -0.81393,-4.74967 -0.80364,-1.58666 -2.4212,-1.58666 z m 0,-1.64848 q 2.58604,0 3.94604,2.0503 1.37029,2.03999 1.37029,5.93451 0,3.88423 -1.37029,5.93452 -1.36,2.03999 -3.94604,2.03999 -2.58605,0 -3.95635,-2.03999 -1.35999,-2.05029 -1.35999,-5.93452 0,-3.89452 1.35999,-5.93451 1.3703,-2.0503 3.95635,-2.0503 z"
             id="path17662" />
        </g>
      </g>
      <g
         id="g14006"
         transform="matrix(0.10997742,0,0,0.11712991,18.778268,367.67896)"
         style="stroke-width:1.64725">
        <path
           style="font-variation-settings:normal;display:inline;fill:#ffffff;fill-opacity:1;stroke:#000000;stroke-width:6.589;stroke-linecap:butt;stroke-linejoin:miter;stroke-miterlimit:4;stroke-dasharray:none;stroke-dashoffset:0;stroke-opacity:1;stop-color:#000000"
           d="m 892.68334,342.09883 -17.73157,6.55396 -10.19956,14.35629 -0.47076,18.56954 11.4549,14.82444 18.0454,5.61768 16.94699,-5.61768 10.82726,-15.44862 -0.15694,-18.7256 -11.4549,-14.04419 z"
           id="path1893" />
        <path
           style="font-variation-settings:normal;display:inline;fill:none;fill-opacity:1;stroke:#000000;stroke-width:1.64725;stroke-linecap:butt;stroke-linejoin:miter;stroke-miterlimit:4;stroke-dasharray:none;stroke-dashoffset:0;stroke-opacity:1;stop-color:#000000"
           d="m 892.84026,353.17814 -18.20231,12.63978 7.53198,21.37839 h 21.6545 l 7.53198,-21.0663 z"
           id="path2027" />
        <path
           style="font-variation-settings:normal;display:inline;fill:#ff2a2a;fill-opacity:1;stroke:#000000;stroke-width:1.64725;stroke-linecap:butt;stroke-linejoin:miter;stroke-miterlimit:4;stroke-dasharray:none;stroke-dashoffset:0;stroke-opacity:1;stop-color:#000000"
           d="m 903.82443,387.19631 6.90431,9.20675"
           id="path2062" />
        <path
           style="font-variation-settings:normal;display:inline;fill:#ff2a2a;fill-opacity:1;stroke:#000000;stroke-width:1.64725;stroke-linecap:butt;stroke-linejoin:miter;stroke-miterlimit:4;stroke-dasharray:none;stroke-dashoffset:0;stroke-opacity:1;stop-color:#000000"
           d="m 875.73635,396.40306 6.43358,-9.20675"
           id="path2097" />
        <path
           style="font-variation-settings:normal;display:inline;fill:#ff2a2a;fill-opacity:1;stroke:#000000;stroke-width:1.64725;stroke-linecap:butt;stroke-linejoin:miter;stroke-miterlimit:4;stroke-dasharray:none;stroke-dashoffset:0;stroke-opacity:1;stop-color:#000000"
           d="m 864.75221,363.00908 9.88574,2.80884"
           id="path2132" />
        <path
           style="font-variation-settings:normal;display:inline;fill:#ff2a2a;fill-opacity:1;stroke:#000000;stroke-width:1.64725;stroke-linecap:butt;stroke-linejoin:miter;stroke-miterlimit:4;stroke-dasharray:none;stroke-dashoffset:0;stroke-opacity:1;stop-color:#000000"
           d="m 911.35641,366.13001 10.04265,-3.90117"
           id="path2167" />
        <path
           style="font-variation-settings:normal;display:inline;fill:#ff2a2a;fill-opacity:1;stroke:#000000;stroke-width:1.64725;stroke-linecap:butt;stroke-linejoin:miter;stroke-miterlimit:4;stroke-dasharray:none;stroke-dashoffset:0;stroke-opacity:1;stop-color:#000000"
           d="m 892.84026,353.17814 -0.15694,-11.07931"
           id="path2202" />
        <g
           aria-label="12"
           id="text12287"
           style="font-size:21.1005px;stroke-width:0.435837">
          <path
             d="m 882.00184,378.12572 h 3.39999 v -11.73509 l -3.69877,0.74181 v -1.89574 l 3.67816,-0.74182 h 2.0812 v 13.63084 h 3.39999 v 1.75151 h -8.86057 z"
             id="path17684" />
          <path
             d="m 896.85874,378.12572 h 7.2636 v 1.75151 h -9.76722 v -1.75151 q 1.18484,-1.22605 3.22483,-3.28665 2.05029,-2.0709 2.57574,-2.66847 0.99939,-1.12302 1.3909,-1.89575 0.40182,-0.78302 0.40182,-1.53514 0,-1.22606 -0.86545,-1.99878 -0.85515,-0.77272 -2.23575,-0.77272 -0.97878,0 -2.07089,0.34 -1.08182,0.33999 -2.31817,1.03029 v -2.1018 q 1.25696,-0.50485 2.34907,-0.76243 1.09212,-0.25757 1.99878,-0.25757 2.39029,0 3.8121,1.19515 1.42182,1.19514 1.42182,3.19392 0,0.94787 -0.36061,1.80302 -0.3503,0.84484 -1.28787,1.99878 -0.25758,0.29878 -1.63817,1.7309 -1.3806,1.42181 -3.89453,3.98725 z"
             id="path17686" />
        </g>
      </g>
    </g>
    <g
       id="g14689"
       transform="translate(-109.08386,-369.39399)"
       style="display:inline">
      <path
         style="font-variation-settings:normal;opacity:1;fill:none;fill-opacity:1;stroke:#000000;stroke-width:0.264583;stroke-linecap:butt;stroke-linejoin:miter;stroke-miterlimit:4;stroke-dasharray:0.264583, 0.529166;stroke-dashoffset:0;stroke-opacity:1;stop-color:#000000;stop-opacity:1"
         d="m 134.82692,381.11538 h 44.71596"
         id="path14483"
         sodipodi:nodetypes="cc" />
      <path
         style="font-variation-settings:normal;display:inline;fill:none;fill-opacity:1;stroke:#000000;stroke-width:0.264583;stroke-linecap:butt;stroke-linejoin:miter;stroke-miterlimit:4;stroke-dasharray:0.264583, 0.529166;stroke-dashoffset:0;stroke-opacity:1;stop-color:#000000"
         d="m 134.82692,389.5745 h 44.71596"
         id="path14483-7"
         sodipodi:nodetypes="cc" />
      <path
         style="font-variation-settings:normal;display:inline;fill:none;fill-opacity:1;stroke:#000000;stroke-width:0.264583;stroke-linecap:butt;stroke-linejoin:miter;stroke-miterlimit:4;stroke-dasharray:0.264583, 0.529166;stroke-dashoffset:0;stroke-opacity:1;stop-color:#000000"
         d="m 134.82692,398.03364 h 44.71596"
         id="path14483-7-4"
         sodipodi:nodetypes="cc" />
      <path
         style="font-variation-settings:normal;display:inline;fill:none;fill-opacity:1;stroke:#000000;stroke-width:0.264583;stroke-linecap:butt;stroke-linejoin:miter;stroke-miterlimit:4;stroke-dasharray:0.264583, 0.529166;stroke-dashoffset:0;stroke-opacity:1;stop-color:#000000"
         d="m 134.82692,406.49278 h 44.71596"
         id="path14483-7-7"
         sodipodi:nodetypes="cc" />
      <path
         style="font-variation-settings:normal;display:inline;fill:none;fill-opacity:1;stroke:#000000;stroke-width:0.264583;stroke-linecap:butt;stroke-linejoin:miter;stroke-miterlimit:4;stroke-dasharray:0.264583, 0.529166;stroke-dashoffset:0;stroke-opacity:1;stop-color:#000000"
         d="m 134.82692,414.95192 h 44.71596"
         id="path14483-7-0"
         sodipodi:nodetypes="cc" />
    </g>
    <g
       id="g15582"
       style="display:inline"
       transform="translate(-5.2080074,-369.40206)">
      <path
         style="font-variation-settings:normal;display:inline;fill:none;fill-opacity:1;stroke:#000000;stroke-width:0.264583;stroke-linecap:butt;stroke-linejoin:miter;stroke-miterlimit:4;stroke-dasharray:0.264583, 0.529166;stroke-dashoffset:0;stroke-opacity:1;stop-color:#000000"
         d="M 90.81409,381.12344 H 206.51276"
         id="path14483-0"
         sodipodi:nodetypes="cc" />
      <path
         style="font-variation-settings:normal;display:inline;fill:none;fill-opacity:1;stroke:#000000;stroke-width:0.264583;stroke-linecap:butt;stroke-linejoin:miter;stroke-miterlimit:4;stroke-dasharray:0.264583, 0.529166;stroke-dashoffset:0;stroke-opacity:1;stop-color:#000000"
         d="M 90.81409,389.58256 H 206.51276"
         id="path14483-7-3"
         sodipodi:nodetypes="cc" />
      <path
         style="font-variation-settings:normal;display:inline;fill:none;fill-opacity:1;stroke:#000000;stroke-width:0.264583;stroke-linecap:butt;stroke-linejoin:miter;stroke-miterlimit:4;stroke-dasharray:0.264583, 0.529166;stroke-dashoffset:0;stroke-opacity:1;stop-color:#000000"
         d="M 90.81409,398.0417 H 206.51276"
         id="path14483-7-4-0"
         sodipodi:nodetypes="cc" />
      <path
         style="font-variation-settings:normal;display:inline;fill:none;fill-opacity:1;stroke:#000000;stroke-width:0.264583;stroke-linecap:butt;stroke-linejoin:miter;stroke-miterlimit:4;stroke-dasharray:0.264583, 0.529166;stroke-dashoffset:0;stroke-opacity:1;stop-color:#000000"
         d="M 90.81409,406.50084 H 206.51276"
         id="path14483-7-7-6"
         sodipodi:nodetypes="cc" />
      <path
         style="font-variation-settings:normal;display:inline;fill:none;fill-opacity:1;stroke:#000000;stroke-width:0.264583;stroke-linecap:butt;stroke-linejoin:miter;stroke-miterlimit:4;stroke-dasharray:0.264583, 0.529166;stroke-dashoffset:0;stroke-opacity:1;stop-color:#000000"
         d="M 90.81409,414.95998 H 206.51276"
         id="path14483-7-0-7"
         sodipodi:nodetypes="cc" />
    </g>
    <g
       id="g17177"
       transform="translate(-3.7367526,-369.40206)">
      <path
         id="path1211"
         style="display:inline;fill:#000000;stroke-width:0.0143488"
         d="m 81.760636,408.53971 c -0.0847,-9.6e-4 -0.17093,0.0673 -0.16942,0.15607 -0.005,0.0905 3.8e-4,0.18113 -0.002,0.27169 0,0.11908 0,0.23816 0,0.35725 -0.44193,0.0472 -0.87165,0.2411 -1.18842,0.55811 -0.27156,0.27203 -0.45646,0.62453 -0.52912,0.99937 -0.0129,0.0645 -0.0214,0.12762 -0.0303,0.19264 -0.21778,0.001 -0.43572,-0.003 -0.65339,0.003 -0.0805,0.0122 -0.13632,0.0927 -0.13495,0.17155 -0.004,0.0805 0.0463,0.17064 0.13147,0.18254 0.0709,0.0116 0.14306,5.8e-4 0.2145,0.005 0.14687,0 0.29374,0 0.44061,0 0.0309,0.31768 0.13654,0.63085 0.31508,0.89509 0.22234,0.33236 0.55074,0.5902 0.92411,0.73055 0.16381,0.0626 0.33614,0.10044 0.51005,0.12109 10e-4,0.21767 -0.003,0.4355 0.003,0.65305 0.0121,0.0793 0.0903,0.13467 0.16809,0.13486 0.081,0.005 0.17276,-0.044 0.18567,-0.12975 0.0122,-0.0726 9.7e-4,-0.1465 0.005,-0.21967 0,-0.1455 0,-0.29101 0,-0.43652 0.25194,-0.0238 0.5021,-0.0911 0.72547,-0.21309 0.34945,-0.1864 0.63424,-0.48629 0.81302,-0.8388 0.0946,-0.18629 0.16296,-0.39418 0.19626,-0.60077 0.005,-0.0323 0.01,-0.0638 0.0142,-0.0968 0.21707,-10e-4 0.43432,0.003 0.65128,-0.003 0.0808,-0.0122 0.13611,-0.0933 0.13475,-0.17223 0.004,-0.0794 -0.0449,-0.16809 -0.12856,-0.18126 -0.0718,-0.0128 -0.14497,-10e-4 -0.21734,-0.005 -0.14653,0 -0.29306,0 -0.43959,0 -0.0252,-0.21454 -0.0838,-0.42861 -0.1728,-0.62319 -0.11098,-0.24197 -0.26719,-0.45767 -0.46411,-0.63601 -0.27904,-0.25291 -0.63382,-0.42633 -1.00856,-0.47942 -0.0335,-0.005 -0.0693,-0.01 -0.10371,-0.0143 -10e-4,-0.21538 0.003,-0.43093 -0.003,-0.6462 -0.0111,-0.0801 -0.0931,-0.13673 -0.1689,-0.13498 -0.006,-4.8e-4 -0.0126,-2e-4 -0.0189,-2e-4 z m -0.004,1.13365 c 0.43636,-0.002 0.8709,0.18511 1.16484,0.50842 0.28137,0.30611 0.44095,0.72434 0.42435,1.14063 -0.0228,0.39595 -0.19195,0.7834 -0.47497,1.06243 -0.21501,0.21402 -0.49457,0.36175 -0.79283,0.41782 -0.39569,0.0773 -0.82008,-10e-4 -1.15934,-0.22019 -0.3429,-0.21784 -0.60172,-0.5713 -0.68636,-0.97053 -0.0799,-0.37055 -0.0143,-0.76672 0.16739,-1.09813 0.19495,-0.35991 0.5255,-0.6506 0.91876,-0.7726 0.14155,-0.0445 0.28981,-0.0671 0.43816,-0.0679 z m -0.0262,0.70461 c -0.0853,0.004 -0.1678,0.0211 -0.24609,0.0488 -0.31035,0.10899 -0.55065,0.40107 -0.58674,0.72954 -0.0328,0.25659 0.0638,0.52205 0.24372,0.70603 0.1733,0.17989 0.42446,0.28509 0.67502,0.27 0.22415,-0.0101 0.44861,-0.11732 0.59662,-0.29047 0.12706,-0.14373 0.20453,-0.32759 0.22899,-0.51716 0.018,-0.0901 -0.007,-0.18374 -0.0255,-0.27005 -0.039,-0.1484 -0.11049,-0.28259 -0.21297,-0.39668 -0.15868,-0.17898 -0.39618,-0.28309 -0.63515,-0.28077 -0.0127,-1.9e-4 -0.0253,5.7e-4 -0.0379,7.6e-4 z m 0.0291,0.37555 c 0.19539,-0.002 0.39517,0.10832 0.4765,0.28991 0.0637,0.13052 0.0648,0.28918 0.002,0.42013 -0.0652,0.144 -0.20385,0.24833 -0.35775,0.2799 -0.1857,0.0414 -0.39835,-0.0154 -0.52006,-0.16644 -0.11229,-0.14023 -0.1332,-0.33989 -0.0762,-0.50727 0.0502,-0.1435 0.17495,-0.25653 0.32177,-0.29502 0.0501,-0.0142 0.10216,-0.0208 0.15418,-0.0212 z" />
      <path
         id="path15511"
         style="display:inline;fill:#000000;stroke-width:0.0143488"
         d="m 81.760636,374.70317 c -0.0847,-9.6e-4 -0.17093,0.0673 -0.16942,0.15607 -0.005,0.0905 3.8e-4,0.18113 -0.002,0.27169 0,0.11908 0,0.23816 0,0.35725 -0.44193,0.0472 -0.87165,0.2411 -1.18842,0.55811 -0.27156,0.27203 -0.45646,0.62453 -0.52912,0.99937 -0.0129,0.0645 -0.0214,0.12762 -0.0303,0.19264 -0.21778,0.001 -0.43572,-0.003 -0.65339,0.003 -0.0805,0.0122 -0.13632,0.0927 -0.13495,0.17155 -0.004,0.0805 0.0463,0.17064 0.13147,0.18254 0.0709,0.0116 0.14306,5.8e-4 0.2145,0.005 0.14687,0 0.29374,0 0.44061,0 0.0309,0.31768 0.13654,0.63085 0.31508,0.89509 0.22234,0.33236 0.55074,0.5902 0.92411,0.73055 0.16381,0.0626 0.33614,0.10044 0.51005,0.12109 10e-4,0.21767 -0.003,0.4355 0.003,0.65305 0.0121,0.0793 0.0903,0.13467 0.16809,0.13486 0.081,0.005 0.17276,-0.044 0.18567,-0.12975 0.0122,-0.0726 9.7e-4,-0.1465 0.005,-0.21967 0,-0.1455 0,-0.29101 0,-0.43652 0.25194,-0.0238 0.5021,-0.0911 0.72547,-0.21309 0.34945,-0.1864 0.63424,-0.48629 0.81302,-0.8388 0.0946,-0.18629 0.16296,-0.39418 0.19626,-0.60077 0.005,-0.0323 0.01,-0.0638 0.0142,-0.0968 0.21707,-10e-4 0.43432,0.003 0.65128,-0.003 0.0808,-0.0122 0.13611,-0.0933 0.13475,-0.17223 0.004,-0.0794 -0.0449,-0.16809 -0.12856,-0.18126 -0.0718,-0.0128 -0.14497,-10e-4 -0.21734,-0.005 -0.14653,0 -0.29306,0 -0.43959,0 -0.0252,-0.21454 -0.0838,-0.42861 -0.1728,-0.62319 -0.11098,-0.24197 -0.26719,-0.45767 -0.46411,-0.63601 -0.27904,-0.25291 -0.63382,-0.42633 -1.00856,-0.47942 -0.0335,-0.005 -0.0693,-0.01 -0.10371,-0.0143 -10e-4,-0.21538 0.003,-0.43093 -0.003,-0.6462 -0.0111,-0.0801 -0.0931,-0.13673 -0.1689,-0.13498 -0.006,-4.8e-4 -0.0126,-2e-4 -0.0189,-2e-4 z m -0.004,1.13365 c 0.43636,-0.002 0.8709,0.18511 1.16484,0.50842 0.28137,0.30611 0.44095,0.72434 0.42435,1.14063 -0.0228,0.39595 -0.19195,0.7834 -0.47497,1.06243 -0.21501,0.21402 -0.49457,0.36175 -0.79283,0.41782 -0.39569,0.0773 -0.82008,-10e-4 -1.15934,-0.22019 -0.3429,-0.21784 -0.60172,-0.5713 -0.68636,-0.97053 -0.0799,-0.37055 -0.0143,-0.76672 0.16739,-1.09813 0.19495,-0.35991 0.5255,-0.6506 0.91876,-0.7726 0.14155,-0.0445 0.28981,-0.0671 0.43816,-0.0679 z m -0.0262,0.70461 c -0.0853,0.004 -0.1678,0.0211 -0.24609,0.0488 -0.31035,0.10899 -0.55065,0.40107 -0.58674,0.72954 -0.0328,0.25659 0.0638,0.52205 0.24372,0.70603 0.1733,0.17989 0.42446,0.28509 0.67502,0.27 0.22415,-0.0101 0.44861,-0.11732 0.59662,-0.29047 0.12706,-0.14373 0.20453,-0.32759 0.22899,-0.51716 0.018,-0.0901 -0.007,-0.18374 -0.0255,-0.27005 -0.039,-0.1484 -0.11049,-0.28259 -0.21297,-0.39668 -0.15868,-0.17898 -0.39618,-0.28309 -0.63515,-0.28077 -0.0127,-1.9e-4 -0.0253,5.7e-4 -0.0379,7.6e-4 z m 0.0291,0.37555 c 0.19539,-0.002 0.39517,0.10832 0.4765,0.28991 0.0637,0.13052 0.0648,0.28918 0.002,0.42013 -0.0652,0.144 -0.20385,0.24833 -0.35775,0.2799 -0.1857,0.0414 -0.39835,-0.0154 -0.52006,-0.16644 -0.11229,-0.14023 -0.1332,-0.33989 -0.0762,-0.50727 0.0502,-0.1435 0.17495,-0.25653 0.32177,-0.29502 0.0501,-0.0142 0.10216,-0.0208 0.15418,-0.0212 z" />
      <path
         id="path15513"
         style="display:inline;fill:#000000;stroke-width:0.0143488"
         d="m 81.760636,383.16229 c -0.0847,-9.6e-4 -0.17093,0.0673 -0.16942,0.15607 -0.005,0.0905 3.8e-4,0.18113 -0.002,0.27169 0,0.11908 0,0.23816 0,0.35725 -0.44193,0.0472 -0.87165,0.2411 -1.18842,0.55811 -0.27156,0.27203 -0.45646,0.62453 -0.52912,0.99937 -0.0129,0.0645 -0.0214,0.12762 -0.0303,0.19264 -0.21778,10e-4 -0.43572,-0.003 -0.65339,0.003 -0.0805,0.0122 -0.13632,0.0927 -0.13495,0.17155 -0.004,0.0805 0.0463,0.17064 0.13147,0.18254 0.0709,0.0116 0.14306,5.8e-4 0.2145,0.005 0.14687,0 0.29374,0 0.44061,0 0.0309,0.31768 0.13654,0.63085 0.31508,0.89509 0.22234,0.33236 0.55074,0.5902 0.92411,0.73055 0.16381,0.0626 0.33614,0.10044 0.51005,0.12109 10e-4,0.21767 -0.003,0.4355 0.003,0.65305 0.0121,0.0793 0.0903,0.13467 0.16809,0.13486 0.081,0.005 0.17276,-0.044 0.18567,-0.12975 0.0122,-0.0726 9.7e-4,-0.1465 0.005,-0.21967 0,-0.1455 0,-0.29101 0,-0.43652 0.25194,-0.0238 0.5021,-0.0911 0.72547,-0.21309 0.34945,-0.1864 0.63424,-0.48629 0.81302,-0.8388 0.0946,-0.18629 0.16296,-0.39418 0.19626,-0.60077 0.005,-0.0323 0.01,-0.0638 0.0142,-0.0968 0.21707,-10e-4 0.43432,0.003 0.65128,-0.003 0.0808,-0.0122 0.13611,-0.0933 0.13475,-0.17223 0.004,-0.0794 -0.0449,-0.16809 -0.12856,-0.18126 -0.0718,-0.0128 -0.14497,-0.001 -0.21734,-0.005 -0.14653,0 -0.29306,0 -0.43959,0 -0.0252,-0.21454 -0.0838,-0.42861 -0.1728,-0.62319 -0.11098,-0.24197 -0.26719,-0.45767 -0.46411,-0.63601 -0.27904,-0.25291 -0.63382,-0.42633 -1.00856,-0.47942 -0.0335,-0.005 -0.0693,-0.01 -0.10371,-0.0143 -10e-4,-0.21538 0.003,-0.43093 -0.003,-0.6462 -0.0111,-0.0801 -0.0931,-0.13673 -0.1689,-0.13498 -0.006,-4.8e-4 -0.0126,-2e-4 -0.0189,-2e-4 z m -0.004,1.13365 c 0.43636,-0.002 0.8709,0.18511 1.16484,0.50842 0.28137,0.30611 0.44095,0.72434 0.42435,1.14063 -0.0228,0.39595 -0.19195,0.7834 -0.47497,1.06243 -0.21501,0.21402 -0.49457,0.36175 -0.79283,0.41782 -0.39569,0.0773 -0.82008,-10e-4 -1.15934,-0.22019 -0.3429,-0.21784 -0.60172,-0.5713 -0.68636,-0.97053 -0.0799,-0.37055 -0.0143,-0.76672 0.16739,-1.09813 0.19495,-0.35991 0.5255,-0.6506 0.91876,-0.7726 0.14155,-0.0445 0.28981,-0.0671 0.43816,-0.0679 z m -0.0262,0.70461 c -0.0853,0.004 -0.1678,0.0211 -0.24609,0.0488 -0.31035,0.10899 -0.55065,0.40107 -0.58674,0.72954 -0.0328,0.25659 0.0638,0.52205 0.24372,0.70603 0.1733,0.17989 0.42446,0.28509 0.67502,0.27 0.22415,-0.0101 0.44861,-0.11732 0.59662,-0.29047 0.12706,-0.14373 0.20453,-0.32759 0.22899,-0.51716 0.018,-0.0901 -0.007,-0.18374 -0.0255,-0.27005 -0.039,-0.1484 -0.11049,-0.28259 -0.21297,-0.39668 -0.15868,-0.17898 -0.39618,-0.28309 -0.63515,-0.28077 -0.0127,-1.9e-4 -0.0253,5.7e-4 -0.0379,7.6e-4 z m 0.0291,0.37555 c 0.19539,-0.002 0.39517,0.10832 0.4765,0.28991 0.0637,0.13052 0.0648,0.28918 0.002,0.42013 -0.0652,0.144 -0.20385,0.24833 -0.35775,0.2799 -0.1857,0.0414 -0.39835,-0.0154 -0.52006,-0.16644 -0.11229,-0.14023 -0.1332,-0.33989 -0.0762,-0.50727 0.0502,-0.1435 0.17495,-0.25653 0.32177,-0.29502 0.0501,-0.0142 0.10216,-0.0208 0.15418,-0.0212 z" />
      <path
         id="path15515"
         style="display:inline;fill:#000000;stroke-width:0.0143488"
         d="m 81.760636,391.62143 c -0.0847,-9.6e-4 -0.17093,0.0673 -0.16942,0.15607 -0.005,0.0905 3.8e-4,0.18113 -0.002,0.27169 0,0.11908 0,0.23816 0,0.35725 -0.44193,0.0472 -0.87165,0.2411 -1.18842,0.55811 -0.27156,0.27203 -0.45646,0.62453 -0.52912,0.99937 -0.0129,0.0645 -0.0214,0.12762 -0.0303,0.19264 -0.21778,10e-4 -0.43572,-0.003 -0.65339,0.003 -0.0805,0.0122 -0.13632,0.0927 -0.13495,0.17155 -0.004,0.0805 0.0463,0.17064 0.13147,0.18254 0.0709,0.0116 0.14306,5.8e-4 0.2145,0.005 0.14687,0 0.29374,0 0.44061,0 0.0309,0.31768 0.13654,0.63085 0.31508,0.89509 0.22234,0.33236 0.55074,0.5902 0.92411,0.73055 0.16381,0.0626 0.33614,0.10044 0.51005,0.12109 10e-4,0.21767 -0.003,0.4355 0.003,0.65305 0.0121,0.0793 0.0903,0.13467 0.16809,0.13486 0.081,0.005 0.17276,-0.044 0.18567,-0.12975 0.0122,-0.0726 9.7e-4,-0.1465 0.005,-0.21967 0,-0.1455 0,-0.29101 0,-0.43652 0.25194,-0.0238 0.5021,-0.0911 0.72547,-0.21309 0.34945,-0.1864 0.63424,-0.48629 0.81302,-0.8388 0.0946,-0.18629 0.16296,-0.39418 0.19626,-0.60077 0.005,-0.0323 0.01,-0.0638 0.0142,-0.0968 0.21707,-0.001 0.43432,0.003 0.65128,-0.003 0.0808,-0.0122 0.13611,-0.0933 0.13475,-0.17223 0.004,-0.0794 -0.0449,-0.16809 -0.12856,-0.18126 -0.0718,-0.0128 -0.14497,-0.001 -0.21734,-0.005 -0.14653,0 -0.29306,0 -0.43959,0 -0.0252,-0.21454 -0.0838,-0.42861 -0.1728,-0.62319 -0.11098,-0.24197 -0.26719,-0.45767 -0.46411,-0.63601 -0.27904,-0.25291 -0.63382,-0.42633 -1.00856,-0.47942 -0.0335,-0.005 -0.0693,-0.01 -0.10371,-0.0143 -10e-4,-0.21538 0.003,-0.43093 -0.003,-0.6462 -0.0111,-0.0801 -0.0931,-0.13673 -0.1689,-0.13498 -0.006,-4.8e-4 -0.0126,-2e-4 -0.0189,-2e-4 z m -0.004,1.13365 c 0.43636,-0.002 0.8709,0.18511 1.16484,0.50842 0.28137,0.30611 0.44095,0.72434 0.42435,1.14063 -0.0228,0.39595 -0.19195,0.7834 -0.47497,1.06243 -0.21501,0.21402 -0.49457,0.36175 -0.79283,0.41782 -0.39569,0.0773 -0.82008,-0.001 -1.15934,-0.22019 -0.3429,-0.21784 -0.60172,-0.5713 -0.68636,-0.97053 -0.0799,-0.37055 -0.0143,-0.76672 0.16739,-1.09813 0.19495,-0.35991 0.5255,-0.6506 0.91876,-0.7726 0.14155,-0.0445 0.28981,-0.0671 0.43816,-0.0679 z m -0.0262,0.70461 c -0.0853,0.004 -0.1678,0.0211 -0.24609,0.0488 -0.31035,0.10899 -0.55065,0.40107 -0.58674,0.72954 -0.0328,0.25659 0.0638,0.52205 0.24372,0.70603 0.1733,0.17989 0.42446,0.28509 0.67502,0.27 0.22415,-0.0101 0.44861,-0.11732 0.59662,-0.29047 0.12706,-0.14373 0.20453,-0.32759 0.22899,-0.51716 0.018,-0.0901 -0.007,-0.18374 -0.0255,-0.27005 -0.039,-0.1484 -0.11049,-0.28259 -0.21297,-0.39668 -0.15868,-0.17898 -0.39618,-0.28309 -0.63515,-0.28077 -0.0127,-1.9e-4 -0.0253,5.7e-4 -0.0379,7.6e-4 z m 0.0291,0.37555 c 0.19539,-0.002 0.39517,0.10832 0.4765,0.28991 0.0637,0.13052 0.0648,0.28918 0.002,0.42013 -0.0652,0.144 -0.20385,0.24833 -0.35775,0.2799 -0.1857,0.0414 -0.39835,-0.0154 -0.52006,-0.16644 -0.11229,-0.14023 -0.1332,-0.33989 -0.0762,-0.50727 0.0502,-0.1435 0.17495,-0.25653 0.32177,-0.29502 0.0501,-0.0142 0.10216,-0.0208 0.15418,-0.0212 z" />
      <path
         id="path15517"
         style="display:inline;fill:#000000;stroke-width:0.0143488"
         d="m 81.760636,400.08057 c -0.0847,-9.6e-4 -0.17093,0.0673 -0.16942,0.15607 -0.005,0.0905 3.8e-4,0.18113 -0.002,0.27169 0,0.11908 0,0.23816 0,0.35725 -0.44193,0.0472 -0.87165,0.2411 -1.18842,0.55811 -0.27156,0.27203 -0.45646,0.62453 -0.52912,0.99937 -0.0129,0.0645 -0.0214,0.12762 -0.0303,0.19264 -0.21778,10e-4 -0.43572,-0.003 -0.65339,0.003 -0.0805,0.0122 -0.13632,0.0927 -0.13495,0.17155 -0.004,0.0805 0.0463,0.17064 0.13147,0.18254 0.0709,0.0116 0.14306,5.8e-4 0.2145,0.005 0.14687,0 0.29374,0 0.44061,0 0.0309,0.31768 0.13654,0.63085 0.31508,0.89509 0.22234,0.33236 0.55074,0.5902 0.92411,0.73055 0.16381,0.0626 0.33614,0.10044 0.51005,0.12109 10e-4,0.21767 -0.003,0.4355 0.003,0.65305 0.0121,0.0793 0.0903,0.13467 0.16809,0.13486 0.081,0.005 0.17276,-0.044 0.18567,-0.12975 0.0122,-0.0726 9.7e-4,-0.1465 0.005,-0.21967 0,-0.1455 0,-0.29101 0,-0.43652 0.25194,-0.0238 0.5021,-0.0911 0.72547,-0.21309 0.34945,-0.1864 0.63424,-0.48629 0.81302,-0.8388 0.0946,-0.18629 0.16296,-0.39418 0.19626,-0.60077 0.005,-0.0323 0.01,-0.0638 0.0142,-0.0968 0.21707,-0.001 0.43432,0.003 0.65128,-0.003 0.0808,-0.0122 0.13611,-0.0933 0.13475,-0.17223 0.004,-0.0794 -0.0449,-0.16809 -0.12856,-0.18126 -0.0718,-0.0128 -0.14497,-0.001 -0.21734,-0.005 -0.14653,0 -0.29306,0 -0.43959,0 -0.0252,-0.21454 -0.0838,-0.42861 -0.1728,-0.62319 -0.11098,-0.24197 -0.26719,-0.45767 -0.46411,-0.63601 -0.27904,-0.25291 -0.63382,-0.42633 -1.00856,-0.47942 -0.0335,-0.005 -0.0693,-0.01 -0.10371,-0.0143 -10e-4,-0.21538 0.003,-0.43093 -0.003,-0.6462 -0.0111,-0.0801 -0.0931,-0.13673 -0.1689,-0.13498 -0.006,-4.8e-4 -0.0126,-2e-4 -0.0189,-2e-4 z m -0.004,1.13365 c 0.43636,-0.002 0.8709,0.18511 1.16484,0.50842 0.28137,0.30611 0.44095,0.72434 0.42435,1.14063 -0.0228,0.39595 -0.19195,0.7834 -0.47497,1.06243 -0.21501,0.21402 -0.49457,0.36175 -0.79283,0.41782 -0.39569,0.0773 -0.82008,-0.001 -1.15934,-0.22019 -0.3429,-0.21784 -0.60172,-0.5713 -0.68636,-0.97053 -0.0799,-0.37055 -0.0143,-0.76672 0.16739,-1.09813 0.19495,-0.35991 0.5255,-0.6506 0.91876,-0.7726 0.14155,-0.0445 0.28981,-0.0671 0.43816,-0.0679 z m -0.0262,0.70461 c -0.0853,0.004 -0.1678,0.0211 -0.24609,0.0488 -0.31035,0.10899 -0.55065,0.40107 -0.58674,0.72954 -0.0328,0.25659 0.0638,0.52205 0.24372,0.70603 0.1733,0.17989 0.42446,0.28509 0.67502,0.27 0.22415,-0.0101 0.44861,-0.11732 0.59662,-0.29047 0.12706,-0.14373 0.20453,-0.32759 0.22899,-0.51716 0.018,-0.0901 -0.007,-0.18374 -0.0255,-0.27005 -0.039,-0.1484 -0.11049,-0.28259 -0.21297,-0.39668 -0.15868,-0.17898 -0.39618,-0.28309 -0.63515,-0.28077 -0.0127,-1.9e-4 -0.0253,5.7e-4 -0.0379,7.6e-4 z m 0.0291,0.37555 c 0.19539,-0.002 0.39517,0.10832 0.4765,0.28991 0.0637,0.13052 0.0648,0.28918 0.002,0.42013 -0.0652,0.144 -0.20385,0.24833 -0.35775,0.2799 -0.1857,0.0414 -0.39835,-0.0154 -0.52006,-0.16644 -0.11229,-0.14023 -0.1332,-0.33989 -0.0762,-0.50727 0.0502,-0.1435 0.17495,-0.25653 0.32177,-0.29502 0.0501,-0.0142 0.10216,-0.0208 0.15418,-0.0212 z" />
    </g>
    <g
       id="g16556"
       style="display:inline"
       transform="translate(-106.57126,-369.40206)">
      <g
         id="g16515"
         transform="translate(0.51676432,0.07497448)">
        <path
           d="m 126.32617,375.80834 c 0,-0.28277 -0.22922,-0.51199 -0.51198,-0.51199 -0.28276,0 -0.51199,0.22922 -0.51199,0.51199 v 1.89594 c -0.24698,0.16531 -0.40959,0.44687 -0.40959,0.76639 0,0.50897 0.4126,0.92157 0.92158,0.92157 0.50897,0 0.92157,-0.4126 0.92157,-0.92157 0,-0.31952 -0.16261,-0.60108 -0.40959,-0.76639 z"
           stroke="#000000"
           stroke-width="0.409589"
           stroke-linecap="round"
           stroke-linejoin="round"
           id="path16490"
           style="fill:none" />
        <path
           d="m 125.81419,378.67546 c 0.1131,0 0.20479,-0.0917 0.20479,-0.20479 0,-0.11311 -0.0917,-0.2048 -0.20479,-0.2048 -0.11311,0 -0.2048,0.0917 -0.2048,0.2048 0,0.1131 0.0917,0.20479 0.2048,0.20479 z"
           stroke="#000000"
           stroke-width="0.409589"
           stroke-linecap="round"
           stroke-linejoin="round"
           id="path16492"
           style="fill:none" />
      </g>
      <g
         id="g16521"
         transform="translate(0.51676432,8.5340945)">
        <path
           d="m 126.32617,375.80834 c 0,-0.28277 -0.22922,-0.51199 -0.51198,-0.51199 -0.28276,0 -0.51199,0.22922 -0.51199,0.51199 v 1.89594 c -0.24698,0.16531 -0.40959,0.44687 -0.40959,0.76639 0,0.50897 0.4126,0.92157 0.92158,0.92157 0.50897,0 0.92157,-0.4126 0.92157,-0.92157 0,-0.31952 -0.16261,-0.60108 -0.40959,-0.76639 z"
           stroke="#000000"
           stroke-width="0.409589"
           stroke-linecap="round"
           stroke-linejoin="round"
           id="path16517"
           style="fill:none" />
        <path
           d="m 125.81419,378.67546 c 0.1131,0 0.20479,-0.0917 0.20479,-0.20479 0,-0.11311 -0.0917,-0.2048 -0.20479,-0.2048 -0.11311,0 -0.2048,0.0917 -0.2048,0.2048 0,0.1131 0.0917,0.20479 0.2048,0.20479 z"
           stroke="#000000"
           stroke-width="0.409589"
           stroke-linecap="round"
           stroke-linejoin="round"
           id="path16519"
           style="fill:none" />
      </g>
      <g
         id="g16527"
         transform="translate(0.51676432,16.993234)">
        <path
           d="m 126.32617,375.80834 c 0,-0.28277 -0.22922,-0.51199 -0.51198,-0.51199 -0.28276,0 -0.51199,0.22922 -0.51199,0.51199 v 1.89594 c -0.24698,0.16531 -0.40959,0.44687 -0.40959,0.76639 0,0.50897 0.4126,0.92157 0.92158,0.92157 0.50897,0 0.92157,-0.4126 0.92157,-0.92157 0,-0.31952 -0.16261,-0.60108 -0.40959,-0.76639 z"
           stroke="#000000"
           stroke-width="0.409589"
           stroke-linecap="round"
           stroke-linejoin="round"
           id="path16523"
           style="fill:none" />
        <path
           d="m 125.81419,378.67546 c 0.1131,0 0.20479,-0.0917 0.20479,-0.20479 0,-0.11311 -0.0917,-0.2048 -0.20479,-0.2048 -0.11311,0 -0.2048,0.0917 -0.2048,0.2048 0,0.1131 0.0917,0.20479 0.2048,0.20479 z"
           stroke="#000000"
           stroke-width="0.409589"
           stroke-linecap="round"
           stroke-linejoin="round"
           id="path16525"
           style="fill:none" />
      </g>
      <g
         id="g16533"
         transform="translate(0.51676432,25.452374)">
        <path
           d="m 126.32617,375.80834 c 0,-0.28277 -0.22922,-0.51199 -0.51198,-0.51199 -0.28276,0 -0.51199,0.22922 -0.51199,0.51199 v 1.89594 c -0.24698,0.16531 -0.40959,0.44687 -0.40959,0.76639 0,0.50897 0.4126,0.92157 0.92158,0.92157 0.50897,0 0.92157,-0.4126 0.92157,-0.92157 0,-0.31952 -0.16261,-0.60108 -0.40959,-0.76639 z"
           stroke="#000000"
           stroke-width="0.409589"
           stroke-linecap="round"
           stroke-linejoin="round"
           id="path16529"
           style="fill:none" />
        <path
           d="m 125.81419,378.67546 c 0.1131,0 0.20479,-0.0917 0.20479,-0.20479 0,-0.11311 -0.0917,-0.2048 -0.20479,-0.2048 -0.11311,0 -0.2048,0.0917 -0.2048,0.2048 0,0.1131 0.0917,0.20479 0.2048,0.20479 z"
           stroke="#000000"
           stroke-width="0.409589"
           stroke-linecap="round"
           stroke-linejoin="round"
           id="path16531"
           style="fill:none" />
      </g>
      <g
         id="g16539"
         transform="translate(0.51676432,33.911514)">
        <path
           d="m 126.32617,375.80834 c 0,-0.28277 -0.22922,-0.51199 -0.51198,-0.51199 -0.28276,0 -0.51199,0.22922 -0.51199,0.51199 v 1.89594 c -0.24698,0.16531 -0.40959,0.44687 -0.40959,0.76639 0,0.50897 0.4126,0.92157 0.92158,0.92157 0.50897,0 0.92157,-0.4126 0.92157,-0.92157 0,-0.31952 -0.16261,-0.60108 -0.40959,-0.76639 z"
           stroke="#000000"
           stroke-width="0.409589"
           stroke-linecap="round"
           stroke-linejoin="round"
           id="path16535"
           style="fill:none" />
        <path
           d="m 125.81419,378.67546 c 0.1131,0 0.20479,-0.0917 0.20479,-0.20479 0,-0.11311 -0.0917,-0.2048 -0.20479,-0.2048 -0.11311,0 -0.2048,0.0917 -0.2048,0.2048 0,0.1131 0.0917,0.20479 0.2048,0.20479 z"
           stroke="#000000"
           stroke-width="0.409589"
           stroke-linecap="round"
           stroke-linejoin="round"
           id="path16537"
           style="fill:none" />
      </g>
    </g>
  </g>
</svg>
