<?xml version="1.0" encoding="UTF-8" standalone="no"?>
<!-- Created with Inkscape (http://www.inkscape.org/) -->

<svg
   width="65mm"
   height="65mm"
   viewBox="0 0 65 65"
   version="1.1"
   id="svg5"
   inkscape:version="1.1.1 (3bf5ae0d25, 2021-09-20)"
   sodipodi:docname="icon-macro.svg"
   xmlns:inkscape="http://www.inkscape.org/namespaces/inkscape"
   xmlns:sodipodi="http://sodipodi.sourceforge.net/DTD/sodipodi-0.dtd"
   xmlns="http://www.w3.org/2000/svg"
   xmlns:svg="http://www.w3.org/2000/svg">
  <sodipodi:namedview
     id="namedview7"
     pagecolor="#ffffff"
     bordercolor="#666666"
     borderopacity="1.0"
     inkscape:pageshadow="2"
     inkscape:pageopacity="0.0"
     inkscape:pagecheckerboard="0"
     inkscape:document-units="mm"
     showgrid="false"
     inkscape:zoom="1"
     inkscape:cx="-67"
     inkscape:cy="182.5"
     inkscape:window-width="1920"
     inkscape:window-height="1017"
     inkscape:window-x="1912"
     inkscape:window-y="-8"
     inkscape:window-maximized="1"
     inkscape:current-layer="layer6" />
  <defs
     id="defs2" />
  <g
     inkscape:groupmode="layer"
     id="layer6"
     inkscape:label="dice"
     style="display:inline">
    <g
       id="g1073"
       style="fill:#000000;stroke-width:2.63063"
       transform="matrix(0.38013743,0,0,0.38013743,59.738303,37.500269)">
      <path
         fill-rule="evenodd"
         clip-rule="evenodd"
         d="m -111.34135,-24.178152 c -4.8708,0 -8.81944,3.948466 -8.81944,8.819445 0,4.870979 3.94864,8.8194442 8.81944,8.8194442 4.87081,0 8.81945,-3.9484652 8.81945,-8.8194442 0,-4.870979 -3.94864,-8.819445 -8.81945,-8.819445 z m -17.63889,8.819445 c 0,-9.741958 7.8972,-17.638889 17.63889,-17.638889 9.7417,0 17.638892,7.896931 17.638892,17.638889 0,9.7419581 -7.897192,17.6388886 -17.638892,17.6388886 -9.74169,0 -17.63889,-7.8969305 -17.63889,-17.6388886 z"
         fill="#47495f"
         id="path1045"
         style="fill:#000000;stroke-width:23.2007" />
      <path
         fill-rule="evenodd"
         clip-rule="evenodd"
         d="m -31.966347,-24.178152 c -4.87098,0 -8.819445,3.948466 -8.819445,8.819445 0,4.870979 3.948465,8.8194442 8.819445,8.8194442 4.870979,0 8.819444,-3.9484652 8.819444,-8.8194442 0,-4.870979 -3.948465,-8.819445 -8.819444,-8.819445 z m -17.638889,8.819445 c 0,-9.741958 7.89693,-17.638889 17.638889,-17.638889 9.741958,0 17.638888,7.896931 17.638888,17.638889 0,9.7419581 -7.89693,17.6388886 -17.638888,17.6388886 -9.741959,0 -17.638889,-7.8969305 -17.638889,-17.6388886 z"
         fill="#47495f"
         id="path1047"
         style="fill:#000000;stroke-width:23.2007" />
      <path
         fill-rule="evenodd"
         clip-rule="evenodd"
         d="m -89.292736,15.509348 c 2.435049,0 4.409722,1.974674 4.409722,4.409722 l 0.0026,0.02381 c 0,0 0.0097,0.04057 0.02734,0.08379 0.03528,0.08643 0.120827,0.24959 0.313091,0.477132 0.402166,0.475368 1.157111,1.092729 2.385659,1.707444 2.459743,1.229431 6.165674,2.117549 10.500431,2.117549 4.334757,0 8.040687,-0.888118 10.50043,-2.117549 1.228549,-0.614715 1.983493,-1.232076 2.38566,-1.707444 0.192264,-0.227542 0.277813,-0.390702 0.31309,-0.477132 0.01764,-0.04322 0.02734,-0.08379 0.02734,-0.08379 l 0.0026,-0.02381 c 0,-2.435048 1.974674,-4.409722 4.409723,-4.409722 2.435048,0 4.409722,1.974674 4.409722,4.409722 0,5.005917 -3.943174,8.35025 -7.604125,10.180285 -3.924653,1.962326 -9.037285,3.048882 -14.444486,3.048882 -5.407202,0 -10.519833,-1.086556 -14.444486,-3.048882 -3.660952,-1.830035 -7.604125,-5.174368 -7.604125,-10.180285 0,-2.435048 1.974321,-4.409722 4.409722,-4.409722 z"
         fill="#47495f"
         id="path1049"
         style="fill:#000000;stroke-width:23.2007" />
      <path
         fill-rule="evenodd"
         clip-rule="evenodd"
         d="m -36.37607,-72.685096 v 17.638889 h -70.55555 v -17.638889 c 0,-2.435401 -1.97433,-4.409722 -4.40973,-4.409722 -2.4354,0 -4.40972,1.974321 -4.40972,4.409722 v 17.638889 h -8.81944 c -12.1771,0 -22.04861,9.871516 -22.04861,22.048611 v 61.736111 c 0,12.177007 9.87151,22.048611 22.04861,22.048611 h 105.833329 c 12.1770071,0 22.0486112,-9.871604 22.0486112,-22.048611 v -61.736111 c 0,-12.177095 -9.8716041,-22.048611 -22.0486112,-22.048611 h -8.819444 v -17.638889 c 0,-2.435401 -1.974674,-4.409722 -4.409722,-4.409722 -2.435049,0 -4.409723,1.974321 -4.409723,4.409722 z m -88.19444,26.458333 c -7.3063,0 -13.22917,5.922875 -13.22917,13.229167 v 61.736111 c 0,7.306028 5.92287,13.229166 13.22917,13.229166 h 105.833329 c 7.306028,0 13.2291668,-5.923138 13.2291668,-13.229166 v -61.736111 c 0,-7.306292 -5.9231388,-13.229167 -13.2291668,-13.229167 z"
         fill="#47495f"
         id="path1051"
         style="fill:#000000;stroke-width:23.2007" />
    </g>
  </g>
  <style
     type="text/css"
     id="style965">
	.st0{fill:#000000;}
</style>
</svg>
