<?xml version="1.0" encoding="UTF-8" standalone="no"?>
<!-- Created with Inkscape (http://www.inkscape.org/) -->

<svg
   width="65mm"
   height="65mm"
   viewBox="0 0 65 65"
   version="1.1"
   id="svg5"
   inkscape:version="1.1.1 (3bf5ae0d25, 2021-09-20)"
   sodipodi:docname="icon-area.svg"
   xmlns:inkscape="http://www.inkscape.org/namespaces/inkscape"
   xmlns:sodipodi="http://sodipodi.sourceforge.net/DTD/sodipodi-0.dtd"
   xmlns="http://www.w3.org/2000/svg"
   xmlns:svg="http://www.w3.org/2000/svg">
  <sodipodi:namedview
     id="namedview7"
     pagecolor="#ffffff"
     bordercolor="#666666"
     borderopacity="1.0"
     inkscape:pageshadow="2"
     inkscape:pageopacity="0.0"
     inkscape:pagecheckerboard="0"
     inkscape:document-units="mm"
     showgrid="false"
     inkscape:zoom="1.0809568"
     inkscape:cx="-100.83659"
     inkscape:cy="102.22425"
     inkscape:window-width="1920"
     inkscape:window-height="1017"
     inkscape:window-x="1912"
     inkscape:window-y="-8"
     inkscape:window-maximized="1"
     inkscape:current-layer="layer6" />
  <defs
     id="defs2">
    <marker
       refX="0"
       refY="0"
       orient="auto"
       id="Scissors"
       style="overflow:visible">
      <path
         d="M 9.0898857,-3.6061018 C 8.1198849,-4.7769976 6.3697607,-4.7358294 5.0623558,-4.2327734 l -8.2124046,3.0779029 c -2.3882933,-1.3067135 -4.7482873,-0.9325372 -4.7482873,-1.5687873 0,-0.4973164 0.4566662,-0.3883222 0.3883068,-1.6831941 -0.065635,-1.2432767 -1.3635771,-2.1630796 -2.5903987,-2.0816435 -1.227271,-0.00735 -2.499439,0.9331613 -2.510341,2.2300611 -0.09143,1.3063864 1.007209,2.5196896 2.306764,2.6052316 1.5223406,0.2266616 4.218258,-0.6955566 5.482945,1.57086006 -0.9422847,1.73825774 -2.6140244,1.74307674 -4.1255107,1.65607034 -1.2548743,-0.072235 -2.7620933,0.2873979 -3.3606483,1.5208605 -0.578367,1.1820862 -0.0112,2.8646022 1.316749,3.226412 1.3401912,0.4918277 3.1806689,-0.129711 3.4993722,-1.6707242 0.2456585,-1.187823 -0.5953659,-1.7459574 -0.2725074,-2.1771537 0.2436135,-0.32536 1.7907806,-0.1368452 4.5471053,-1.3748244 L 5.6763468,4.2330688 C 6.8000164,4.5467672 8.1730685,4.5362646 9.1684433,3.4313614 L -0.05164093,-0.05372222 9.0898857,-3.6061018 z m -18.3078016,-1.900504 c 1.294559,0.7227998 1.1888392,2.6835702 -0.1564272,3.0632889 -1.2165179,0.423661 -2.7710269,-0.7589694 -2.3831779,-2.0774648 0.227148,-1.0818519 1.653387,-1.480632 2.5396051,-0.9858241 z m 0.056264,8.0173649 c 1.3508301,0.4988648 1.1214429,2.7844356 -0.2522207,3.091609 -0.9110594,0.3163391 -2.2135494,-0.1387976 -2.3056964,-1.2121394 -0.177609,-1.305055 1.356085,-2.4841482 2.5579171,-1.8794696 z"
         id="schere"
         style="marker-start:none" />
    </marker>
  </defs>
  <g
     inkscape:groupmode="layer"
     id="layer6"
     inkscape:label="dice"
     style="display:inline">
    <path
       d="m -193.41538,25.566298 c -0.10583,0.211667 -0.0353,0.493889 0.17639,0.599722 0.52916,0.352778 0.88194,-0.105833 0.42333,-0.564444 -0.24694,-0.246945 -0.45861,-0.246945 -0.59972,-0.03528 z"
       id="path968"
       style="fill:#000000;stroke:none;stroke-width:0.0352778" />
    <path
       d="m -210.91316,-5.4428706 c 0,0.2116667 0.14111,0.4586112 0.35278,0.5644445 0.21166,0.1058333 0.24694,-0.035278 0.14111,-0.3175 -0.24695,-0.6350001 -0.49389,-0.7408334 -0.49389,-0.2469445 z"
       id="path970"
       style="fill:#000000;stroke:none;stroke-width:0.0352778" />
    <path
       d="m -165.93399,51.742411 c 0.35278,0.388055 0.70556,0.705555 0.81139,0.705555 0.10583,0 -0.10583,-0.3175 -0.45861,-0.705555 -0.35278,-0.388056 -0.70556,-0.705556 -0.81139,-0.705556 -0.10583,0 0.10583,0.3175 0.45861,0.705556 z"
       id="path972"
       style="fill:#000000;stroke:none;stroke-width:0.0352778" />
    <path
       d="M 34.163771,6.4342692 A 2.2182994,2.2182994 0 0 1 31.945409,8.6526309 H 25.29032 a 2.2183632,2.2183632 0 0 1 0,-4.4367237 h 6.655089 a 2.2182994,2.2182994 0 0 1 2.218362,2.218362 z M 31.945409,48.583168 H 25.29032 a 2.2183639,2.2183639 0 0 0 0,4.436727 h 6.655089 a 2.2183639,2.2183639 0 0 0 0,-4.436727 z M 43.037226,8.6526309 h 5.545906 V 14.19854 a 2.2183637,2.2183637 0 0 0 4.436726,0 V 8.6526309 A 4.441809,4.441809 0 0 0 48.583132,4.2159072 h -5.545906 a 2.2183632,2.2183632 0 0 0 0,4.4367237 z m 7.76427,14.4192261 a 2.2182994,2.2182994 0 0 0 -2.218364,2.218362 v 6.65509 a 2.2183637,2.2183637 0 0 0 4.436726,0 v -6.65509 A 2.2182994,2.2182994 0 0 0 50.801496,23.071857 Z M 6.4342326,34.163674 A 2.2182994,2.2182994 0 0 0 8.652595,31.945309 v -6.65509 a 2.2183632,2.2183632 0 1 0 -4.4367245,0 v 6.65509 a 2.2182994,2.2182994 0 0 0 2.2183621,2.218365 z M 14.198503,48.583168 H 8.652595 v -5.545905 a 2.2183632,2.2183632 0 0 0 -4.4367245,0 v 5.545905 a 4.441809,4.441809 0 0 0 4.4367245,4.436727 h 5.545908 a 2.2183639,2.2183639 0 0 0 0,-4.436727 z m 0,-44.3672608 H 8.652595 A 4.441809,4.441809 0 0 0 4.2158705,8.6526309 V 14.19854 a 2.2183632,2.2183632 0 0 0 4.4367245,0 V 8.6526309 h 5.545908 a 2.2183632,2.2183632 0 0 0 0,-4.4367237 z M 58.565765,48.583168 h -5.545907 v -5.545905 a 2.2183637,2.2183637 0 0 0 -4.436726,0 v 5.545905 h -5.545906 a 2.2183639,2.2183639 0 0 0 0,4.436727 h 5.545906 v 5.545907 a 2.2183637,2.2183637 0 0 0 4.436726,0 v -5.545907 h 5.545907 a 2.2183639,2.2183639 0 0 0 0,-4.436727 z"
       id="path1019"
       style="fill:#000000;stroke-width:0.826824" />
  </g>
  <style
     type="text/css"
     id="style1414">
	.bentblocks_een{fill:#0B1719;}
</style>
</svg>
