<?xml version="1.0" encoding="UTF-8" standalone="no"?>
<!-- Created with Inkscape (http://www.inkscape.org/) -->

<svg
   width="65mm"
   height="65mm"
   viewBox="0 0 65 65"
   version="1.1"
   id="svg5"
   inkscape:version="1.1.1 (3bf5ae0d25, 2021-09-20)"
   sodipodi:docname="icon-logo.svg"
   xmlns:inkscape="http://www.inkscape.org/namespaces/inkscape"
   xmlns:sodipodi="http://sodipodi.sourceforge.net/DTD/sodipodi-0.dtd"
   xmlns="http://www.w3.org/2000/svg"
   xmlns:svg="http://www.w3.org/2000/svg">
  <sodipodi:namedview
     id="namedview7"
     pagecolor="#ffffff"
     bordercolor="#666666"
     borderopacity="1.0"
     inkscape:pageshadow="2"
     inkscape:pageopacity="0.0"
     inkscape:pagecheckerboard="0"
     inkscape:document-units="mm"
     showgrid="false"
     inkscape:zoom="1.4142136"
     inkscape:cx="36.062446"
     inkscape:cy="67.528698"
     inkscape:window-width="1920"
     inkscape:window-height="1017"
     inkscape:window-x="1912"
     inkscape:window-y="-8"
     inkscape:window-maximized="1"
     inkscape:current-layer="g38540" />
  <defs
     id="defs2" />
  <g
     inkscape:groupmode="layer"
     id="layer6"
     inkscape:label="icon"
     style="display:inline">
    <g
       id="g1661"
       transform="translate(1.9075525,-5.2361975)"
       style="stroke-width:6;stroke-miterlimit:4;stroke-dasharray:none">
      <g
         id="g38096"
         style="display:inline;stroke-width:1.07418"
         transform="matrix(0.93094049,0,0,0.93094049,-119.88907,-64.674832)">
        <g
           id="g38540"
           style="stroke-width:1.07418">
          <g
             id="g38314"
             transform="matrix(1.0298195,0,0,1.0298195,-204.30833,-7.6225381)"
             style="fill:#000000;stroke:none;stroke-width:1.04309">
            <path
               d="m 337.76673,81.47713 c 0.60507,0.117937 1.04092,0.266641 1.58446,0.543538 2.59463,1.322952 3.68171,4.471372 2.4408,7.101892 -0.72814,1.553699 -2.04084,2.620265 -3.72786,3.030483 -0.57943,0.143576 -1.97417,0.128193 -2.53822,-0.02564 -2.45617,-0.666603 -4.11756,-2.804863 -4.11756,-5.30719 0,-1.487039 0.62046,-2.892034 1.7383,-3.943217 0.71275,-0.671731 1.60498,-1.148609 2.51771,-1.34859 0.53841,-0.117938 1.62036,-0.143576 2.10237,-0.05128 z"
               id="path37051"
               style="fill:#000000;stroke:none;stroke-width:0.0367974" />
            <path
               d="m 341.45869,93.865701 c 1.45114,0.11281 2.68692,0.681987 3.71759,1.712659 0.59482,0.589688 0.61533,0.620454 3.48685,4.8098 l 2.41003,3.51762 4.61495,0.0154 4.61495,0.0154 0.28715,0.11794 c 0.86658,0.34869 1.40499,1.08708 1.46653,2.02032 0.0923,1.30244 -0.69737,2.37926 -1.90239,2.59976 -0.20511,0.0359 -1.97417,0.0564 -5.46102,0.0564 -5.65075,0 -5.56358,0 -6.18403,-0.30766 -0.16921,-0.082 -0.41022,-0.25126 -0.53841,-0.37433 -0.1846,-0.17947 -1.62036,-2.17415 -3.85092,-5.35846 l -0.22562,-0.32818 -0.0308,10.22468 c -0.0154,5.61998 -0.0359,15.06524 -0.041,20.98776 -0.0102,11.88605 0.0154,11.14253 -0.3333,11.84503 -0.45636,0.91786 -1.34859,1.49729 -2.44592,1.58959 -1.2204,0.10256 -2.47156,-0.5743 -2.97921,-1.61523 -0.37432,-0.76403 -0.34868,0.20511 -0.34868,-13.4859 v -12.30653 h -0.58969 -0.58969 v 12.19884 c 0,13.66025 0.0256,12.727 -0.36406,13.53718 -0.87172,1.79471 -3.43558,2.26646 -4.91236,0.89736 -0.3692,-0.34356 -0.58456,-0.67174 -0.76403,-1.15887 l -0.13845,-0.37432 -0.0256,-21.28004 -0.0256,-21.28004 -0.52815,-0.0154 -0.52303,-0.0154 v 7.63004 c 0,8.42997 0.0154,8.0095 -0.3333,8.712 -0.44098,0.89735 -1.47166,1.42038 -2.49207,1.26655 -1.02042,-0.15896 -1.82034,-0.96402 -1.99469,-2.00494 -0.041,-0.24613 -0.0513,-2.82538 -0.041,-9.16324 l 0.0205,-8.819677 0.11281,-0.492261 c 0.33331,-1.4614 0.90248,-2.527966 1.83573,-3.461211 1.15373,-1.148609 2.54847,-1.774191 4.26626,-1.917767 0.72301,-0.06153 10.05546,-0.0564 10.82975,0.0051 z"
               id="path37053"
               style="fill:#000000;stroke:none;stroke-width:0.0367974" />
            <path
               d="m 384.6569,119.61346 c -0.0154,0.0667 -0.30767,1.61524 -0.6461,3.45096 -0.96913,5.23027 -3.12791,16.89584 -3.79964,20.54165 -0.33843,1.82034 -0.61532,3.32789 -0.61532,3.3484 0,0.0154 -8.80518,0.0308 -12.45098,0.0308 h -6.62502 l -0.4256,-2.29722 c -0.9435,-5.04054 -4.58875,-25.0515 -4.70212,-25.07455 l -0.0256,-0.11281 h 1.93828 1.94341 l 0.23587,1.21527 c 0.30255,1.55883 1.90751,9.92727 3.1638,16.48562 0.53842,2.79974 1.01529,5.28155 1.06657,5.51743 l 0.0872,0.42047 h 3.35866 c 1.84598,0 9.18462,-0.0154 9.18975,-0.0359 0.0154,-0.0462 0.13845,-0.7025 0.78454,-4.16884 0.58969,-3.17406 1.1845,-6.35837 1.87162,-10.02469 0.32817,-1.74855 0.77941,-4.17396 1.00503,-5.38411 0.22562,-1.21527 0.48714,-2.61001 0.57943,-3.10227 l 0.16922,-0.89735 1.96392,-0.0154 1.95879,-0.0103 z"
               id="path37059"
               style="fill:#000000;stroke:none;stroke-width:0.0367974"
               sodipodi:nodetypes="cccssccscccscccsccccccccc" />
            <path
               id="path37090"
               style="fill:#000000;stroke:none;stroke-width:1.04309"
               d="m 353.51444,85.634038 v 1.05833 c 0,1.03313 0.022,1.05834 0.92604,1.05834 h 0.92604 V 101.509 115.26733 l 6.01927,-5.2e-4 6.01927,-0.001 0.92604,-1.78542 0.92604,-1.7849 7.54063,-0.13229 7.54062,-0.1323 0.0693,-11.840097 0.0687,-11.840065 h 0.92345 c 0.90083,0 0.92295,-0.0258 0.92295,-1.05834 v -1.05833 h -16.40417 z m 16.35146,7.14427 c 0.5407,-10e-4 0.95594,0.40346 1.26658,0.77979 1.49628,1.94053 2.90367,4.117457 3.23081,6.519462 0.31477,1.67515 -0.59198,3.41043 -2.27944,4.14083 -2.00369,1.19718 -4.84857,0.49047 -6.03324,-1.38441 -1.44532,-2.27808 -0.0714,-4.920768 1.06661,-7.034166 0.71893,-1.050556 1.19097,-2.570296 2.57659,-3.007556 0.0586,-0.009 0.11613,-0.0139 0.17209,-0.014 z" />
            <path
               d="m 367.6506,128.40611 1.43576,1.43576 -1.45114,1.45115 -1.44602,1.44601 -1.44601,-1.44601 -1.45115,-1.45115 1.43576,-1.43576 c 0.78967,-0.78967 1.44602,-1.43576 1.4614,-1.43576 0.0154,0 0.67173,0.64609 1.4614,1.43576 z"
               id="path37055"
               style="fill:#000000;stroke:none;stroke-width:0.0367974" />
            <path
               d="m 375.29762,131.5101 1.43576,1.43576 -1.45114,1.45115 -1.44602,1.44601 -1.44602,-1.44601 -1.45114,-1.45115 1.43576,-1.43576 c 0.78967,-0.78967 1.44602,-1.43576 1.4614,-1.43576 0.0154,0 0.67173,0.64609 1.4614,1.43576 z"
               id="path37057"
               style="fill:#000000;stroke:none;stroke-width:0.0367974" />
            <path
               d="m 372.05001,139.31961 v 1.97417 h -2.02544 -2.02545 v -1.97417 -1.97417 h 2.02545 2.02544 z"
               id="path37061"
               style="fill:#000000;stroke:none;stroke-width:0.0367974" />
          </g>
        </g>
      </g>
    </g>
  </g>
</svg>
