<?xml version="1.0" encoding="UTF-8" standalone="no"?>
<!-- Created with Inkscape (http://www.inkscape.org/) -->

<svg
   width="65mm"
   height="65mm"
   viewBox="0 0 65 65"
   version="1.1"
   id="svg5"
   inkscape:version="1.1.1 (3bf5ae0d25, 2021-09-20)"
   sodipodi:docname="icon-target.svg"
   xmlns:inkscape="http://www.inkscape.org/namespaces/inkscape"
   xmlns:sodipodi="http://sodipodi.sourceforge.net/DTD/sodipodi-0.dtd"
   xmlns="http://www.w3.org/2000/svg"
   xmlns:svg="http://www.w3.org/2000/svg">
  <sodipodi:namedview
     id="namedview7"
     pagecolor="#ffffff"
     bordercolor="#666666"
     borderopacity="1.0"
     inkscape:pageshadow="2"
     inkscape:pageopacity="0.0"
     inkscape:pagecheckerboard="0"
     inkscape:document-units="mm"
     showgrid="false"
     inkscape:zoom="0.38217594"
     inkscape:cx="-368.94002"
     inkscape:cy="-69.339791"
     inkscape:window-width="1920"
     inkscape:window-height="1017"
     inkscape:window-x="1912"
     inkscape:window-y="-8"
     inkscape:window-maximized="1"
     inkscape:current-layer="layer6" />
  <defs
     id="defs2" />
  <g
     inkscape:groupmode="layer"
     id="layer6"
     inkscape:label="dice"
     style="display:inline">
    <path
       id="path1211"
       style="fill:#000000;stroke-width:0.150125"
       d="m 32.405335,4.0839439 c -0.886132,-0.010132 -1.788294,0.7038277 -1.772567,1.6328618 -0.04711,0.9465808 0.0042,1.8950754 -0.01758,2.8425132 0,1.245918 0,2.4918361 0,3.7377541 -4.623689,0.493448 -9.119668,2.522517 -12.433881,5.839265 -2.841163,2.846105 -4.775698,6.534209 -5.535921,10.455911 -0.135099,0.674478 -0.224034,1.335312 -0.31682,2.01556 -2.278502,0.01456 -4.5587427,-0.03017 -6.8360829,0.031 -0.8421664,0.127329 -1.4262196,0.969819 -1.4119487,1.794912 -0.044236,0.842382 0.4844957,1.78527 1.3755239,1.909838 0.7420921,0.121345 1.4968188,0.0059 2.2442189,0.05023 1.5366164,0 3.0732328,0 4.6098488,0 0.323263,3.32375 1.428564,6.600328 3.296599,9.364951 2.326288,3.47733 5.762111,6.174942 9.66855,7.643365 1.713899,0.654843 3.516894,1.050877 5.336367,1.266957 0.01454,2.277324 -0.03013,4.556372 0.03098,6.832541 0.126706,0.829702 0.945068,1.408978 1.758661,1.410975 0.846897,0.05583 1.807442,-0.460163 1.942567,-1.357532 0.127189,-0.759725 0.01023,-1.532741 0.05377,-2.298262 0,-1.522386 0,-3.04477 0,-4.567154 2.635937,-0.249357 5.253202,-0.953073 7.590271,-2.229437 3.656143,-1.950199 6.635704,-5.087812 8.506184,-8.776012 0.989936,-1.949016 1.705028,-4.124101 2.053367,-6.285572 0.05668,-0.338388 0.100825,-0.667658 0.148149,-1.012622 2.271172,-0.01457 4.544085,0.03018 6.814096,-0.03101 0.845393,-0.127749 1.424,-0.975849 1.409867,-1.802002 0.0429,-0.830242 -0.470095,-1.758587 -1.345062,-1.896386 -0.750785,-0.133484 -1.5168,-0.0118 -2.274016,-0.05659 -1.533073,0 -3.066141,0 -4.599213,0 C 52.437357,28.355355 51.824219,26.115647 50.893384,24.079854 49.732233,21.548238 48.09786,19.291442 46.03754,17.425563 43.118125,14.779441 39.406182,12.965076 35.48545,12.40959 35.135294,12.35504 34.760948,12.307026 34.400457,12.259473 34.385727,10.00604 34.431927,7.7508382 34.370107,5.4985817 34.253745,4.6604734 33.396339,4.067987 32.60301,4.0862782 c -0.06582,-0.00501 -0.131751,-0.00218 -0.197674,-0.00218 z m -0.04185,11.8608071 c 4.565364,-0.0244 9.111803,1.936683 12.187167,5.31937 2.943836,3.202663 4.613469,7.578452 4.439806,11.933873 -0.238225,4.142634 -2.008349,8.196318 -4.969404,11.115726 -2.249617,2.239137 -5.174498,3.784764 -8.29501,4.371481 -4.139976,0.809144 -8.580117,-0.01534 -12.129644,-2.303738 -3.587668,-2.279185 -6.295514,-5.977267 -7.181136,-10.154258 -0.836363,-3.876852 -0.149224,-8.021834 1.751393,-11.489213 2.039608,-3.765597 5.498066,-6.806942 9.612494,-8.083389 1.48104,-0.465327 3.03222,-0.702252 4.584334,-0.709852 z m -0.273771,7.371955 c -0.891954,0.04344 -1.755624,0.220875 -2.574644,0.510362 -3.247136,1.140397 -5.761275,4.196236 -6.138866,7.632868 -0.343361,2.684634 0.667913,5.461974 2.549946,7.386926 1.813156,1.882112 4.44097,2.982708 7.062479,2.824872 2.345128,-0.106166 4.693582,-1.227467 6.242094,-3.039103 1.329411,-1.503719 2.139946,-3.427376 2.395826,-5.410777 0.188116,-0.942663 -0.07353,-1.922444 -0.266346,-2.825399 -0.407628,-1.552664 -1.156061,-2.956651 -2.228177,-4.150241 -1.660235,-1.872685 -4.145144,-2.961863 -6.645271,-2.937624 -0.132396,-0.0022 -0.264693,0.0057 -0.397041,0.0081 z m 0.304269,3.929252 c 2.044256,-0.01793 4.13449,1.133315 4.985376,3.033229 0.666805,1.365568 0.677572,3.02547 0.01644,4.39559 -0.682438,1.506633 -2.132784,2.598186 -3.743038,2.928456 -1.942901,0.433019 -4.167752,-0.161338 -5.441073,-1.741397 -1.174885,-1.467129 -1.393697,-3.556109 -0.797379,-5.307347 0.525504,-1.501332 1.830392,-2.683922 3.366488,-3.08657 0.524238,-0.148274 1.068889,-0.217685 1.613186,-0.221961 z" />
  </g>
</svg>
