<?xml version="1.0" encoding="UTF-8" standalone="no"?>
<!-- Created with Inkscape (http://www.inkscape.org/) -->

<svg
   width="65mm"
   height="65mm"
   viewBox="0 0 65 65"
   version="1.1"
   id="svg5"
   inkscape:version="1.1.1 (3bf5ae0d25, 2021-09-20)"
   sodipodi:docname="icon-toss.svg"
   xmlns:inkscape="http://www.inkscape.org/namespaces/inkscape"
   xmlns:sodipodi="http://sodipodi.sourceforge.net/DTD/sodipodi-0.dtd"
   xmlns="http://www.w3.org/2000/svg"
   xmlns:svg="http://www.w3.org/2000/svg">
  <sodipodi:namedview
     id="namedview7"
     pagecolor="#ffffff"
     bordercolor="#666666"
     borderopacity="1.0"
     inkscape:pageshadow="2"
     inkscape:pageopacity="0.0"
     inkscape:pagecheckerboard="0"
     inkscape:document-units="mm"
     showgrid="false"
     inkscape:zoom="1.5287037"
     inkscape:cx="-29.436705"
     inkscape:cy="182.83465"
     inkscape:window-width="1920"
     inkscape:window-height="1017"
     inkscape:window-x="1912"
     inkscape:window-y="-8"
     inkscape:window-maximized="1"
     inkscape:current-layer="layer6" />
  <defs
     id="defs2">
	
	
	
	
	
</defs>
  <g
     inkscape:groupmode="layer"
     id="layer6"
     inkscape:label="dice"
     style="display:inline">
    <path
       style="fill:none;stroke:#000000;stroke-width:3;stroke-linecap:butt;stroke-linejoin:miter;stroke-miterlimit:4;stroke-dasharray:none;stroke-opacity:1"
       d="m 21.644419,2.4643878 c 0,0 -12.4912337,-2.46949413 -14.2672054,9.2081642"
       id="path2189" />
    <path
       style="fill:none;stroke:#000000;stroke-width:3;stroke-linecap:butt;stroke-linejoin:miter;stroke-miterlimit:4;stroke-dasharray:none;stroke-opacity:1"
       d="m 23.199779,6.8319735 c 0,0 -9.488862,-3.1359391 -11.659587,7.9040495"
       id="path828"
       sodipodi:nodetypes="cc" />
    <path
       style="display:inline;fill:none;stroke:#000000;stroke-width:3;stroke-linecap:butt;stroke-linejoin:miter;stroke-miterlimit:4;stroke-dasharray:none;stroke-opacity:1"
       d="m 48.180995,61.766422 c 0,0 12.491234,2.469494 14.267205,-9.208164"
       id="path2189-3" />
    <path
       style="display:inline;fill:none;stroke:#000000;stroke-width:3;stroke-linecap:butt;stroke-linejoin:miter;stroke-miterlimit:4;stroke-dasharray:none;stroke-opacity:1"
       d="m 46.625635,57.398836 c 0,0 9.488862,3.135939 11.659587,-7.904049"
       id="path828-6"
       sodipodi:nodetypes="cc" />
    <g
       id="g1398"
       transform="matrix(0.27261665,-0.09489018,0.09489018,0.27261665,17.149249,16.936049)"
       style="stroke-width:3.4643">
      <path
         class="st0"
         d="m 90.623794,41.139059 c -3.256442,-3.81 -7.909801,-7.190052 -13.647539,-10.023161 h 0.0066 C 65.53964,25.449681 49.847368,21.981985 32.506824,21.972064 l -0.04878,0.0029 v -0.0029 c -11.387832,0.0029 -22.075345,1.497789 -31.3138512,4.129153 -9.2385059,2.631364 -17.0143618,6.38266 -22.6156738,10.941761 l 0.0095,-0.0066 c -3.741373,3.041468 -6.49304,6.434749 -8.020182,10.124446 -0.873125,2.093929 -1.332012,4.301547 -1.328704,6.538516 0,1.840094 1.491588,3.334577 3.334576,3.334577 1.843402,0 3.334577,-1.494483 3.334577,-3.334577 0.0033,-1.344827 0.257556,-2.624336 0.820622,-3.992314 0.973584,-2.370502 2.963333,-4.982022 6.060199,-7.489776 l 0.0095,-0.0066 c 4.611191,-3.777341 11.6515886,-7.268187 20.222435,-9.694086 8.570846,-2.445742 18.685371,-3.875319 29.486986,-3.872012 h 0.1757 c 16.383082,0.0033 31.183213,3.367237 41.382487,8.447237 l 0.0099,0.0033 c 5.11886,2.52057 9.069007,5.48349 11.527565,8.375303 1.237754,1.44942 2.116667,2.872383 2.680146,4.236641 0.703627,1.703255 2.650795,2.511061 4.35405,1.807434 1.703255,-0.703212 2.510648,-2.650794 1.807435,-4.353636 -0.870231,-2.104264 -2.139818,-4.120058 -3.771553,-6.021751 z"
         id="path973"
         style="stroke-width:1.43218" />
      <path
         class="st0"
         d="m 127.54847,39.100527 c -1.40684,-3.393281 -3.33127,-6.548437 -5.65341,-9.462988 -2.32172,-2.911244 -5.03742,-5.588083 -8.05987,-8.049948 l -0.1852,-0.149655 0.179,0.149655 C 104.75006,14.20861 92.802059,8.5684372 78.962697,4.6087822 h -0.0033 C 65.106798,0.67186487 49.303319,-1.5262439 32.50021,-1.5262439 c -12.80418,0 -25.0225557,1.27661462 -36.2437829,3.6243783 C -14.965214,4.4463115 -25.190119,7.8652243 -34.008599,12.222168 l -0.0066,0.0033 c -8.808558,4.370172 -16.298333,9.691191 -21.857064,16.180924 l 0.100873,-0.124023 -0.10418,0.124023 c -2.774404,3.250241 -5.066771,6.815915 -6.672461,10.694128 -1.608584,3.88152 -2.504033,8.066071 -2.501139,12.374232 v 33.847236 c -0.0029,4.311882 0.892555,8.499327 2.501139,12.380847 1.406839,3.393275 3.331683,6.545125 5.653402,9.459675 2.325026,2.91455 5.037419,5.58809 8.059043,8.04995 l 0.0066,0.003 c 9.07893,7.37236 21.023213,13.02535 34.862989,16.97839 l 0.07441,0.0165 c 13.83770834,3.92451 29.61473,6.11932 46.391794,6.12262 h 0.0033 c 12.800872,-0.003 25.018835,-1.27992 36.240475,-3.62768 11.221641,-2.34818 21.446547,-5.7704 30.265027,-10.12445 l 0.0062,-0.006 c 8.808561,-4.37059 16.295031,-9.6945 21.857061,-16.17803 l 0.003,-0.006 c 2.77441,-3.24363 5.06346,-6.80558 6.66915,-10.687512 l -0.10087,0.237712 0.10418,-0.237712 c 1.60528,-3.881933 2.50114,-8.069378 2.50114,-12.380846 v -33.84728 c 0,-4.308574 -0.89545,-8.493125 -2.50072,-12.374645 z M -43.22106,102.94903 c -1.025674,-0.96697 -1.983135,-1.95047 -2.836003,-2.9439 -2.022409,-2.370501 -3.540042,-4.7964 -4.5529,-7.238834 -1.012858,-2.448637 -1.520527,-4.913809 -1.520527,-7.443887 v -15.34418 c 1.97652,2.439128 4.311468,4.741416 6.95234,6.897357 0.635413,0.510976 1.286537,1.016165 1.95709,1.517633 z m 18.704801,11.79174 c -1.286123,-0.56017 -2.552815,-1.13358 -3.767832,-1.73881 -2.829801,-1.40022 -5.43512,-2.89512 -7.811823,-4.45451 V 83.049886 c 3.546244,2.035225 7.42115,3.900951 11.579655,5.581468 z m 23.1626177,7.26488 c -5.8679623,-1.24106 -11.3746027,-2.79425 -16.4512957,-4.60789 h 0.420026 V 91.232952 c 1.631322,0.540329 3.305225,1.051719 5.011374,1.540372 3.5301203,1.002936 7.2165103,1.881849 11.0198957,2.647487 z m 30.2881773,3.37013 C 20.865158,125.21289 13.108318,124.47702 5.7748125,123.29177 V 96.66766 c 7.3756735,1.139362 15.1325135,1.807021 23.1597235,1.963704 z m 31.183213,-2.24359 c -7.593955,1.2667 -15.650104,2.06127 -24.051865,2.22416 V 98.647074 c 8.349257,-0.162885 16.415742,-0.888835 24.051865,-2.100544 z m 23.163031,-5.89731 c -2.513955,0.91199 -5.13209,1.75865 -7.858125,2.53339 -2.630951,0.7491 -5.372696,1.41634 -8.17976,2.02861 V 95.244284 c 5.64348,-1.16582 11.009974,-2.618135 16.037885,-4.314776 z m 18.7077,-9.2939 c -3.373442,2.31221 -7.255376,4.46153 -11.582967,6.4149 V 88.259284 c 2.084007,-0.863203 4.106416,-1.768574 6.037461,-2.722315 1.931045,-0.960768 3.777336,-1.967011 5.545506,-3.009222 z m 15.14243,-22.618985 c 0,2.530079 -0.50767,4.995664 -1.52383,7.443887 -1.30266,3.165078 -3.48754,6.314447 -6.49346,9.333178 V 78.021149 h -0.42333 c 2.95672,-2.256813 5.57816,-4.663281 7.78288,-7.238835 0.22448,-0.263756 0.43946,-0.53082 0.65733,-0.797884 v 15.337565 z m -1.52383,-26.409137 c -1.75824,4.272194 -5.11266,8.512142 -9.9318,12.436243 -7.213205,5.887393 -17.675822,10.993851 -30.252212,14.565726 -12.572669,3.582211 -27.25291,5.650095 -42.922445,5.650095 -23.872858,0.0099 -45.466165,-4.819551 -60.7843,-12.416813 -7.658861,-3.786849 -13.728981,-8.254587 -17.773386,-12.99931 -2.022409,-2.367608 -3.540042,-4.793506 -4.5529,-7.235528 -1.012858,-2.449049 -1.520527,-4.910914 -1.520527,-7.437685 0,-2.526771 0.507669,-4.988636 1.520527,-7.437686 1.765267,-4.275501 5.112659,-8.515449 9.935518,-12.432936 7.21651,-5.891113 17.67582,-11.000052 30.25221,-14.572341 12.5730827,-3.578489 27.256217,-5.643479 42.922858,-5.643479 23.872858,-0.01323 45.462445,4.81955 60.780993,12.413505 7.662164,3.783956 13.735184,8.258308 17.773384,12.996003 2.0253,2.367608 3.54294,4.793506 4.55249,7.238835 1.01616,2.449049 1.52383,4.910501 1.52383,7.437685 0,2.527185 -0.50808,4.988636 -1.52424,7.437686 z"
         id="path975"
         style="stroke-width:1.43218" />
    </g>
  </g>
  <style
     type="text/css"
     id="style965">
	.st0{fill:#000000;}
</style>
</svg>
