<?xml version="1.0" encoding="UTF-8" standalone="no"?>
<!-- Created with Inkscape (http://www.inkscape.org/) -->

<svg
   width="65mm"
   height="65mm"
   viewBox="0 0 65 65"
   version="1.1"
   id="svg5"
   inkscape:version="1.1.1 (3bf5ae0d25, 2021-09-20)"
   sodipodi:docname="icon-folder.svg"
   xmlns:inkscape="http://www.inkscape.org/namespaces/inkscape"
   xmlns:sodipodi="http://sodipodi.sourceforge.net/DTD/sodipodi-0.dtd"
   xmlns="http://www.w3.org/2000/svg"
   xmlns:svg="http://www.w3.org/2000/svg">
  <sodipodi:namedview
     id="namedview7"
     pagecolor="#ffffff"
     bordercolor="#666666"
     borderopacity="1.0"
     inkscape:pageshadow="2"
     inkscape:pageopacity="0.0"
     inkscape:pagecheckerboard="0"
     inkscape:document-units="mm"
     showgrid="false"
     inkscape:zoom="1.0809568"
     inkscape:cx="110.08766"
     inkscape:cy="264.11786"
     inkscape:window-width="1920"
     inkscape:window-height="1017"
     inkscape:window-x="1912"
     inkscape:window-y="-8"
     inkscape:window-maximized="1"
     inkscape:current-layer="layer6" />
  <defs
     id="defs2" />
  <g
     inkscape:groupmode="layer"
     id="layer6"
     inkscape:label="icon"
     style="display:inline">
    <path
       d="m 15.483615,6.3552002 c -1.424607,0.2598623 -2.570788,1.1044173 -3.229727,2.3712494 -0.324828,0.631096 -0.45476,1.1276198 -0.482603,1.8376024 l -0.02784,0.589332 -2.5336649,0.01392 -2.5336642,0.01856 -0.4454787,0.120652 C 4.5693708,11.756637 3.3628641,12.963144 2.935946,14.61513 l -0.1113697,0.417637 v 19.930565 c 0,18.756539 0.00462,19.949124 0.078883,20.24147 0.4361984,1.698391 1.6612665,2.937381 3.3457365,3.392141 l 0.380514,0.102089 H 32.476797 c 24.594176,0 25.865648,-0.0046 26.195117,-0.08353 1.68447,-0.399075 3.020908,-1.735513 3.419984,-3.419982 0.07888,-0.329469 0.08353,-1.35036 0.08353,-20.255392 v -19.90736 l -0.11137,-0.417637 C 61.637136,12.963145 60.444551,11.76592 58.769362,11.306519 l -0.445479,-0.125291 -12.09291,-0.01392 -12.092911,-0.0093 -0.02784,-0.524367 C 34.063822,9.8772701 33.933887,9.3807454 33.595137,8.7125256 33.140376,7.8076469 32.221576,6.9816534 31.237808,6.5918591 30.486061,6.2948721 31.01971,6.3134336 23.056765,6.3041533 c -5.805154,-0.00929 -7.304006,0 -7.57315,0.051044 z m 14.598731,2.8956159 c 0.46404,0.1438524 0.770308,0.4176369 0.997688,0.8863189 l 0.143853,0.301626 0.0232,1.276113 c 0.02321,1.169384 0.03248,1.294675 0.120651,1.489572 0.143852,0.310908 0.361952,0.529007 0.6775,0.691422 l 0.283065,0.139212 h 12.677601 c 8.955993,0 12.756489,0.01392 12.946746,0.05104 0.538287,0.09745 0.983768,0.440838 1.211147,0.937364 l 0.134571,0.287705 0.01392,1.243629 c 0.01392,1.187944 0.01392,1.248272 -0.06961,1.220428 -0.0464,-0.01392 -0.250582,-0.07425 -0.454759,-0.129931 l -0.371233,-0.10673 H 32.5 6.583306 l -0.3712319,0.10673 c -0.2041797,0.05569 -0.4083567,0.116011 -0.4547617,0.129931 -0.083526,0.02784 -0.083526,-0.03248 -0.069607,-1.220428 l 0.01392,-1.243629 0.1345731,-0.287705 C 5.9800508,14.707939 6.2909573,14.38311 6.5879443,14.229977 6.9452549,14.049 7.2097591,14.035079 10.388441,14.035079 c 3.461746,0 3.322533,0.01392 3.73089,-0.352671 0.134571,-0.12065 0.287705,-0.320189 0.361952,-0.473321 l 0.129931,-0.264505 0.0232,-1.299316 c 0.02321,-1.234347 0.03248,-1.308595 0.129932,-1.512772 0.222739,-0.4547607 0.612534,-0.7842305 1.071935,-0.9048813 0.162414,-0.046401 1.795839,-0.060321 7.090547,-0.060321 6.631147,-0.00462 6.881729,0 7.155514,0.083526 z M 58.356368,20.540935 c 0.338749,0.157774 0.658938,0.477962 0.816712,0.816712 l 0.125291,0.264504 V 38.09561 54.569067 l -0.129931,0.278424 c -0.167055,0.361951 -0.482603,0.6775 -0.839914,0.844555 L 58.04546,55.821978 H 32.5 6.9545388 L 6.6761142,55.692046 C 6.3141625,55.524991 5.9986141,55.209442 5.8315601,54.852131 L 5.701628,54.569067 V 38.09561 21.622151 l 0.1020894,-0.22274 C 6.0171765,20.94001 6.3466453,20.638385 6.8060453,20.48061 7.0380667,20.39708 8.1053611,20.39708 32.569606,20.40636 l 25.522258,0.0093 z"
       id="path837"
       style="fill:#000000;stroke:#000000;stroke-width:1;stroke-miterlimit:4;stroke-dasharray:none" />
  </g>
</svg>
