<?xml version="1.0" encoding="UTF-8" standalone="no"?>
<!-- Created with Inkscape (http://www.inkscape.org/) -->

<svg
   width="512mm"
   height="512mm"
   viewBox="0 0 512 512"
   version="1.1"
   id="svg5"
   inkscape:version="1.1.1 (3bf5ae0d25, 2021-09-20)"
   sodipodi:docname="icon.svg"
   inkscape:export-filename="C:\Users\FrancescoCottone\Desktop\KesieV\stuff-2024\pencil\icons\icon-512x512.png"
   inkscape:export-xdpi="25.4"
   inkscape:export-ydpi="25.4"
   xmlns:inkscape="http://www.inkscape.org/namespaces/inkscape"
   xmlns:sodipodi="http://sodipodi.sourceforge.net/DTD/sodipodi-0.dtd"
   xmlns="http://www.w3.org/2000/svg"
   xmlns:svg="http://www.w3.org/2000/svg">
  <sodipodi:namedview
     id="namedview7"
     pagecolor="#ffffff"
     bordercolor="#666666"
     borderopacity="1.0"
     inkscape:pageshadow="2"
     inkscape:pageopacity="0.0"
     inkscape:pagecheckerboard="0"
     inkscape:document-units="mm"
     showgrid="false"
     inkscape:zoom="0.35355339"
     inkscape:cx="811.75858"
     inkscape:cy="1370.3729"
     inkscape:window-width="1920"
     inkscape:window-height="1017"
     inkscape:window-x="1912"
     inkscape:window-y="-8"
     inkscape:window-maximized="1"
     inkscape:current-layer="g38314" />
  <defs
     id="defs2" />
  <g
     inkscape:label="Common"
     inkscape:groupmode="layer"
     id="layer1"
     style="display:inline">
    <text
       xml:space="preserve"
       style="font-style:normal;font-weight:normal;font-size:10.5833px;line-height:1.25;font-family:sans-serif;fill:#000000;fill-opacity:1;stroke:none;stroke-width:0.264583"
       x="79.961533"
       y="229.15384"
       id="text45871"><tspan
         sodipodi:role="line"
         id="tspan45869"
         style="stroke-width:0.264583"
         x="79.961533"
         y="229.15384" /></text>
    <g
       id="g38096"
       transform="matrix(8.0490305,0,0,8.0490305,-1045.0824,-629.45884)"
       style="stroke-width:1.46224">
      <g
         id="g38540"
         style="stroke-width:1.46224">
        <rect
           style="fill:#000000;stroke:none;stroke-width:5.84897;stroke-linecap:square;stroke-linejoin:round;paint-order:stroke fill markers"
           id="rect38356"
           width="63.610146"
           height="63.610146"
           x="129.83954"
           y="78.203064"
           ry="5.60816"
           rx="5.60816" />
        <g
           id="g38314"
           transform="matrix(0.55635411,0,0,0.55635411,-36.059377,46.458835)"
           style="fill:#ffffff;stroke:none;stroke-width:2.14843">
          <path
             d="m 341.61993,88.6508 c 0.47253,0.0921 0.8129,0.208231 1.23737,0.42447 2.02625,1.033146 2.87519,3.491871 1.90612,5.546148 -0.56864,1.213345 -1.59378,2.046268 -2.91124,2.366623 -0.4525,0.112125 -1.5417,0.100111 -1.98219,-0.02002 -1.91812,-0.520576 -3.21557,-2.190428 -3.21557,-4.144594 0,-1.161287 0.48454,-2.258503 1.35751,-3.079413 0.55661,-0.524582 1.25339,-0.896994 1.96618,-1.053168 0.42046,-0.0921 1.2654,-0.112124 1.64182,-0.04005 z"
             id="path37051"
             style="fill:#ffffff;stroke:none;stroke-width:0.0591884" />
          <path
             d="m 344.50313,98.325524 c 1.13325,0.0881 2.09832,0.53259 2.90321,1.337483 0.46452,0.460513 0.48054,0.484533 2.72302,3.756163 l 1.88209,2.74705 3.60399,0.012 3.604,0.012 0.22425,0.0921 c 0.67674,0.27231 1.09721,0.84895 1.14527,1.57775 0.0721,1.01713 -0.5446,1.85806 -1.48565,2.03026 -0.16018,0.028 -1.54171,0.044 -4.26473,0.044 -4.41289,0 -4.34482,0 -4.82935,-0.24026 -0.13214,-0.064 -0.32036,-0.19622 -0.42047,-0.29233 -0.14416,-0.14016 -1.2654,-1.69788 -3.00733,-4.18463 l -0.1762,-0.25629 -0.0241,7.98485 c -0.012,4.38887 -0.028,11.76504 -0.032,16.39017 -0.008,9.28229 0.012,8.70164 -0.26029,9.25025 -0.35639,0.7168 -1.05316,1.1693 -1.91011,1.24138 -0.95306,0.0801 -1.93014,-0.4485 -2.32658,-1.2614 -0.29233,-0.59666 -0.2723,0.16018 -0.2723,-10.53167 v -9.61066 h -0.46051 -0.46052 v 9.52656 c 0,10.66783 0.02,9.93902 -0.28431,10.57172 -0.68076,1.40156 -2.68298,1.76997 -3.83625,0.70078 -0.28832,-0.2683 -0.45651,-0.52459 -0.59666,-0.90501 l -0.10812,-0.29232 -0.02,-16.61842 -0.02,-16.61842 -0.41245,-0.012 -0.40845,-0.012 v 5.95859 c 0,6.5833 0.012,6.25494 -0.26029,6.80355 -0.34438,0.70077 -1.14928,1.10923 -1.94616,0.9891 -0.79688,-0.12414 -1.42157,-0.75284 -1.55773,-1.56574 -0.032,-0.19221 -0.0401,-2.20645 -0.032,-7.15593 l 0.016,-6.88764 0.0881,-0.38442 c 0.26029,-1.14127 0.70478,-1.97419 1.43359,-2.703 0.901,-0.896994 1.9902,-1.385536 3.33169,-1.49766 0.56463,-0.04805 7.85271,-0.04405 8.45738,0.004 z"
             id="path37053"
             style="fill:#ffffff;stroke:none;stroke-width:0.0591884" />
          <path
             d="m 378.23831,118.43296 c -0.012,0.0521 -0.24027,1.26141 -0.50456,2.69499 -0.75683,4.08453 -2.44271,13.19463 -2.96729,16.04179 -0.26429,1.42157 -0.48053,2.59888 -0.48053,2.6149 0,0.012 -6.87631,0.0241 -9.72346,0.0241 h -5.17374 l -0.33236,-1.79399 c -0.73682,-3.93636 -3.58354,-19.5637 -3.67208,-19.58171 l -0.02,-0.0881 h 1.51368 1.51769 l 0.1842,0.94905 c 0.23627,1.21735 1.48965,7.7526 2.47073,12.87427 0.42048,2.18643 0.79288,4.12457 0.83293,4.30878 l 0.0681,0.32836 h 2.62291 c 1.4416,0 7.17263,-0.012 7.17664,-0.028 0.012,-0.0361 0.10812,-0.54861 0.61267,-3.25561 0.46052,-2.47875 0.92503,-4.9655 1.46163,-7.82867 0.25628,-1.36551 0.60867,-3.25961 0.78486,-4.20467 0.1762,-0.94905 0.38043,-2.03826 0.4525,-2.42268 l 0.13215,-0.70078 1.53371,-0.012 1.52969,-0.008 z"
             id="path37059"
             style="fill:#ffffff;stroke:none;stroke-width:0.0591884"
             sodipodi:nodetypes="cccssccscccscccsccccccccc" />
          <path
             id="path37090"
             d="m 353.91794,91.897093 v 0.826492 c 0,0.806812 0.0172,0.826499 0.72318,0.826499 h 0.72318 v 10.744396 10.74442 l 4.70069,-4.1e-4 4.70068,-7.8e-4 0.72318,-1.3943 0.72319,-1.3939 5.88877,-0.10331 5.88877,-0.10332 0.0541,-9.2464 0.0537,-9.246372 h 0.72116 c 0.70349,0 0.72076,-0.02015 0.72076,-0.8265 v -0.826491 h -12.81066 z m 12.7695,5.579243 c 0.42225,-7.81e-4 0.74653,0.315077 0.98912,0.608968 1.16851,1.515437 2.26759,3.215486 2.52307,5.091306 0.24582,1.30819 -0.4623,2.66334 -1.78011,3.23374 -1.56476,0.93492 -3.78644,0.38302 -4.71159,-1.08114 -1.12871,-1.77905 -0.0558,-3.84283 0.83296,-5.493261 0.56144,-0.820421 0.93007,-2.007246 2.01216,-2.348719 0.0458,-0.007 0.0907,-0.01085 0.13439,-0.01093 z"
             style="fill:#ffffff;stroke:none;stroke-width:1.67779" />
          <path
             d="m 364.95742,125.29949 1.12125,1.12124 -1.13326,1.13326 -1.12925,1.12925 -1.12925,-1.12925 -1.13326,-1.13326 1.12124,-1.12124 c 0.61669,-0.61668 1.12926,-1.12124 1.14127,-1.12124 0.012,0 0.52458,0.50456 1.14126,1.12124 z"
             id="path37055"
             style="fill:#ffffff;stroke:none;stroke-width:0.0591884" />
          <path
             d="m 370.92928,127.72352 1.12125,1.12124 -1.13326,1.13326 -1.12925,1.12925 -1.12925,-1.12925 -1.13326,-1.13326 1.12124,-1.12124 c 0.61669,-0.61669 1.12926,-1.12124 1.14127,-1.12124 0.012,0 0.52458,0.50455 1.14126,1.12124 z"
             id="path37057"
             style="fill:#ffffff;stroke:none;stroke-width:0.0591884" />
          <path
             d="m 368.3931,133.82227 v 1.54171 h -1.58175 -1.58175 v -1.54171 -1.5417 h 1.58175 1.58175 z"
             id="path37061"
             style="fill:#ffffff;stroke:none;stroke-width:0.0591884" />
        </g>
      </g>
    </g>
  </g>
</svg>
