<?xml version="1.0" encoding="UTF-8" standalone="no"?>
<!-- Created with Inkscape (http://www.inkscape.org/) -->

<svg
   width="328mm"
   height="20mm"
   viewBox="0 0 328 20"
   version="1.1"
   id="svg5"
   inkscape:version="1.1.1 (3bf5ae0d25, 2021-09-20)"
   sodipodi:docname="stamps.svg"
   xmlns:inkscape="http://www.inkscape.org/namespaces/inkscape"
   xmlns:sodipodi="http://sodipodi.sourceforge.net/DTD/sodipodi-0.dtd"
   xmlns="http://www.w3.org/2000/svg"
   xmlns:svg="http://www.w3.org/2000/svg">
  <sodipodi:namedview
     id="namedview7"
     pagecolor="#ffffff"
     bordercolor="#666666"
     borderopacity="1.0"
     inkscape:pageshadow="2"
     inkscape:pageopacity="0.0"
     inkscape:pagecheckerboard="false"
     inkscape:document-units="mm"
     showgrid="false"
     inkscape:zoom="1.8957351"
     inkscape:cx="187.26245"
     inkscape:cy="-60.926234"
     inkscape:window-width="1920"
     inkscape:window-height="1017"
     inkscape:window-x="1912"
     inkscape:window-y="-8"
     inkscape:window-maximized="1"
     inkscape:current-layer="layer1"
     borderlayer="false"
     fit-margin-top="0"
     fit-margin-left="0"
     fit-margin-right="0"
     fit-margin-bottom="0" />
  <defs
     id="defs2" />
  <g
     inkscape:groupmode="layer"
     id="layer2"
     inkscape:label="frames"
     style="display:none">
    <rect
       style="opacity:0.275971;fill:#ff0000;stroke:none;stroke-width:0.5;stroke-miterlimit:4;stroke-dasharray:none;paint-order:normal"
       id="rect1449-6"
       width="20"
       height="20"
       x="0"
       y="0" />
    <rect
       style="opacity:0.275971;fill:#ff0000;stroke:none;stroke-width:0.5;stroke-miterlimit:4;stroke-dasharray:none;paint-order:normal"
       id="rect1449-6-5"
       width="20"
       height="20"
       x="22"
       y="0" />
    <rect
       style="opacity:0.275971;fill:#ff0000;stroke:none;stroke-width:0.5;stroke-miterlimit:4;stroke-dasharray:none;paint-order:normal"
       id="rect1449-6-5-6"
       width="20"
       height="20"
       x="44"
       y="0" />
    <rect
       style="opacity:0.275971;fill:#ff0000;stroke:none;stroke-width:0.5;stroke-miterlimit:4;stroke-dasharray:none;paint-order:normal"
       id="rect1449-6-5-6-9"
       width="20"
       height="20"
       x="66"
       y="0" />
    <rect
       style="opacity:0.275971;fill:#ff0000;stroke:none;stroke-width:0.5;stroke-miterlimit:4;stroke-dasharray:none;paint-order:normal"
       id="rect1449-6-5-6-9-3"
       width="20"
       height="20"
       x="88"
       y="0" />
    <rect
       style="display:inline;opacity:0.275971;fill:#ff0000;stroke:none;stroke-width:0.5;stroke-miterlimit:4;stroke-dasharray:none;paint-order:normal"
       id="rect1449-6-5-9"
       width="20"
       height="20"
       x="110"
       y="-1.9073486e-06" />
    <rect
       style="display:inline;opacity:0.275971;fill:#ff0000;stroke:none;stroke-width:0.5;stroke-miterlimit:4;stroke-dasharray:none;paint-order:normal"
       id="rect1449-6-5-6-0"
       width="20"
       height="20"
       x="132"
       y="-1.9073486e-06" />
    <rect
       style="display:inline;opacity:0.275971;fill:#ff0000;stroke:none;stroke-width:0.5;stroke-miterlimit:4;stroke-dasharray:none;paint-order:normal"
       id="rect1449-6-5-6-9-7"
       width="20"
       height="20"
       x="154"
       y="-1.9073486e-06" />
    <rect
       style="display:inline;opacity:0.275971;fill:#ff0000;stroke:none;stroke-width:0.5;stroke-miterlimit:4;stroke-dasharray:none;paint-order:normal"
       id="rect1449-6-5-6-9-3-0"
       width="20"
       height="20"
       x="176"
       y="-1.9073486e-06" />
    <rect
       style="display:inline;opacity:0.275971;fill:#ff0000;stroke:none;stroke-width:0.5;stroke-miterlimit:4;stroke-dasharray:none;paint-order:normal"
       id="rect1449-6-5-6-9-1"
       width="20"
       height="20"
       x="198"
       y="-1.9073486e-06" />
    <rect
       style="display:inline;opacity:0.275971;fill:#ff0000;stroke:none;stroke-width:0.5;stroke-miterlimit:4;stroke-dasharray:none;paint-order:normal"
       id="rect1449-6-5-6-9-3-7"
       width="20"
       height="20"
       x="220"
       y="-1.9073486e-06" />
    <rect
       style="display:inline;opacity:0.275971;fill:#ff0000;stroke:none;stroke-width:0.5;stroke-miterlimit:4;stroke-dasharray:none;paint-order:normal"
       id="rect1449-6-5-9-0"
       width="20"
       height="20"
       x="242"
       y="-5.7220459e-06" />
    <rect
       style="display:inline;opacity:0.275971;fill:#ff0000;stroke:none;stroke-width:0.5;stroke-miterlimit:4;stroke-dasharray:none;paint-order:normal"
       id="rect1449-6-5-6-0-7"
       width="20"
       height="20"
       x="264"
       y="-5.7220459e-06" />
    <rect
       style="display:inline;opacity:0.275971;fill:#ff0000;stroke:none;stroke-width:0.5;stroke-miterlimit:4;stroke-dasharray:none;paint-order:normal"
       id="rect1449-6-5-6-9-7-3"
       width="20"
       height="20"
       x="286"
       y="-5.7220459e-06" />
    <rect
       style="display:inline;opacity:0.275971;fill:#ff0000;stroke:none;stroke-width:0.5;stroke-miterlimit:4;stroke-dasharray:none;paint-order:normal"
       id="rect1449-6-5-6-9-3-0-0"
       width="20"
       height="20"
       x="308"
       y="-5.7220459e-06" />
  </g>
  <g
     inkscape:label="Stamps"
     inkscape:groupmode="layer"
     id="layer1"
     style="display:inline">
    <g
       id="g8289"
       transform="matrix(1.16432,0,0,1.16432,-5.2582388,-1.5792192)"
       style="fill:#ff00ff;stroke-width:0.85887">
      <path
         style="fill:#ff00ff;stroke-width:12.1196"
         d="m 37.375661,12.282016 v 0 c -0.373802,-0.0086 -0.737882,0.119895 -1.023526,0.361245 l -0.404254,0.352642 c -0.244871,0.218986 -0.615231,0.218986 -0.860101,0 -0.129017,-0.10321 -0.249432,-0.223625 -0.378449,-0.335438 -0.608609,-0.513317 -1.49865,-0.513317 -2.107259,0 -0.137619,0.111813 -0.266636,0.24083 -0.404248,0.352635 -0.244877,0.218986 -0.615244,0.218986 -0.860108,0 -0.137619,-0.111805 -0.266628,-0.240822 -0.404254,-0.352635 -0.607149,-0.508499 -1.491502,-0.508499 -2.098658,0 -0.129016,0.111813 -0.249424,0.232228 -0.378441,0.335438 -0.07673,0.06151 -0.164202,0.1082 -0.258034,0.137619 -0.251327,0.05609 -0.513395,-0.02587 -0.688088,-0.215023 -0.212871,-0.184072 -0.440117,-0.350847 -0.679485,-0.498871 -0.177522,-0.1014 -0.380679,-0.149221 -0.58487,-0.137612 h -0.0516 c -0.23748,0 -0.430061,0.192574 -0.430061,0.430054 0,0.237473 0.192581,0.430047 0.430061,0.430047 v 0 c 0.211581,0.01247 0.409571,0.108378 0.550468,0.266636 l 0.309632,0.223633 c 0.577729,0.473057 1.402666,0.494302 2.004049,0.0516 0.163425,-0.120415 0.309639,-0.275231 0.473057,-0.404248 0.244871,-0.218986 0.61523,-0.218986 0.860108,0 l 0.335445,0.301037 c 0.596651,0.532324 1.48987,0.557688 2.115862,0.06022 0.12901,-0.09461 0.232227,-0.215031 0.361244,-0.318241 0.25596,-0.261305 0.675267,-0.26551 0.936572,-0.0095 0.0036,0.0036 0.0064,0.0064 0.0095,0.0095 l 0.335445,0.301037 c 0.41853,0.354709 0.987828,0.474432 1.51378,0.318241 0.328996,-0.08911 0.626676,-0.267755 0.860115,-0.516068 0.133229,-0.152407 0.315996,-0.252866 0.516053,-0.283833 v 0 c 0.237488,0 0.430062,-0.192581 0.430062,-0.430053 0,-0.237473 -0.192574,-0.430047 -0.430062,-0.430047 z"
         id="path2142" />
      <path
         style="display:inline;fill:#ff00ff;stroke-width:12.1196"
         d="m 37.44105,14.678268 v 0 c -0.373802,-0.0086 -0.737883,0.119895 -1.023526,0.361245 l -0.404255,0.352642 c -0.24487,0.218986 -0.61523,0.218986 -0.860101,0 -0.129016,-0.10321 -0.249431,-0.223625 -0.378448,-0.335438 -0.60861,-0.513317 -1.49865,-0.513317 -2.107259,0 -0.137619,0.111813 -0.266636,0.24083 -0.404248,0.352635 -0.244878,0.218986 -0.615245,0.218986 -0.860108,0 -0.137619,-0.111805 -0.266629,-0.240822 -0.404255,-0.352635 -0.607148,-0.508499 -1.491501,-0.508499 -2.098657,0 -0.129017,0.111813 -0.249425,0.232228 -0.378441,0.335438 -0.07673,0.0615 -0.164202,0.1082 -0.258034,0.137619 -0.251328,0.05609 -0.513395,-0.02587 -0.688088,-0.215023 -0.212871,-0.184072 -0.440117,-0.350847 -0.679486,-0.498871 -0.177522,-0.1014 -0.380679,-0.149221 -0.584869,-0.137612 h -0.0516 c -0.23748,0 -0.430061,0.192574 -0.430061,0.430054 0,0.237473 0.192581,0.430047 0.430061,0.430047 v 0 c 0.211581,0.01247 0.409572,0.108378 0.550469,0.266636 l 0.309632,0.223633 c 0.577729,0.473057 1.402666,0.494302 2.004049,0.0516 0.163425,-0.120415 0.309639,-0.275231 0.473057,-0.404248 0.24487,-0.218986 0.61523,-0.218986 0.860108,0 l 0.335445,0.301037 c 0.596651,0.532324 1.48987,0.557688 2.115861,0.06022 0.12901,-0.09461 0.232228,-0.215031 0.361245,-0.318241 0.25596,-0.261305 0.675266,-0.26551 0.936571,-0.0096 0.0036,0.0036 0.0064,0.0064 0.0095,0.0096 l 0.335446,0.301037 c 0.41853,0.354709 0.987827,0.474432 1.51378,0.318241 0.328995,-0.08911 0.626676,-0.267755 0.860115,-0.516068 0.133229,-0.152407 0.315996,-0.252867 0.516053,-0.283833 v 0 c 0.237487,0 0.430061,-0.192581 0.430061,-0.430054 0,-0.237472 -0.192574,-0.430046 -0.430061,-0.430046 z"
         id="path2142-1" />
      <path
         style="fill:#ff00ff;stroke-width:12.1196"
         d="m 35.483425,11.198283 v 0 c 0.134605,-0.109838 0.278503,-0.207633 0.430054,-0.292435 L 36.515553,7.1213765 C 36.767223,6.3771222 37.450835,5.8645041 38.235769,5.8312218 37.874696,5.5314747 37.414367,5.3780271 36.945607,5.4011607 35.889997,5.3264217 34.954123,6.0751445 34.795338,7.1213765 L 34.21907,10.561801 c 0.467128,0.105797 0.901215,0.324263 1.264355,0.636482 z"
         id="path2140" />
      <path
         style="fill:#ff00ff;stroke-width:12.1196"
         d="m 31.767763,11.628337 c 0.328226,-0.264576 0.709597,-0.455254 1.118142,-0.559071 L 33.935237,4.5410671 C 34.186907,3.7968058 34.870512,3.2841805 35.655446,3.2509054 35.294372,2.9511511 34.834051,2.7977035 34.365284,2.8208514 33.309673,2.7461053 32.3738,3.4948209 32.215021,4.5410671 l -1.118134,6.7002189 c 0.239625,0.09908 0.465139,0.22922 0.670876,0.387051 z"
         id="path2138" />
      <path
         style="fill:#ff00ff;stroke-width:12.1196"
         d="m 26.60713,5.8312218 c 0.365549,-0.3038806 0.832841,-0.4575777 1.307359,-0.4300611 1.055611,-0.074739 1.991491,0.6739838 2.15027,1.7202158 l 0.670883,4.0253015 c -0.549955,-0.248833 -1.183423,-0.233012 -1.720215,0.04298 L 28.327339,7.1213479 C 28.075677,6.3770937 27.392064,5.8644756 26.60713,5.8311862 Z"
         id="path2011" />
    </g>
    <g
       id="g1985"
       transform="matrix(0.7726221,0,0,0.7726221,-140.14262,-179.60809)"
       style="fill:#000000;stroke-width:0.922421">
      <path
         d="m 205.97101,253.1929 -2.21941,-3.4877 -1.48502,1.485 c -0.23514,0.23497 -0.61633,0.23497 -0.85147,0 l -1.24593,-1.24601 -2.71751,1.3588 c -0.0857,0.0428 -0.17774,0.0636 -0.26909,0.0636 -0.15622,0 -0.31028,-0.0607 -0.4259,-0.17631 l -1.34603,-1.34602 -1.82663,3.34879 h 12.38699 z"
         id="path1691"
         style="fill:#000000;stroke-width:0.922421" />
      <path
         d="m 197.30115,250.03192 2.71752,-1.35879 c 0.23194,-0.11586 0.5117,-0.0705 0.69499,0.11266 l 1.1271,1.12718 1.26165,-1.22796 -2.97661,-4.67758 c -0.17403,-0.27345 -0.4727,-0.43154 -0.79523,-0.41918 -0.32397,0.0103 -0.61004,0.18733 -0.76515,0.4718 l -2.55541,4.68497 z"
         id="path1695"
         style="fill:#000000;stroke-width:0.922421" />
      <path
         d="m 193.90537,244.61987 c -0.23514,0.23498 -0.61634,0.23498 -0.85147,0 l -1.12709,-1.12718 -2.67996,2.68002 c -0.11729,0.11715 -0.27135,0.17632 -0.42582,0.17632 -0.14286,0 -0.28606,-0.0506 -0.40043,-0.15262 l -1.99218,-1.77562 -3.74209,6.86029 h 10.48195 l 3.08928,-5.66369 -1.30266,-2.04705 z"
         id="path1697"
         style="fill:#000000;stroke-width:0.922421" />
      <path
         d="m 188.79734,244.91931 2.70373,-2.70382 c 0.23513,-0.23496 0.61632,-0.23496 0.85146,0 l 1.1271,1.12719 0.81299,-0.81305 -2.85442,-4.48558 c -0.17403,-0.27336 -0.47153,-0.43245 -0.79516,-0.41916 -0.32397,0.0103 -0.61002,0.18731 -0.76524,0.47186 l -2.85869,5.24098 z"
         id="path1699"
         style="fill:#000000;stroke-width:0.922421" />
    </g>
    <g
       aria-label="?"
       id="text2824"
       style="font-size:17.9905px;line-height:1.25;fill:#b3b3b3;stroke-width:0.264583">
      <path
         d="m 51.589252,7.3374091 c 0.107943,-0.6836389 0.197896,-1.0614394 0.305839,-1.3672779 0.305838,-0.863544 1.025458,-1.3133065 1.835031,-1.3133065 1.205363,0 1.81704,0.7376105 1.81704,1.871012 0,1.0074679 -0.575696,2.2128314 -1.565173,3.2922614 -0.863544,0.9355059 -1.385269,1.6011549 -1.385269,2.3387649 0,0.305838 0.197896,0.647658 0.413782,0.845553 l 0.07196,0.03598 1.025458,-0.593686 c -0.08995,-0.269858 -0.107943,-0.431772 -0.107943,-0.665648 0,-0.70163 0.305839,-1.205364 1.349288,-2.1588604 1.313306,-1.187373 1.871012,-2.2128315 1.871012,-3.3102519 0,-1.511202 -1.187373,-2.4646985 -3.184319,-2.4646985 -0.989477,0 -2.302784,0.3058385 -3.058385,0.9894775 -0.03598,0.971487 -0.125933,1.9249835 -0.197895,2.5366604 z m 2.284794,6.6564849 c -0.647658,0 -1.07943,0.431772 -1.07943,1.07943 0,0.647658 0.431772,1.07943 1.07943,1.07943 0.647658,0 1.07943,-0.431772 1.07943,-1.07943 0,-0.647658 -0.431772,-1.07943 -1.07943,-1.07943 z"
         style="font-family:Seshat;-inkscape-font-specification:Seshat"
         id="path1288" />
    </g>
    <g
       style="fill:#ff0000;stroke-width:12.5864"
       id="g5771"
       transform="matrix(0.06468111,0,0,0.06468111,67.591456,1.6043881)">
      <path
         d="M 199.02,231.09 C 185.77,173.61 108.53,144.86 90.44,123.97 c -9.3,-10.74 -6.97,-22.15 -1.16,-28.29 6.24,-6.58 18.13,-7.88 27,-2.09 7.76,5.05 22.86,19.06 26.25,24.23 3.39,5.16 3.35,9.43 5.17,12.9 2.07,3.9 6.75,5.98 13.53,3.95 6.28,-1.87 9.75,-4.35 9.75,-4.35 0,0 -6.56,-0.25 -9.16,-3.94 0,0 -9.1,-19.95 -12.36,-28.11 10.43,2.77 17.05,5.97 21.68,8.89 0.57,4.44 -1.32,12.09 -1.4,12.43 0.21,-0.12 3.58,-2.11 8.59,-7.1 0.25,0.21 0.5,0.41 0.74,0.6 1.77,1.41 -1.49,12.56 -1.49,12.56 0,0 6.12,-4.11 10.8,-9.67 4.05,-4.79 7.46,-10.87 7.46,-10.87 0,0 -13.25,-5.6 -19.36,-15.3 -6.13,-9.69 -0.79,-20.21 -0.79,-20.21 0,0 -10.22,-3.28 -18.78,-15.62 -9,-12.98 -5.52,-28.93 -5.52,-28.93 -7.32,2.94 -13.74,17.5 -13.74,17.5 0,0 -18.49,-9.87 -42.51,-6.8 C 73.47,35.69 53.33,22.55 44.97,1.8 c 0,0 -6.47,28.39 18.04,46.26 -1.33,0.9 -2.66,1.85 -3.99,2.87 -11.96,6.81 -27.15,6.41 -38.85,-1.79 0,0 0.62,4.26 2.9,9.38 2.28,5.11 6.21,11.09 12.84,14.53 0.71,0.37 1.41,0.67 2.1,0.93 -1.38,2.2 -2.66,4.48 -3.81,6.82 C 27.67,91.76 14.56,97.3 2,94.02 c 0,0 6.59,12.03 18.41,13.5 2.73,0.34 5.11,-0.07 7.15,-0.88 -0.1,4.98 0.15,9.64 0.71,14.06 -0.3,9.68 -6.83,18.27 -16.35,20.99 h -0.01 c 0,0 9.18,5.46 17.68,1.78 1.66,-0.72 2.94,-1.7 3.93,-2.79 6.98,16.86 19.64,30.46 35.78,45.97 4.33,4.17 9.19,8.63 14.12,13.28 48.5,2.8 85.22,24.51 116.32,57.87 0.98,-7.24 1.7,-16.22 -0.72,-26.71 z m -51.11,-160.98 13.72,13.65 -21.9,-7.9 z m 33.093,63.187 c 0,0 6.706,6.836 16.005,8.195 -0.628,3.718 -1.577,5.572 -1.577,5.572 0,0 15.96,12.85 35.508,4.572 -0.902,10.276 -13.643,14.81 -13.643,14.81 0,0 13.687,16.961 40.704,6.554 -14.657,19.075 -36.539,13.759 -49.848,6.944 -11.962,-6.125 -27.364,-24.217 -27.149,-46.647 z"
         id="path5763"
         style="fill:#ff0000;stroke-width:12.5864" />
    </g>
    <g
       style="fill:#ff00ff;stroke-width:14.9066"
       id="g5829"
       transform="matrix(0.30944494,0,0,0.30944494,90.900195,2.90025)">
      <g
         id="g5818"
         style="fill:#ff00ff;stroke-width:14.9066">
        <g
           id="g5816"
           style="fill:#ff00ff;stroke-width:14.9066">
          <path
             d="M 44.11,13.142 C 43.281,12.05 41.989,11.345 40.617,11.345 H 5.27 c -1.371,0 -2.663,0.705 -3.493,1.797 -0.83,1.093 -1.102,2.543 -0.735,3.866 L 5.875,34.473 C 4.427,35.65 3.5,37.45 3.5,39.453 c 0,3.548 2.897,6.429 6.472,6.429 3.574,0 6.471,-2.874 6.471,-6.422 0,-0.119 -0.006,-0.354 -0.006,-0.354 l 13.013,0.002 c 0,0 -0.007,0.235 -0.007,0.354 0,3.548 2.897,6.425 6.472,6.425 3.575,0 6.472,-2.875 6.472,-6.424 0,-2.005 -0.925,-3.794 -2.373,-4.973 L 44.846,17.008 C 45.212,15.685 44.94,14.235 44.11,13.142 Z M 9.973,41.85 c -1.329,0 -2.405,-1.068 -2.405,-2.387 0,-1.319 1.077,-2.386 2.405,-2.386 1.327,0 2.403,1.067 2.403,2.386 0,1.319 -1.078,2.387 -2.403,2.387 z m 25.943,0 c -1.327,0 -2.403,-1.068 -2.403,-2.387 0,-1.319 1.076,-2.386 2.403,-2.386 1.328,0 2.405,1.067 2.405,2.386 0,1.319 -1.077,2.387 -2.405,2.387 z"
             id="path5812"
             style="fill:#ff00ff;stroke-width:14.9066" />
          <path
             d="M 22.907,0 C 15.603,0 9.471,3.511 7.754,8.443 H 38.057 C 36.341,3.511 30.208,0 22.907,0 Z"
             id="path5814"
             style="fill:#ff00ff;stroke-width:14.9066" />
        </g>
      </g>
    </g>
    <g
       id="g10014"
       style="fill:#0000ff">
      <path
         sodipodi:type="star"
         style="display:inline;opacity:1;fill:#0000ff;stroke-width:63.5611;stroke-linecap:round;paint-order:stroke fill markers"
         id="path6836-9-7"
         inkscape:flatsided="false"
         sodipodi:sides="5"
         sodipodi:cx="229.46243"
         sodipodi:cy="212.58244"
         sodipodi:r1="36.336281"
         sodipodi:r2="18.828392"
         sodipodi:arg1="-0.26179939"
         sodipodi:arg2="0.30810002"
         inkscape:rounded="0"
         inkscape:randomized="0"
         transform="matrix(0.06286936,-0.00279779,0.00279779,0.06286936,108.31564,-4.0611819)"
         inkscape:transform-center-x="-0.0055716896"
         inkscape:transform-center-y="-0.21305229"
         d="m 264.56058,203.17792 -17.15636,15.11421 1.84837,24.76448 -19.67607,-11.64612 -22.98125,9.41055 4.99588,-22.31191 -16.05156,-18.94845 22.7637,-2.14339 13.06084,-21.12133 9.07285,20.98722 z" />
      <path
         style="fill:#0000ff;stroke-width:0.206706"
         d="m 126.74493,15.585923 -0.51795,-0.392391 c -0.54586,-0.415061 -1.30797,-0.413317 -1.85383,0 l -0.51795,0.392391 c -0.1744,0.130796 -0.41681,0.130796 -0.58946,0 l -0.51795,-0.392391 c -0.54586,-0.415061 -1.30797,-0.413317 -1.85383,0 l -0.51795,0.392391 c -0.1744,0.130796 -0.41681,0.130796 -0.58946,0 l -0.51796,-0.392391 c -0.54585,-0.415061 -1.30796,-0.413317 -1.85382,0 l -0.51796,0.392391 c -0.17439,0.130796 -0.4168,0.130796 -0.58945,0 l -0.51796,-0.392391 c -0.54883,-0.413322 -1.305,-0.413322 -1.85382,0 l -0.68015,0.512723 c -0.23022,0.174325 -0.27552,0.502278 -0.10118,0.732485 0.17435,0.230208 0.5023,0.275484 0.7325,0.101126 l 0.67665,-0.512723 c 0.1744,-0.130796 0.41681,-0.130796 0.58946,0 l 0.51795,0.39239 c 0.54586,0.415062 1.30797,0.413317 1.85383,0 l 0.51795,-0.39239 c 0.17265,-0.130796 0.41681,-0.13254 0.58946,0 l 0.5197,0.39239 c 0.54586,0.415062 1.30797,0.413317 1.85382,0 l 0.51796,-0.39239 c 0.17439,-0.130796 0.4168,-0.13254 0.58946,0 l 0.51795,0.39239 c 0.26699,0.202149 0.5929,0.311192 0.92778,0.310425 0.32787,0 0.65399,-0.102894 0.92779,-0.310425 l 0.51795,-0.39239 c 0.1744,-0.130796 0.41681,-0.130796 0.58946,0 l 0.51796,0.39239 c 0.2302,0.174396 0.55806,0.129052 0.73246,-0.101149 0.17614,-0.230202 0.13079,-0.558066 -0.0994,-0.732461 z"
         id="path6122" />
      <path
         style="display:inline;fill:#0000ff;stroke-width:0.206706"
         d="m 126.74493,13.044761 -0.51795,-0.39239 c -0.54586,-0.415061 -1.30797,-0.413317 -1.85383,0 l -0.51795,0.39239 c -0.1744,0.130796 -0.41681,0.130796 -0.58946,0 l -0.51795,-0.39239 c -0.54586,-0.415061 -1.30797,-0.413317 -1.85383,0 l -0.51795,0.39239 c -0.1744,0.130796 -0.41681,0.130796 -0.58946,0 l -0.51796,-0.39239 c -0.54585,-0.415061 -1.30796,-0.413317 -1.85382,0 l -0.51796,0.39239 c -0.17439,0.130796 -0.4168,0.130796 -0.58945,0 l -0.51796,-0.39239 c -0.54883,-0.413322 -1.305,-0.413322 -1.85382,0 l -0.68015,0.512723 c -0.23022,0.174324 -0.27552,0.502278 -0.10118,0.732485 0.17435,0.230208 0.5023,0.275484 0.7325,0.101126 l 0.67665,-0.512724 c 0.1744,-0.130795 0.41681,-0.130795 0.58946,0 l 0.51795,0.39239 c 0.54586,0.415063 1.30797,0.413318 1.85383,0 l 0.51795,-0.39239 c 0.17265,-0.130795 0.41681,-0.13254 0.58946,0 l 0.5197,0.39239 c 0.54586,0.415063 1.30796,0.413318 1.85382,0 l 0.51796,-0.39239 c 0.17439,-0.130795 0.4168,-0.13254 0.58946,0 l 0.51795,0.39239 c 0.26699,0.20215 0.5929,0.311193 0.92778,0.310426 0.32787,0 0.65399,-0.102894 0.92779,-0.310426 l 0.51795,-0.39239 c 0.1744,-0.130795 0.41681,-0.130795 0.58946,0 l 0.51796,0.39239 c 0.2302,0.174397 0.55806,0.129053 0.73246,-0.101149 0.17614,-0.230202 0.13079,-0.558066 -0.0994,-0.732461 z"
         id="path6122-3" />
      <path
         sodipodi:type="star"
         style="opacity:1;fill:#0000ff;stroke-width:52.8052;stroke-linecap:round;paint-order:stroke fill markers"
         id="path6836"
         inkscape:flatsided="false"
         sodipodi:sides="5"
         sodipodi:cx="229.46243"
         sodipodi:cy="212.58244"
         sodipodi:r1="36.336281"
         sodipodi:r2="18.828392"
         sodipodi:arg1="-0.26179939"
         sodipodi:arg2="0.30810002"
         inkscape:rounded="0"
         inkscape:randomized="0"
         transform="matrix(0.07567519,-0.00336767,0.00336767,0.07567519,98.831337,-6.4897483)"
         inkscape:transform-center-x="-0.0067095673"
         inkscape:transform-center-y="-0.25644961"
         d="m 264.56058,203.17792 -17.15636,15.11421 1.84837,24.76448 -19.67607,-11.64612 -22.98125,9.41055 4.99588,-22.31191 -16.05156,-18.94845 22.7637,-2.14339 13.06084,-21.12133 9.07285,20.98722 z" />
      <path
         sodipodi:type="star"
         style="display:inline;opacity:1;fill:#0000ff;stroke-width:77.6136;stroke-linecap:round;paint-order:stroke fill markers"
         id="path6836-9"
         inkscape:flatsided="false"
         sodipodi:sides="5"
         sodipodi:cx="229.46243"
         sodipodi:cy="212.58244"
         sodipodi:r1="36.336281"
         sodipodi:r2="18.828392"
         sodipodi:arg1="-0.26179939"
         sodipodi:arg2="0.30810002"
         inkscape:rounded="0"
         inkscape:randomized="0"
         transform="matrix(0.0514864,-0.00229123,0.00229123,0.0514864,108.02312,-5.9686124)"
         inkscape:transform-center-x="-0.0045650988"
         inkscape:transform-center-y="-0.17447807"
         d="m 264.56058,203.17792 -17.15636,15.11421 1.84837,24.76448 -19.67607,-11.64612 -22.98125,9.41055 4.99588,-22.31191 -16.05156,-18.94845 22.7637,-2.14339 13.06084,-21.12133 9.07285,20.98722 z" />
    </g>
    <path
       class="st1"
       d="m 149.65255,15.54454 c -8.3e-4,-4.13e-4 -0.0642,-0.303212 -0.141,-0.672876 l -0.0144,-0.06945 c -0.0767,-0.369665 -0.80042,0.211641 -1.13033,0.188846 -0.32992,-0.02282 -0.67171,-1.086545 -0.71509,-1.461625 0,0 0.28748,-0.882393 0.30883,-1.18869 0.0262,-0.376667 -0.36918,-0.576362 -0.72395,-0.447377 L 146.26148,12.248 c -0.35476,0.128985 -0.62791,-0.07383 -0.60704,-0.4508 l 0.0112,-0.201687 c 0.0209,-0.37694 0.0625,-0.794585 0.0923,-0.928034 0.0299,-0.133458 -0.07,-0.241027 -0.2218,-0.239035 -0.15178,0.0017 -0.54848,-0.274174 -0.54848,-0.5535658 0,-0.2794579 -0.27151,-1.016182 -0.60335,-1.016182 -0.33177,0 -0.40679,-0.052007 -0.51388,0.054984 -0.0884,0.08828 -0.0941,0.1738147 -0.0941,0.4471706 0,0.2733477 -0.17471,1.0093852 -0.38813,1.0284022 -0.21343,0.01902 -0.77194,-0.254066 -0.77194,-0.522337 0,-0.2682709 -0.12651,-0.9829518 -0.2811,-0.9919477 -0.15452,-0.00893 -0.39788,-0.016288 -0.54067,-0.016288 -0.14285,0 -0.25969,-0.1757329 -0.25969,-0.3905333 0,-0.214792 0.028,-0.8176534 0.0622,-0.8622688 0.0342,-0.044648 -0.0359,-0.2939521 -0.1559,-0.554054 -0.11999,-0.260102 -0.46041,-0.5706567 -0.75649,-0.6902401 -0.29607,-0.1195834 -0.45203,-0.4880157 -0.34653,-0.8188192 0.10551,-0.3307457 0.14636,-0.6063589 0.0908,-0.6122624 -0.0556,-0.00579 -0.20114,-0.2533055 -0.20114,-0.5275544 0,-0.2742406 -0.2726,-0.9973717 -0.60568,-0.9973717 -0.33307,0 -0.60566,0.2286662 -0.60566,0.5081241 0,0.2794661 -0.17471,1.0317675 -0.3882,1.0507761 -0.2135,0.019017 -0.77201,-0.263186 -0.77201,-0.5426521 0,-0.2794579 -0.27253,-1.0162481 -0.60567,-1.0162481 -0.33314,0 -0.60567,0.2244081 -0.60567,0.4987231 0,0.274315 -0.17464,1.0128829 -0.3882,1.0318998 -0.21349,0.019017 -0.772,-0.2589361 -0.772,-0.533185 0,-0.2742407 -0.25626,-0.9973634 -0.5695,-0.9973634 -0.31323,0 -0.56949,0.3089093 -0.56949,0.6864614 v 1.619589 c 0,0.3775604 0.18789,0.9316806 0.41751,1.2313874 l 0.1526,0.1991486 c 0.22963,0.2997067 0.41751,0.8538269 0.41751,1.2313873 0,0 0,1.3542616 0,2.3745614 0,1.870629 0,4.925211 0,4.925211 0,0.37756 0,0.739262 0,0.803721 0,0.06449 0.30891,0.117244 0.68647,0.117244 h 2.92278 c 0.37756,0 0.99538,0 1.37294,0 h 0.32292 c 0.37756,0 0.71653,0 0.75332,0 0.0144,0 0.0749,0 0.16531,0 -0.063,-0.909572 -0.11746,-2.784798 0.4429,-3.345094 0.59867,-0.59867 1.81544,-0.140999 2.41411,0.457671 0.54362,0.543611 0.59991,2.083362 0.59002,2.887497 h 1.74995 c 0.37756,0 0.78292,0 0.90086,0 0.11793,0 0.52329,0 0.90084,0 h 0.41189 c 0.37756,0 0.68647,-0.236008 0.68647,-0.524537 0,-0.288519 -8.3e-4,-0.525007 -0.002,-0.525355 z m -10.2886,-1.710407 c 0,0.377561 -0.30891,0.68647 -0.68646,0.68647 h -0.27184 c -0.37756,0 -0.68647,-0.308909 -0.68647,-0.68647 v -0.876688 c 0,-0.377553 0.12624,-0.9684 0.28056,-1.313003 0,0 0.0877,-0.195784 0.5419,-0.195784 0.45416,0 0.54183,0.195784 0.54183,0.195784 0.15432,0.344603 0.28048,0.93545 0.28048,1.313003 z m 0,-4.5207368 c 0,0.3775605 -0.30891,0.6864698 -0.68646,0.6864698 h -0.27184 c -0.37756,0 -0.68647,-0.3089093 -0.68647,-0.6864698 V 8.4367076 c 0,-0.3775604 0.12624,-0.9683998 0.28049,-1.3130113 0,0 0.0877,-0.1958495 0.5419,-0.1958495 0.45416,0 0.5419,0.1958495 0.5419,0.1958495 0.15432,0.3446115 0.28048,0.9354509 0.28048,1.3130113 z m 7.63889,6.1487678 -0.0262,0.06573 c -0.13955,0.350787 -0.33808,0.454719 -0.44112,0.230791 -0.10304,-0.223854 -0.41017,-0.530507 -0.68242,-0.681385 -0.27226,-0.150887 -0.27672,-0.493026 -0.01,-0.760132 l 0.11401,-0.114225 c 0.26676,-0.26718 0.66808,-0.236901 0.8918,0.06722 l 8.3e-4,8.26e-4 c 0.22371,0.30404 0.29263,0.83997 0.15307,1.190749 z"
       id="path7260"
       style="display:inline;fill:#ff00ff;stroke-width:0.826823" />
    <g
       style="display:inline;fill:#0000ff;stroke-width:14.0384"
       id="g7466"
       transform="matrix(0.02944861,0,0,0.02944861,156.46115,2.4611509)">
      <g
         id="g7451"
         style="fill:#0000ff;stroke-width:14.0384">
        <g
           id="g7449"
           style="fill:#0000ff;stroke-width:14.0384">
          <g
             id="g7447"
             style="fill:#0000ff;stroke-width:14.0384">
            <path
               d="M 507.42,127.508 462.683,14.156 C 459.312,5.614 451.061,0 441.876,0 H 70.122 C 60.938,0 52.688,5.614 49.315,14.156 L 4.579,127.508 c -5.78,14.65 5.027,30.58 20.807,30.58 h 8.889 c 0,22.999 0,320.098 0,331.544 0,12.353 10.015,22.368 22.368,22.368 21.816,0 375.62,0 398.713,0 12.353,0 22.368,-10.015 22.368,-22.368 0,-11.445 0,-308.541 0,-331.544 h 8.889 c 15.748,0 26.598,-15.901 20.807,-30.58 z M 432.987,467.264 H 342.28 v -79.972 c 0,-12.353 -10.015,-22.368 -22.368,-22.368 H 192.087 c -12.353,0 -22.368,10.015 -22.368,22.368 v 79.972 H 79.011 v -132.22 c 15.434,0 335.888,0 353.976,0 z m 0,-176.956 H 342.28 v -79.972 c 0,-12.353 -10.013,-22.368 -22.368,-22.368 H 192.087 c -12.38,0 -22.368,10.042 -22.368,22.368 v 79.972 H 79.011 v -132.22 h 353.976 z"
               id="path7437"
               style="fill:#0000ff;stroke-width:14.0384" />
            <path
               d="m 119.484,232.704 h 9.763 c 12.353,0 22.368,-10.015 22.368,-22.368 0,-12.353 -10.015,-22.368 -22.368,-22.368 h -9.763 c -12.353,0 -22.368,10.015 -22.368,22.368 0,12.353 10.015,22.368 22.368,22.368 z"
               id="path7439"
               style="fill:#0000ff;stroke-width:14.0384" />
            <path
               d="m 382.753,232.704 h 9.763 c 12.353,0 22.368,-10.015 22.368,-22.368 0,-12.353 -10.015,-22.368 -22.368,-22.368 h -9.763 c -12.353,0 -22.368,10.015 -22.368,22.368 0,12.353 10.015,22.368 22.368,22.368 z"
               id="path7441"
               style="fill:#0000ff;stroke-width:14.0384" />
            <path
               d="m 119.484,409.658 h 9.763 c 12.353,0 22.368,-10.015 22.368,-22.368 0,-12.353 -10.015,-22.368 -22.368,-22.368 h -9.763 c -12.353,0 -22.368,10.015 -22.368,22.368 0,12.353 10.015,22.368 22.368,22.368 z"
               id="path7443"
               style="fill:#0000ff;stroke-width:14.0384" />
            <path
               d="m 382.753,409.658 h 9.763 c 12.353,0 22.368,-10.015 22.368,-22.368 0,-12.353 -10.015,-22.368 -22.368,-22.368 h -9.763 c -12.353,0 -22.368,10.015 -22.368,22.368 0,12.355 10.015,22.368 22.368,22.368 z"
               id="path7445"
               style="fill:#0000ff;stroke-width:14.0384" />
          </g>
        </g>
      </g>
    </g>
    <g
       id="g7782"
       transform="matrix(0.03276758,0,0,0.03276758,177.61151,1.6114971)"
       style="display:inline;fill:#00ff00;stroke-width:12.6165">
      <path
         class="st0"
         d="m 63.254,366.369 c -2.515,0 -4.894,-0.156 -7.303,-0.272 v 25.096 c 0,13.392 10.877,24.269 24.28,24.269 h 14.237 c 13.403,0 24.28,-10.878 24.28,-24.269 v -25.096 c -2.409,0.116 -4.788,0.272 -7.312,0.272 z"
         id="path7770"
         style="fill:#00ff00;stroke-width:12.6165" />
      <path
         class="st0"
         d="m 400.554,366.369 c -2.515,0 -4.894,-0.156 -7.302,-0.272 v 25.096 c 0,13.392 10.877,24.269 24.279,24.269 h 14.237 c 13.403,0 24.279,-10.878 24.279,-24.269 v -25.096 c -2.408,0.116 -4.787,0.272 -7.312,0.272 z"
         id="path7772"
         style="fill:#00ff00;stroke-width:12.6165" />
      <path
         class="st0"
         d="m 132.334,183.215 c 2.71,-12.81 5.565,-26.144 8.799,-39.469 -10.625,-24.697 -26.456,-42.236 -53.784,-42.236 -60.232,0 -64.69,85.172 -80.307,144.549 -20.074,76.286 4.031,104.402 56.212,104.402 h 48.181 c 3.195,0 6.196,-0.195 9.177,-0.409 -12.878,-28.426 -12.693,-67.584 0.894,-119.26 3.894,-14.81 7.264,-30.727 10.828,-47.577 z"
         id="path7774"
         style="fill:#00ff00;stroke-width:12.6165" />
      <path
         class="st0"
         d="m 219.42,401.837 c -0.642,0 -1.224,-0.059 -1.865,-0.069 v 48.501 c 0,15.558 12.625,28.184 28.193,28.184 h 16.539 c 15.569,0 28.194,-12.626 28.194,-28.184 V 401.7 c -1.233,0.02 -2.39,0.136 -3.642,0.136 H 219.42 Z"
         id="path7776"
         style="fill:#00ff00;stroke-width:12.6165" />
      <path
         class="st0"
         d="M 504.966,246.059 C 489.34,186.681 484.882,101.51 424.65,101.51 c -30.563,0 -46.763,21.919 -57.348,51.268 2.37,10.295 4.545,20.521 6.643,30.437 3.564,16.85 6.934,32.767 10.828,47.578 13.499,51.345 13.762,90.319 1.137,118.697 4.632,0.583 9.44,0.972 14.645,0.972 h 48.181 c 52.199,0 76.284,-28.116 56.23,-104.403 z"
         id="path7778"
         style="fill:#00ff00;stroke-width:12.6165" />
      <path
         class="st0"
         d="m 253.139,33.547 c -84.298,0 -90.533,119.182 -112.395,202.305 -28.076,106.752 5.643,146.095 78.676,146.095 h 67.419 c 73.071,0 106.771,-39.343 78.694,-146.095 C 343.672,152.729 337.438,33.547 253.139,33.547 Z"
         id="path7780"
         style="fill:#00ff00;stroke-width:12.6165" />
    </g>
    <g
       style="fill:#ff0000;stroke-width:9.83742"
       id="g8017"
       transform="matrix(1.4344317,0,0,1.4344317,197.70545,-2.9838642)">
      <path
         d="m 6.176,4.176 a 0.249,0.249 0 0 0 -0.352,0 l -4.4,4.4 A 0.25,0.25 0 0 0 1.6,9 H 3 v 4.751 A 0.249,0.249 0 0 0 3.249,14 h 3.5 A 0.249,0.249 0 0 0 7,13.753 v 0 -5.43 A 0.249,0.249 0 0 1 7.073,8.147 L 8.5,6.5 Z M 6,12 H 5 V 11 H 6 Z M 6,10 H 5 V 9 h 1 z m 6.75,-4 h -0.5 A 0.25,0.25 0 0 0 12,6.25 V 8 L 10.676,6.176 a 0.249,0.249 0 0 0 -0.352,0 L 8.056,8.932 A 0.246,0.246 0 0 0 8,9.088 v 4.66 A 0.249,0.249 0 0 0 8.246,14 h 1.5 A 0.253,0.253 0 0 0 10,13.748 v 0 V 12 h 1 v 1.747 A 0.253,0.253 0 0 0 11.253,14 h 1.5 A 0.25,0.25 0 0 0 13,13.751 V 6.25 A 0.25,0.25 0 0 0 12.75,6 Z M 10,11 H 9 v -1 h 1 z m 2,0 h -1 v -1 h 1 z"
         id="path8009"
         style="fill:#ff0000;stroke-width:9.83742" />
    </g>
    <g
       id="g8110"
       transform="matrix(0.03003081,0,0,0.03003081,222.3121,2.3121246)"
       style="fill:#ff0000;stroke-width:13.7662">
      <path
         class="st0"
         d="m 336.406,166.563 c -10.891,1.75 -72.609,12.094 -76.5,12.094 -3.906,0 -3.906,0 -3.906,0 0,0 0,0 -3.906,0 -3.906,0 -65.609,-10.344 -76.5,-12.094 -18.719,-3.031 -34.344,2.266 -39.813,4.531 -22.969,9.531 -15.25,31.813 -10.156,40.063 7.047,11.344 33.781,41.125 60.125,44.609 34.344,4.516 64,-21.172 70.25,-21.172 6.234,0 35.906,25.688 70.25,21.172 26.344,-3.484 53.094,-33.266 60.125,-44.609 5.094,-8.25 12.813,-30.531 -10.156,-40.063 -5.485,-2.266 -21.094,-7.563 -39.813,-4.531 z m -151.75,54.421 c -11.094,-10.734 -9.25,-21.516 3.688,-22.391 12.969,-0.906 34.813,4.5 35.172,11.656 0.922,17.907 -27.766,21.501 -38.86,10.735 z m 142.688,0 c -11.109,10.766 -39.797,7.172 -38.859,-10.734 0.359,-7.156 22.203,-12.563 35.141,-11.656 12.968,0.875 14.812,11.656 3.718,22.39 z"
         id="path8104"
         style="fill:#ff0000;stroke-width:13.7662" />
      <path
         class="st0"
         d="m 402.75,115.906 c 0,-5.031 -5.219,-15.094 -14.578,-17.125 C 374.656,19.156 296.563,0 256,0 215.437,0 137.344,19.156 123.813,98.781 c -9.375,2.031 -14.563,12.094 -14.563,17.125 0,5.047 0,33.25 0,33.25 h 293.5 c 0,0 0,-28.203 0,-33.25 z"
         id="path8106"
         style="fill:#ff0000;stroke-width:13.7662" />
      <path
         class="st0"
         d="m 356.719,382.234 c 0,-20.203 -6.281,-42.297 -26.234,-42.297 H 181.5 c -19.938,0 -26.234,22.094 -26.234,42.297 0,4.797 -93.359,28.828 -93.359,82.656 0,12.516 30.422,47.109 193.031,47.109 h 2.109 c 162.625,0 193.047,-34.594 193.047,-47.109 0,-53.827 -93.375,-77.859 -93.375,-82.656 z"
         id="path8108"
         style="fill:#ff0000;stroke-width:13.7662" />
    </g>
    <path
       d="M 257.96272,6.7476018 H 253.6262 V 3.4952076 L 252,2.4110762 250.3738,3.4952076 v 3.2523942 h -4.33652 l -1.08414,1.0841315 v 1.0841314 h 14.09371 V 7.8317333 Z M 252,4.0372734 c 0.43365,0 0.75889,0.3252394 0.75889,0.8673051 0,0.5420657 -0.32524,0.7588919 -0.75889,0.7588919 -0.43365,0 -0.86731,-0.3252394 -0.86731,-0.8673051 0,-0.4336525 0.43366,-0.7588919 0.86731,-0.7588919 z m 5.96272,5.9627227 h -11.92544 v 4.3365259 l -1.08414,1.626197 v 1.626198 h 14.09371 v -1.626198 l -1.08413,-1.626197 z m -8.67305,5.9627229 h -1.08413 v -4.878591 h 1.08413 z m 3.25239,0 h -1.08413 v -4.878591 h 1.08413 z m 3.2524,0 h -1.08413 v -4.878591 h 1.08413 z"
       id="path8202"
       style="fill:#ff0000;stroke-width:14.1111" />
    <path
       d="m 265.58824,2.789911 v 2.403361 h 6.0084 V 2.789911 h -1.20168 v 1.2016805 h -1.20168 V 2.789911 h -1.20168 v 1.2016805 h -1.20168 V 2.789911 Z m 10.81512,0 v 2.403361 h 6.00841 V 2.789911 h -1.20168 v 1.2016805 h -1.20168 V 2.789911 h -1.20168 v 1.2016805 h -1.20169 V 2.789911 Z M 265.58824,6.3949525 V 17.210077 h 6.0084 c 0,-1.201681 0,-3.605041 2.40336,-3.605041 2.40336,0 2.40336,2.40336 2.40336,3.605041 h 6.00841 V 6.3949525 h -6.00841 v 2.403361 H 274 271.59664 v -2.403361 z m 2.40336,2.403361 h 1.20168 V 9.999994 l -0.60084,1.20168 -0.60084,-1.20168 z m 10.81513,0 h 1.20168 V 9.999994 l -0.60084,1.20168 -0.60084,-1.20168 z"
       id="castle-fortress"
       style="fill:#ff0000;fill-opacity:1;stroke:none;stroke-width:0.264584" />
    <g
       id="g8487"
       transform="matrix(0.82682292,0,0,0.82682292,76.630889,-148.96016)"
       style="fill:#ff0000">
      <path
         class="st1"
         d="m 269.77983,182.28836 c 0,0.75375 0,1.50733 0,2.2609 -0.58014,0.10446 -1.17328,0.10446 -1.75325,0 0,-0.75357 0,-1.50715 0,-2.2609 h -1.83073 c 0,0.7679 0,1.53571 0,2.3036 -0.58005,0.10446 -1.17328,0.10446 -1.75333,0 0,-0.76781 0,-1.5357 0,-2.3036 h -1.83065 c 0,0.75375 0,1.50733 0,2.2609 -0.58013,0.10446 -1.17327,0.10446 -1.75332,0 0,-0.75357 0,-1.50715 0,-2.2609 h -1.72135 v 4.5225 l 1.49247,1.94802 c 0,4.36883 0,8.73792 0,13.10666 0.94616,0.17027 1.89883,0.288 2.85404,0.35443 v -3.50675 c 0,0 0.17554,-2.65196 1.85489,-3.60383 1.80903,0.95187 1.80903,3.60383 1.80903,3.60383 v 3.50675 c 0.9553,-0.0663 1.90805,-0.18416 2.85413,-0.35443 0,-4.36883 0,-8.73783 0,-13.10674 l 1.49247,-1.94794 v -4.5225 z m -3.55912,9.45187 c -0.59876,0.10789 -1.21105,0.10789 -1.80973,0 0,-0.59332 0,-1.18663 0,-1.78004 -1.8e-4,-5.3e-4 0.0862,-1.29057 0.9162,-1.77995 0.89397,0.48806 0.89353,1.77688 0.89353,1.77995 0,0.59341 0,1.18672 0,1.78004 z"
         id="path8477"
         style="fill:#ff0000;stroke-width:1" />
    </g>
    <path
       sodipodi:type="star"
       style="display:inline;opacity:1;fill:#ff0000;stroke-width:68.191;stroke-linecap:round;paint-order:stroke fill markers"
       id="path6836-4"
       inkscape:flatsided="false"
       sodipodi:sides="5"
       sodipodi:cx="229.46243"
       sodipodi:cy="212.58244"
       sodipodi:r1="36.336281"
       sodipodi:r2="18.828392"
       sodipodi:arg1="-0.26179939"
       sodipodi:arg2="0.30810002"
       inkscape:rounded="0"
       inkscape:randomized="0"
       transform="matrix(0.05860075,-0.00260783,0.00260783,0.05860075,289.23615,-3.312264)"
       inkscape:transform-center-x="-0.0051946811"
       inkscape:transform-center-y="-0.19858784"
       d="m 264.56058,203.17792 -17.15636,15.11421 1.84837,24.76448 -19.67607,-11.64612 -22.98125,9.41055 4.99588,-22.31191 -16.05156,-18.94845 22.7637,-2.14339 13.06084,-21.12133 9.07285,20.98722 z" />
    <path
       sodipodi:type="star"
       style="display:inline;opacity:1;fill:#ff0000;stroke-width:121.132;stroke-linecap:round;paint-order:stroke fill markers"
       id="path6836-4-8"
       inkscape:flatsided="false"
       sodipodi:sides="5"
       sodipodi:cx="229.46243"
       sodipodi:cy="212.58244"
       sodipodi:r1="36.336281"
       sodipodi:r2="18.828392"
       sodipodi:arg1="-0.26179939"
       sodipodi:arg2="0.30810002"
       inkscape:rounded="0"
       inkscape:randomized="0"
       transform="matrix(0.03298908,-0.00146807,0.00146807,0.03298908,281.91394,4.2796828)"
       inkscape:transform-center-x="-0.0029250513"
       inkscape:transform-center-y="-0.11179484"
       d="m 264.56058,203.17792 -17.15636,15.11421 1.84837,24.76448 -19.67607,-11.64612 -22.98125,9.41055 4.99588,-22.31191 -16.05156,-18.94845 22.7637,-2.14339 13.06084,-21.12133 9.07285,20.98722 z" />
    <path
       sodipodi:type="star"
       style="display:inline;opacity:1;fill:#ff0000;stroke-width:158.244;stroke-linecap:round;paint-order:stroke fill markers"
       id="path6836-4-9"
       inkscape:flatsided="false"
       sodipodi:sides="5"
       sodipodi:cx="229.46243"
       sodipodi:cy="212.58244"
       sodipodi:r1="36.336281"
       sodipodi:r2="18.828392"
       sodipodi:arg1="-0.26179939"
       sodipodi:arg2="0.30810002"
       inkscape:rounded="0"
       inkscape:randomized="0"
       transform="matrix(0.02525243,-0.00112377,0.00112377,0.02525243,295.90116,11.421299)"
       inkscape:transform-center-x="-0.0022365822"
       inkscape:transform-center-y="-0.085574408"
       d="m 264.56058,203.17792 -17.15636,15.11421 1.84837,24.76448 -19.67607,-11.64612 -22.98125,9.41055 4.99588,-22.31191 -16.05156,-18.94845 22.7637,-2.14339 13.06084,-21.12133 9.07285,20.98722 z" />
    <path
       id="rect10373"
       style="opacity:1;fill:#ff0000;stroke-width:7.55906;stroke-linecap:round;paint-order:stroke fill markers"
       d="m 308.6875,0 v 16.351562 h 16.35156 V 0 Z m 7.51367,2.5234375 h 1.5293 V 12.542969 h 2.5 v 1.287109 h -6.51367 v -1.287109 h 2.49804 V 3.9160156 l -2.71875,0.5449219 V 3.0683594 Z"
       transform="scale(0.26458333)" />
    <path
       id="rect10373-2"
       style="display:inline;fill:#ff0000;stroke-width:2;stroke-linecap:round;paint-order:stroke fill markers"
       d="M 301.67365,-5.7220459e-6 V 4.326345 H 306 V -5.7220459e-6 Z M 303.66164,0.66765378 h 0.40463 V 3.3186548 h 0.66145 v 0.3405476 h -1.7234 V 3.3186548 h 0.66094 V 1.0361067 L 302.94592,1.180284 V 0.81183103 Z" />
    <path
       id="path9586"
       style="display:inline;color:#000000;fill:#000000;stroke:#ffffff;stroke-width:2;stroke-miterlimit:4;stroke-dasharray:none"
       d="m 312.86242,3.882737 -1.06905,1.0694453 4.74434,4.7443203 -4.74434,4.7439294 1.06905,1.069445 4.74474,-4.743929 4.74396,4.743929 1.07063,-1.069445 -4.74474,-4.7439294 4.74474,-4.7443203 -1.07063,-1.0694453 -4.74396,4.7439294 z" />
    <path
       id="path9318"
       style="display:inline;color:#000000;fill:#000000;stroke-width:1;-inkscape-stroke:none"
       d="m 312.86242,3.882737 -1.06905,1.0694453 4.74434,4.7443203 -4.74434,4.7439294 1.06905,1.069445 4.74474,-4.743929 4.74396,4.743929 1.07063,-1.069445 -4.74474,-4.7439294 4.74474,-4.7443203 -1.07063,-1.0694453 -4.74396,4.7439294 z" />
  </g>
  <style
     type="text/css"
     id="style7254"><![CDATA[
	.st0{fill:#D1D1D1;}
	.st1{fill:#454545;}
]]></style>
  <style
     type="text/css"
     id="style7768">
	.st0{fill:#000000;}
</style>
  <style
     type="text/css"
     id="style8102"><![CDATA[
	.st0{fill:#000000;}
]]></style>
  <style
     type="text/css"
     id="style8473"><![CDATA[
	.st0{fill:#D1D1D1;}
	.st1{fill:#454545;}
]]></style>
</svg>
